<svg xmlns="http://www.w3.org/2000/svg" width="1080" height="1080" version="1.0" viewBox="0 0 810 810"><path fill="#2c3e50" d="M253.992 683.004a12.662 12.662 0 0 1-2.129 7.02 12.742 12.742 0 0 1-3.484 3.488c-.692.46-1.418.847-2.188 1.164a12.548 12.548 0 0 1-7.3.722 12.674 12.674 0 0 1-2.371-.722 12.594 12.594 0 0 1-2.184-1.164 12.742 12.742 0 0 1-3.484-3.489 12.613 12.613 0 0 1-2.13-7.02c0-.831.079-1.651.243-2.464.16-.816.398-1.605.719-2.371a12.747 12.747 0 0 1 2.738-4.102 12.716 12.716 0 0 1 4.098-2.738 12.662 12.662 0 0 1 7.304-.719c.813.16 1.602.403 2.367.72.77.316 1.496.706 2.188 1.167.687.461 1.328.984 1.914 1.57a12.747 12.747 0 0 1 2.738 4.102c.317.766.559 1.555.719 2.371.164.813.242 1.633.242 2.465ZM797.363 455.547c6.95 0 12.637-5.688 12.637-12.637 0-6.95-5.055-12.637-12.004-12.637-3.793 8.844-8.215 17.692-13.902 25.907 4.426-.633 8.215-.633 12.008-.633h1.261ZM12.004 389.836C5.054 391.102 0 397.418 1.262 404.367c1.265 6.95 1.265 214.82 0 221.774-1.262 6.949 3.16 13.265 10.11 14.53 3.16.63 30.96 5.056 78.347 5.056 74.554 0 195.867-11.375 339.289-66.973 1.898-.633 88.457-38.543 180.07-72.031-11.371-4.422-20.848-10.11-29.695-15.793-19.586 7.582-39.172 14.53-56.863 22.113L413.215 456.18s-.633 0-.633-.633c-49.281-20.852-96.668-35.383-140.898-46.125 49.285-3.79 97.933-6.317 149.113-.633 30.328 3.16 61.285 10.742 90.98 17.691 6.953 1.899 13.27 3.16 20.22 4.426-3.79-9.48-6.95-18.957-8.845-27.8-1.898-.633-3.793-.633-5.687-1.266-30.328-6.95-61.918-14.531-94.14-17.692-66.345-6.949-127.63-1.894-192.079 3.793-17.687 1.262-35.379 3.16-53.703 4.422-.633 0-1.895 0-2.527.633-32.856-5.055-61.286-6.95-85.297-6.95v-69.503l15.164 20.219c3.793 5.054 12.004 6.953 17.691 2.527 5.688-4.422 6.95-12.004 2.528-17.691L89.719 274.21v-20.848l15.164 20.219c3.793 5.055 12.004 6.95 17.691 2.527 5.688-4.425 6.95-12.007 2.528-17.691l-35.383-47.387V183.86l15.164 20.22c3.793 5.054 12.004 6.952 17.691 2.526 5.688-4.421 6.95-12.003 2.528-17.69l-37.91-50.544-.633-.633a12.486 12.486 0 0 0-19.586 0l-.633.633-37.906 50.543c-4.426 5.688-3.16 13.27 2.527 17.691 5.684 4.426 13.266 3.16 17.691-2.527l15.793-20.219v27.172l-35.382 47.387c-4.422 5.684-3.157 13.266 2.527 17.691 5.687 4.422 13.27 3.157 17.691-2.527l15.164-20.219v20.848l-35.382 47.387c-4.422 5.687-3.157 13.27 2.527 17.691 5.687 4.426 13.27 3.16 17.691-2.527l15.164-20.219v69.504c-30.957.629-49.914 3.156-52.441 3.789Zm368.355 116.258c6.95 0 12.637 5.683 12.637 12.636 0 6.95-5.687 12.633-12.637 12.633-6.949 0-12.636-5.683-12.636-12.633 0-6.953 5.687-12.636 12.636-12.636ZM190.813 442.91c6.949 0 12.636 5.688 12.636 12.637 0 6.95-5.687 12.637-12.637 12.637-6.953 0-12.636-5.688-12.636-12.637 0-6.95 5.683-12.637 12.637-12.637Zm-88.458 113.727c6.95 0 12.637 5.687 12.637 12.636 0 6.954-5.687 12.637-12.637 12.637-6.949 0-12.636-5.683-12.636-12.637 0-6.949 5.687-12.636 12.636-12.636ZM51.809 747.45c0 .827-.079 1.652-.243 2.464a12.574 12.574 0 0 1-1.886 4.555c-.461.691-.985 1.328-1.57 1.914a12.508 12.508 0 0 1-4.102 2.742c-.766.316-1.555.555-2.371.719a12.707 12.707 0 0 1-4.93 0 12.96 12.96 0 0 1-2.371-.719 12.885 12.885 0 0 1-2.184-1.168 12.323 12.323 0 0 1-1.914-1.574 12.524 12.524 0 0 1-1.57-1.914 12.472 12.472 0 0 1-1.168-2.184 12.294 12.294 0 0 1-.719-2.37 12.442 12.442 0 0 1 0-4.93c.16-.813.399-1.606.719-2.372.316-.765.707-1.496 1.168-2.183.46-.692.984-1.328 1.57-1.914a12.323 12.323 0 0 1 1.914-1.575c.692-.46 1.418-.847 2.184-1.168a12.96 12.96 0 0 1 2.371-.718 12.707 12.707 0 0 1 4.93 0c.816.164 1.605.402 2.37.718a12.509 12.509 0 0 1 4.102 2.742c.586.587 1.11 1.223 1.57 1.915a12.574 12.574 0 0 1 2.129 7.02ZM355.719 46.125V13.27c0-6.954-5.688-12.637-12.637-12.637-6.95 0-12.637 5.683-12.637 12.637v32.855c0 6.95 5.688 12.633 12.637 12.633 6.95 0 12.637-5.684 12.637-12.633ZM236.3 50.547c-5.05-5.055-13.265-5.055-17.687 0-5.054 5.055-5.054 13.266 0 17.691l24.008 23.375c2.527 2.528 5.688 3.793 8.844 3.793 3.16 0 6.32-1.265 8.847-3.793 5.055-5.054 5.055-13.265 0-17.691ZM450.492 50.547 426.48 73.922c-5.054 5.055-5.054 12.637 0 17.691 2.528 2.528 5.688 3.793 8.848 3.793 3.16 0 6.317-1.265 8.844-3.793l24.012-23.375c5.054-5.054 5.054-12.636 0-17.691-5.055-4.422-13.27-4.422-17.692 0ZM293.797 68.238c1.898 0 3.16-.633 5.055-1.265 6.32-2.528 9.48-10.11 6.953-16.426l-12.637-30.328c-2.527-6.32-10.11-9.477-16.43-6.95-6.316 2.528-9.476 10.11-6.949 16.426l12.637 30.328c1.894 5.688 6.32 8.215 11.37 8.215ZM392.996 68.238c5.055 0 9.477-3.16 11.371-7.582l13.27-30.328c2.527-6.32 0-13.902-6.32-16.43-6.317-2.527-13.899 0-16.426 6.954L381.62 51.18c-2.527 6.316 0 13.898 6.32 16.425 1.895.633 3.79.633 5.055.633ZM451.125 128.262c1.895 5.054 6.95 7.582 12.004 7.582 1.894 0 3.156 0 5.055-.633l30.957-12.637c6.32-2.527 9.48-10.11 6.953-16.426-2.528-6.32-10.11-9.48-16.43-6.953l-30.957 12.637c-6.953 2.527-10.11 10.11-7.582 16.43ZM178.805 109.938c-2.528 6.316.632 13.898 7.582 16.425l31.593 12.008c1.262.629 3.16.629 4.422.629 5.055 0 10.11-3.156 12.004-8.21 2.528-6.321-.629-13.903-7.582-16.43l-31.59-12.005c-6.32-1.894-13.902 1.266-16.43 7.582ZM258.418 190.18h168.695c6.95 0 12.637-5.688 12.637-12.637 0-53.707-43.594-97.3-96.668-97.3-53.074 0-97.3 43.593-97.3 97.3 0 6.95 5.683 12.637 12.636 12.637ZM756.926 206.605l-2.528-7.582c-13.265-38.539-38.539-110.566-89.086-110.566h-.632c-50.547 0-75.82 72.027-89.086 110.566l-2.528 7.582c-19.586 54.97-29.066 108.676-27.8 159.852-.633 9.48-1.895 92.25 82.136 119.418v-33.488l-26.535-26.535c-8.215-7.582-12.008-17.063-12.008-27.168 0-10.11 3.793-19.59 11.375-26.54 7.582-7.582 17.059-10.742 26.536-10.742V342.45c0-20.851 17.058-37.91 37.91-37.91 13.902 0 26.539 7.582 32.855 19.586 11.371-1.262 23.38 1.898 31.59 10.742 14.535 14.531 14.535 38.543 0 53.707L702.59 415.11v71.395c84.031-27.168 82.77-109.938 82.137-119.414 1.265-51.176-8.215-104.883-27.801-160.485Zm0 0"></path><path fill="#2c3e50" d="M797.363 480.82h-1.261c-12.008 0-25.274 1.895-39.809 5.055-13.898 11.371-31.59 20.848-53.703 26.535v107.41c0 20.852-17.059 37.91-37.91 37.91-20.852 0-37.91-17.058-37.91-37.91v-85.297c-101.09 49.914-199.024 116.258-205.344 120.68-216.082 137.106-405 128.89-406.895 128.89-6.949 0-12.636 5.055-13.27 12.009-.628 6.949 5.055 12.636 12.009 13.265H810v-315.91c0-6.953-5.688-12.008-12.637-12.637Zm-391.73 303.274c-6.95 0-12.637-5.684-12.637-12.637 0-6.95 5.688-12.637 12.637-12.637 6.949 0 12.637 5.688 12.637 12.637 0 6.953-5.688 12.637-12.637 12.637Zm176.91-75.817c-6.95 0-12.637-5.687-12.637-12.636 0-6.95 5.688-12.637 12.637-12.637 6.95 0 12.637 5.687 12.637 12.637 0 6.949-5.688 12.636-12.637 12.636Zm139-113.73c-6.95 0-12.637-5.688-12.637-12.637 0-6.95 5.688-12.637 12.637-12.637 6.953 0 12.637 5.688 12.637 12.637 0 6.95-5.684 12.637-12.637 12.637Zm50.547 151.64c-6.95 0-12.637-5.687-12.637-12.636 0-6.953 5.688-12.637 12.637-12.637 6.95 0 12.637 5.684 12.637 12.637 0 6.949-5.688 12.636-12.637 12.636Zm0 0"></path><path fill="#2c3e50" d="M664.68 632.457c6.949 0 12.636-5.687 12.636-12.637V403.738l34.118-34.12c5.054-5.055 5.054-12.638 0-17.692-5.055-5.055-12.637-5.055-17.692 0l-16.426 16.43v-26.54c0-6.949-5.687-12.636-12.636-12.636-6.95 0-12.637 5.687-12.637 12.636v64.446l-16.426-16.426c-5.054-5.055-12.637-5.055-17.691 0-5.055 5.055-5.055 12.637 0 17.691l34.117 34.118V619.82c0 6.95 5.687 12.637 12.637 12.637Zm0 0"></path></svg>