<svg xmlns="http://www.w3.org/2000/svg" width="1080" viewBox="0 0 810 810" height="1080" version="1.0"><path fill="#2c3e50" d="M373.762 650.234a30.403 30.403 0 0 1 1.8 2.145 29.32 29.32 0 0 1 2.953 4.75 29.303 29.303 0 0 1 2.008 5.219c.254.902.461 1.808.63 2.73.163.918.284 1.844.363 2.774.078.933.113 1.863.101 2.8a29.029 29.029 0 0 1-.16 2.793 31.29 31.29 0 0 1-.426 2.766 29.761 29.761 0 0 1-2.809 7.89c-.437.829-.91 1.633-1.417 2.415a29.49 29.49 0 0 1-3.488 4.371 387.22 387.22 0 0 1-30.403 30.054 69.287 69.287 0 0 1-16.621 8.688 31.528 31.528 0 0 1-4.586.062 31.81 31.81 0 0 1-4.543-.609 31.323 31.323 0 0 1-15.879-8.664 31.22 31.22 0 0 1-5.395-7.379 26.075 26.075 0 0 1-1.843-3.695 26.625 26.625 0 0 1-1.875-8.016 26.441 26.441 0 0 1 .02-4.125 26.231 26.231 0 0 1 1.933-8 26.077 26.077 0 0 1 1.875-3.68 26.355 26.355 0 0 1 2.418-3.343 342.614 342.614 0 0 1 35.07-35.168c.715-.61 1.453-1.18 2.223-1.715a28.123 28.123 0 0 1 4.887-2.735c.859-.375 1.734-.707 2.625-.996a28.779 28.779 0 0 1 5.472-1.195c.93-.11 1.86-.172 2.797-.187a28.792 28.792 0 0 1 5.582.445c.922.168 1.832.379 2.735.633a28.839 28.839 0 0 1 5.21 2.05 28.884 28.884 0 0 1 4.715 3.032 28.663 28.663 0 0 1 4.028 3.89ZM179.406 459.137a32.435 32.435 0 0 0-4.895-7.555 32.471 32.471 0 0 0-10.71-8.137 32.3 32.3 0 0 0-4.203-1.64 33.02 33.02 0 0 0-4.387-1.047 32.677 32.677 0 0 0-4.492-.426 77.093 77.093 0 0 0-18.164 8.988 376.475 376.475 0 0 0-31.72 31.543 29.106 29.106 0 0 0-1.886 2.157 28.06 28.06 0 0 0-1.66 2.335 28.45 28.45 0 0 0-3.492 7.825 28.373 28.373 0 0 0-.973 5.64 29.24 29.24 0 0 0-.058 2.868 28.821 28.821 0 0 0 .734 5.676 29.488 29.488 0 0 0 1.844 5.417c.398.871.836 1.719 1.32 2.547.48.824 1 1.625 1.563 2.399a29 29 0 0 0 3.804 4.277 28.796 28.796 0 0 0 4.301 3.598 28.838 28.838 0 0 0 2.387 1.476 30.058 30.058 0 0 0 5.144 2.227c.895.285 1.797.53 2.711.73.914.203 1.836.36 2.766.469.93.113 1.863.18 2.8.203.938.023 1.872 0 2.805-.07a29.548 29.548 0 0 0 5.527-.938 30.411 30.411 0 0 0 2.673-.863 29.429 29.429 0 0 0 5.03-2.477 29.161 29.161 0 0 0 4.466-3.39 444.712 444.712 0 0 0 32.312-32.367 26.869 26.869 0 0 0 2.727-3.262 26.863 26.863 0 0 0 3.742-7.602 26.555 26.555 0 0 0 1.188-8.39 26.774 26.774 0 0 0-3.203-12.23Zm59.824 56.851a30.344 30.344 0 0 0-18.016-7.875 30.282 30.282 0 0 0-2.855-.105c-.957.012-1.906.066-2.855.168-.95.101-1.89.246-2.828.433a30.968 30.968 0 0 0-5.469 1.653 29.97 29.97 0 0 0-2.59 1.207 29.99 29.99 0 0 0-4.793 3.11c-.75.589-1.469 1.218-2.156 1.878a398.393 398.393 0 0 0-30 30.402 63.136 63.136 0 0 0-8.23 15.657 30.62 30.62 0 0 0-.18 4.71 30.45 30.45 0 0 0 .543 4.684 30.759 30.759 0 0 0 5.746 12.8 31.156 31.156 0 0 0 3.14 3.517 30.726 30.726 0 0 0 3.645 2.992c1.29.906 2.64 1.707 4.055 2.406 1.281.7 2.613 1.293 3.988 1.785 1.375.488 2.781.871 4.215 1.14 1.437.27 2.887.427 4.344.47a28.007 28.007 0 0 0 8.64-1.105 27.727 27.727 0 0 0 4.086-1.552 27.4 27.4 0 0 0 3.793-2.168 27.925 27.925 0 0 0 3.41-2.73c11.055-10 21.715-20.469 31.746-31.488a28.867 28.867 0 0 0 5.133-7.122c.446-.87.848-1.765 1.203-2.675a29.148 29.148 0 0 0 1.567-5.653c.168-.965.281-1.937.351-2.914.067-.98.082-1.957.051-2.937a28.321 28.321 0 0 0-.246-2.926 29.487 29.487 0 0 0-1.363-5.703 30.274 30.274 0 0 0-1.11-2.719 28.888 28.888 0 0 0-1.375-2.594 29.12 29.12 0 0 0-1.632-2.437 28.043 28.043 0 0 0-1.868-2.266 28.144 28.144 0 0 0-2.09-2.062Zm76.301 92.293c-1.172-16.285-6.351-26.058-18.219-31.39a28.785 28.785 0 0 0-4.175-1.645 28.603 28.603 0 0 0-4.383-.969 28.66 28.66 0 0 0-4.48-.265c-1.5.031-2.989.176-4.47.441a28.712 28.712 0 0 0-4.34 1.137 28.594 28.594 0 0 0-7.883 4.238 28.232 28.232 0 0 0-3.343 2.992c-9.988 9.207-19.543 18.957-28.914 28.762a30.759 30.759 0 0 0-2.07 2.152 30.454 30.454 0 0 0-3.441 4.875 29.308 29.308 0 0 0-1.336 2.668 30.177 30.177 0 0 0-1.852 5.672c-.21.973-.375 1.953-.488 2.946-.117.988-.18 1.98-.196 2.976-.015.996.02 1.992.102 2.984a29.582 29.582 0 0 0 1.098 5.863 29.709 29.709 0 0 0 2.238 5.532 29.567 29.567 0 0 0 3.293 4.973 29.063 29.063 0 0 0 2 2.214c.71.704 1.45 1.368 2.226 1.997a30.488 30.488 0 0 0 2.41 1.765 31.547 31.547 0 0 0 2.575 1.52c.883.46 1.789.883 2.715 1.254a29.733 29.733 0 0 0 5.726 1.683 30.521 30.521 0 0 0 5.95.523 30.517 30.517 0 0 0 5.933-.66c.977-.207 1.938-.46 2.89-.765a29.683 29.683 0 0 0 5.481-2.363 29.267 29.267 0 0 0 2.54-1.578 29.749 29.749 0 0 0 4.55-3.864 368.331 368.331 0 0 0 28.035-28.23 86.233 86.233 0 0 0 9.828-17.469Zm448.117-430.504a194.296 194.296 0 0 0-19.882-24.324 207.537 207.537 0 0 0-23.32-21.562 174.824 174.824 0 0 0-35.083-21.055 272.093 272.093 0 0 0-25.808-10.5 271.695 271.695 0 0 0-26.742-7.816 272.702 272.702 0 0 0-55.172-7.266 238.269 238.269 0 0 0-28.196 2.387 237.57 237.57 0 0 0-27.715 5.718 236.58 236.58 0 0 0-26.835 8.97 235.932 235.932 0 0 0-25.582 12.093 301.668 301.668 0 0 0-37.883 26.582 301.915 301.915 0 0 0-33.38 32.05c-31.359 31.563-63.171 62.692-94.464 94.301a37.14 37.14 0 0 0-1.535 1.504 37.257 37.257 0 0 0-2.813 3.258 36.594 36.594 0 0 0-2.433 3.547c-.375.613-.73 1.238-1.067 1.871-.34.633-.66 1.277-.96 1.926-.301.652-.587 1.312-.852 1.976-.266.668-.512 1.34-.742 2.024-.227.68-.434 1.367-.625 2.059a37.896 37.896 0 0 0-.907 4.207 38.804 38.804 0 0 0-.277 2.132c-.074.715-.125 1.43-.156 2.149a35.904 35.904 0 0 0-.04 2.152 39.481 39.481 0 0 0 .282 4.293c.086.711.191 1.422.32 2.129.125.707.27 1.406.438 2.106a37.78 37.78 0 0 0 1.219 4.125c.242.675.503 1.347.78 2.007.282.66.579 1.313.891 1.961a40.24 40.24 0 0 0 2.102 3.754c.387.606.785 1.2 1.203 1.785.418.582.852 1.153 1.3 1.715.45.559.915 1.106 1.395 1.64.48.532.977 1.052 1.485 1.56a37.18 37.18 0 0 0 3.215 2.86c.558.448 1.132.878 1.718 1.292a38.55 38.55 0 0 0 5.738 3.5c1.008.496 2.032.949 3.079 1.36 1.047.405 2.105.765 3.183 1.081a37.908 37.908 0 0 0 6.594 1.309c1.113.125 2.234.195 3.356.218a38.66 38.66 0 0 0 6.707-.449 38.19 38.19 0 0 0 3.296-.668 38.202 38.202 0 0 0 9.367-3.68 37.794 37.794 0 0 0 2.868-1.757 39.61 39.61 0 0 0 2.703-2.004 40.069 40.069 0 0 0 2.516-2.23c14.625-13.747 88.457-85.649 109.664-106.973 111.324 110.273 192.804 191.683 212.414 211.793a5477.356 5477.356 0 0 1 26.199 27.047c8.785 9.218 17.707 18.652 27.059 28.406 6.328-7.98 13.355-15.953 20.207-24.238a295.95 295.95 0 0 0 19.261-26.059 242.22 242.22 0 0 0 31.742-78.402 241.88 241.88 0 0 0 4.25-28.004 222.968 222.968 0 0 0-.238-30.864 223.05 223.05 0 0 0-13.156-60.156 222.564 222.564 0 0 0-12.664-28.144 270.982 270.982 0 0 0-18.024-30.696ZM466.555 264.38c-30.774 29.926-78.473 76.668-90.371 87.113A72.741 72.741 0 0 1 359.274 362a73.81 73.81 0 0 1-6.2 2.426 72.729 72.729 0 0 1-12.934 3.094 72.412 72.412 0 0 1-13.28.68 72.36 72.36 0 0 1-6.63-.575 71.426 71.426 0 0 1-6.55-1.176 72.47 72.47 0 0 1-6.414-1.777 71.971 71.971 0 0 1-12.211-5.27 73.249 73.249 0 0 1-5.692-3.449 73.06 73.06 0 0 1-14.863-13.258 71.92 71.92 0 0 1-4.074-5.265 70.68 70.68 0 0 1-3.567-5.621 71.101 71.101 0 0 1-5.504-12.11 71.587 71.587 0 0 1-1.882-6.387 72.605 72.605 0 0 1-1.286-6.535 72.24 72.24 0 0 1-.722-13.28 72.54 72.54 0 0 1 .562-6.634 71.763 71.763 0 0 1 11.743-30.847 72.5 72.5 0 0 1 3.992-5.329c9.379-11.152 20.043-21.238 30.402-31.585 25.711-25.832 51.594-51.586 78.035-77.95a220.091 220.091 0 0 0-11.101-9.347 220.307 220.307 0 0 0-23.93-16.399 219.604 219.604 0 0 0-53.266-22.688 218.529 218.529 0 0 0-14.101-3.413 219.208 219.208 0 0 0-28.735-4.008 219.054 219.054 0 0 0-29.007-.188c-4.832.29-9.649.735-14.45 1.34-4.804.61-9.582 1.371-14.332 2.293a220.26 220.26 0 0 0-28.05 7.395c-92.63 31.476-146.344 97.62-157.258 195.07-.465 3.906-.82 7.816-1.07 11.742a211.548 211.548 0 0 0-.43 11.778 215.714 215.714 0 0 0 1.09 23.543c.398 3.91.902 7.808 1.515 11.69a212.16 212.16 0 0 0 2.153 11.59 214.306 214.306 0 0 0 6.2 22.738 214.154 214.154 0 0 0 26.007 52.696 214.799 214.799 0 0 0 22.168 27.504c15.05-13.746 28.863-26.699 42.976-39.238a63.26 63.26 0 0 1 8.844-7.04 61.537 61.537 0 0 1 3.21-1.976 63.06 63.06 0 0 1 3.321-1.785 60.42 60.42 0 0 1 3.426-1.582 61.691 61.691 0 0 1 3.512-1.375 63.902 63.902 0 0 1 7.238-2.11 63.08 63.08 0 0 1 3.7-.722 60.458 60.458 0 0 1 3.737-.504 63.593 63.593 0 0 1 3.762-.277c1.258-.055 2.512-.074 3.77-.055 1.257.02 2.515.078 3.77.172a67.02 67.02 0 0 1 3.75.399c1.245.171 2.484.378 3.718.62a64.07 64.07 0 0 1 7.297 1.902c1.195.392 2.379.817 3.547 1.278a61.692 61.692 0 0 1 6.84 3.176 61.638 61.638 0 0 1 6.41 3.969 62.516 62.516 0 0 1 8.613 7.312 61.16 61.16 0 0 1 2.562 2.766 62.603 62.603 0 0 1 6.637 9.148 61.582 61.582 0 0 1 1.832 3.297 59.08 59.08 0 0 1 1.637 3.399c3.531 9.23 6.242 18.699 8.133 28.402 39.957 3.508 61.726 25.875 65.297 66.149 40.98 3.71 63.097 25.863 66.386 66.027 1.16.379 2.344.66 3.551.836 1.215.031 2.426.101 3.637.203a63.114 63.114 0 0 1 7.215 1.027c1.191.242 2.375.516 3.55.82 1.176.31 2.344.649 3.5 1.02 1.157.375 2.301.781 3.434 1.219a64.899 64.899 0 0 1 6.637 3.012 64.907 64.907 0 0 1 6.25 3.746 63.64 63.64 0 0 1 11.027 9.492c.828.89 1.625 1.805 2.399 2.742a63.748 63.748 0 0 1 4.308 5.879 66.137 66.137 0 0 1 1.899 3.113 64.858 64.858 0 0 1 3.246 6.52 64.038 64.038 0 0 1 4.176 13.938 62.91 62.91 0 0 1 .875 7.234c.078 1.214.12 2.43.128 3.644a63.174 63.174 0 0 1-.367 7.277 62.557 62.557 0 0 1-.492 3.61 63.995 63.995 0 0 1-1.594 7.11 9.533 9.533 0 0 0 .012 4.175 9.676 9.676 0 0 0 1.766 3.785c11.824 12.117 23.617 24.332 36.289 35.535a28.501 28.501 0 0 0 13.203 5.817c1.601.261 3.215.383 4.84.367a28.524 28.524 0 0 0 9.52-1.734 28.53 28.53 0 0 0 4.405-2.043 29.166 29.166 0 0 0 3.993-2.762 29.782 29.782 0 0 0 4.844-4.672 28.847 28.847 0 0 0 2-2.71 29.27 29.27 0 0 0 1.683-2.919 29.682 29.682 0 0 0 2.336-6.308 29.807 29.807 0 0 0 .871-6.672c.02-1.125-.023-2.25-.129-3.368a30.286 30.286 0 0 0-1.383-6.586 29.994 29.994 0 0 0-1.238-3.132 29.272 29.272 0 0 0-1.578-2.977 29.374 29.374 0 0 0-1.902-2.781 29.786 29.786 0 0 0-4.68-4.836c-29.817-29.84-59.774-59.524-89.567-89.383a30.21 30.21 0 0 1-3.57-4.344l-51.836-51.836a16.404 16.404 0 0 1-1.965-2.472 16.43 16.43 0 0 1-1.449-2.805 16.41 16.41 0 0 1-.879-3.031c-.195-1.04-.289-2.09-.277-3.149.008-1.054.117-2.101.332-3.136.21-1.04.523-2.043.933-3.02.407-.972.907-1.902 1.497-2.777a16.24 16.24 0 0 1 4.445-4.446c.879-.59 1.805-1.09 2.781-1.496a16.303 16.303 0 0 1 6.156-1.27 16.348 16.348 0 0 1 8.98 2.61c.891.574 1.716 1.23 2.474 1.965l52.12 52.117a35.35 35.35 0 0 1 3.985 3.258c9.379 8.914 18.816 17.785 28.023 26.871 21.5 21.25 42.672 42.824 64.399 63.836a29.787 29.787 0 0 0 4.777 3.988 29.889 29.889 0 0 0 5.504 2.914c.965.387 1.95.723 2.95 1.008 1 .285 2.011.52 3.038.696 1.024.18 2.055.304 3.094.375 1.04.074 2.078.09 3.117.05 1.04-.039 2.075-.129 3.106-.273a30.432 30.432 0 0 0 3.058-.602c1.008-.25 2-.554 2.98-.914a29.502 29.502 0 0 0 5.594-2.734 30.008 30.008 0 0 0 7.027-6.117 31.345 31.345 0 0 0 3.242-4.86 30.834 30.834 0 0 0 2.259-5.386c.293-.934.535-1.875.734-2.832a30.002 30.002 0 0 0 .649-5.805c.015-.977-.016-1.95-.094-2.922a31.004 31.004 0 0 0-1.016-5.754 30.005 30.005 0 0 0-.918-2.777 30.735 30.735 0 0 0-1.171-2.68 31.942 31.942 0 0 0-1.426-2.55 29.936 29.936 0 0 0-1.664-2.407 30.341 30.341 0 0 0-3.973-4.285c-30.402-30.61-61.105-61.012-91.672-91.531-14.57-14.551-29.316-28.914-43.508-43.844a15.941 15.941 0 0 1-4.352-6.77 17.292 17.292 0 0 1-.425-1.57c-.113-.531-.2-1.066-.258-1.605a15.115 15.115 0 0 1-.097-1.625 16.1 16.1 0 0 1 .07-1.625 15.83 15.83 0 0 1 .64-3.188c.16-.516.344-1.027.56-1.527a15.747 15.747 0 0 1 3.69-5.305 16.597 16.597 0 0 1 2.497-2.062 16.636 16.636 0 0 1 2.851-1.547c.996-.426 2.027-.75 3.09-.973a16.87 16.87 0 0 1 3.223-.367 16.93 16.93 0 0 1 9.246 2.586 16.424 16.424 0 0 1 2.566 1.984 65.373 65.373 0 0 1 5.777 5.426c43.313 43.117 86.504 86.344 130.055 129.21a38.893 38.893 0 0 0 7.766 5.942 38.922 38.922 0 0 0 9 3.832c1.535.391 3.094.653 4.676.785a28.69 28.69 0 0 0 4.742.012 28.68 28.68 0 0 0 4.676-.765 29.38 29.38 0 0 0 4.492-1.524 28.854 28.854 0 0 0 13.781-12.558 29.818 29.818 0 0 0 3.352-9.074c.304-1.594.48-3.204.527-4.825a29.578 29.578 0 0 0-.266-4.848 29.728 29.728 0 0 0-1.043-4.738 30.1 30.1 0 0 0-1.804-4.504 29.127 29.127 0 0 0-2.512-4.152 29.57 29.57 0 0 0-3.152-3.691c-33.18-33.497-66.645-66.735-100.012-100.055-11.942-11.945-24.18-23.715-35.93-35.91a18.095 18.095 0 0 1-1.226-1.16 17.21 17.21 0 0 1-2.079-2.665 16.997 16.997 0 0 1-2.023-4.637 16.79 16.79 0 0 1-.543-3.331 17.453 17.453 0 0 1-.023-1.692 17.387 17.387 0 0 1 .468-3.347 17.1 17.1 0 0 1 .48-1.621c.188-.532.403-1.051.641-1.563a16.582 16.582 0 0 1 1.735-2.902 17.16 17.16 0 0 1 1.074-1.305 17.633 17.633 0 0 1 2.7-2.207c.488-.32.988-.621 1.503-.89a17.192 17.192 0 0 1 3.227-1.32c.558-.165 1.125-.302 1.699-.411a17.163 17.163 0 0 1 3.473-.317 18.25 18.25 0 0 1 3.469.379 17.866 17.866 0 0 1 3.324 1.055 17.626 17.626 0 0 1 5.707 3.95c1.5 1.292 2.804 2.835 4.214 4.234 43.028 42.91 86.086 85.804 129.176 128.68a32.76 32.76 0 0 0 3.332 3.335 33.216 33.216 0 0 0 3.774 2.828 32.91 32.91 0 0 0 4.14 2.254 32.692 32.692 0 0 0 9.032 2.637c1.562.219 3.128.328 4.707.32a32.733 32.733 0 0 0 9.304-1.375l.848-.293a31.877 31.877 0 0 0 1.789-.793 29.379 29.379 0 0 0 3.41-1.926 30.263 30.263 0 0 0 4.582-3.663 30.84 30.84 0 0 0 2.621-2.906c.407-.512.793-1.036 1.164-1.575.375-.535.727-1.086 1.063-1.644a30.464 30.464 0 0 0 3.605-9.059c.14-.64.262-1.281.364-1.926a32.23 32.23 0 0 0 .234-1.945 29.59 29.59 0 0 0 .09-3.914 29.831 29.831 0 0 0-1.324-7.7 30.32 30.32 0 0 0-2.262-5.41c-.313-.574-.64-1.14-.985-1.695a30.994 30.994 0 0 0-2.28-3.18 30.837 30.837 0 0 0-2.677-2.859 30.745 30.745 0 0 0-1.468-1.293c-48.73-48.765-158.73-158.582-220.957-220.45Zm0 0"></path></svg>