<svg xmlns="http://www.w3.org/2000/svg" width="1080" height="1080" version="1.0" viewBox="0 0 810 810"><path fill="#2c3e50" d="M249.23 275.188c1.063 0 2.125-.024 3.184-.079a61.813 61.813 0 0 0 3.18-.234 61.736 61.736 0 0 0 3.16-.39 61.331 61.331 0 0 0 3.14-.544 64.82 64.82 0 0 0 3.106-.699 63.687 63.687 0 0 0 6.098-1.847c1-.36 1.988-.739 2.968-1.145.985-.41 1.954-.84 2.914-1.293a64.567 64.567 0 0 0 5.617-3.004 66.476 66.476 0 0 0 5.297-3.535 64.362 64.362 0 0 0 4.922-4.043c.79-.71 1.559-1.445 2.309-2.195.75-.75 1.484-1.52 2.195-2.309a64.363 64.363 0 0 0 7.582-10.219 71.346 71.346 0 0 0 1.57-2.773c.5-.934.977-1.883 1.43-2.844.453-.96.887-1.93 1.293-2.914.407-.98.79-1.969 1.145-2.973.36-1 .691-2.007 1-3.023.308-1.016.59-2.04.851-3.07a64.94 64.94 0 0 0 .696-3.11 61.714 61.714 0 0 0 .934-6.297c.105-1.058.183-2.117.234-3.18.054-1.058.078-2.12.078-3.183 0-1.062-.024-2.125-.078-3.183a61.814 61.814 0 0 0-.235-3.18 61.713 61.713 0 0 0-.386-3.16 65.955 65.955 0 0 0-1.247-6.246 63.687 63.687 0 0 0-1.847-6.098 64.722 64.722 0 0 0-2.438-5.883 62.36 62.36 0 0 0-1.43-2.844 71.346 71.346 0 0 0-1.57-2.773 66.489 66.489 0 0 0-3.539-5.297 64.362 64.362 0 0 0-4.043-4.922 61.268 61.268 0 0 0-2.195-2.308c-.75-.75-1.52-1.485-2.309-2.196a64.363 64.363 0 0 0-10.218-7.582 74.2 74.2 0 0 0-2.77-1.57c-.937-.5-1.887-.977-2.848-1.43a64.722 64.722 0 0 0-8.91-3.437 63.688 63.688 0 0 0-3.07-.848 65.955 65.955 0 0 0-6.246-1.246 66.417 66.417 0 0 0-6.34-.621 61.734 61.734 0 0 0-3.184-.078c-1.062 0-2.125.023-3.183.078a66.417 66.417 0 0 0-6.34.621 64.949 64.949 0 0 0-6.246 1.246 63.689 63.689 0 0 0-6.094 1.848 60.611 60.611 0 0 0-2.972 1.144c-.985.407-1.954.84-2.915 1.293-.96.453-1.91.93-2.843 1.43a71.345 71.345 0 0 0-2.774 1.57 66.49 66.49 0 0 0-5.297 3.54 64.363 64.363 0 0 0-4.922 4.043 61.27 61.27 0 0 0-2.308 2.195c-.75.75-1.484 1.52-2.195 2.308a64.361 64.361 0 0 0-9.149 12.992c-.504.934-.98 1.883-1.433 2.844-.454.961-.883 1.93-1.293 2.914-.407.98-.786 1.969-1.145 2.969a63.796 63.796 0 0 0-1.848 6.098 65.904 65.904 0 0 0-.699 3.105 61.332 61.332 0 0 0-.543 3.14 61.737 61.737 0 0 0-.39 3.16 61.813 61.813 0 0 0-.235 3.18 61.734 61.734 0 0 0-.078 3.184c0 1.063.024 2.125.078 3.184.051 1.062.13 2.12.235 3.18.101 1.054.234 2.109.39 3.16a64.975 64.975 0 0 0 1.242 6.246 63.686 63.686 0 0 0 1.848 6.093c.36 1.004.738 1.993 1.145 2.973.41.984.84 1.953 1.293 2.914.453.961.93 1.91 1.433 2.844.5.937 1.024 1.863 1.57 2.773a66.477 66.477 0 0 0 3.535 5.297 64.362 64.362 0 0 0 4.043 4.922c.712.79 1.446 1.559 2.196 2.309.75.75 1.52 1.484 2.309 2.195a64.362 64.362 0 0 0 12.992 9.148c.933.504 1.883.98 2.843 1.434.961.453 1.93.883 2.915 1.293.98.406 1.968.785 2.972 1.145a63.647 63.647 0 0 0 6.094 1.847 64.976 64.976 0 0 0 6.246 1.242c1.05.157 2.106.29 3.16.391 1.059.105 2.117.184 3.18.234 1.058.055 2.121.079 3.183.079Zm0-103.844c1.278 0 2.547.062 3.817.187a39.73 39.73 0 0 1 3.781.559 38.956 38.956 0 0 1 10.762 3.851 39.295 39.295 0 0 1 3.277 1.965 37.745 37.745 0 0 1 3.067 2.278 37.536 37.536 0 0 1 2.832 2.566 38.309 38.309 0 0 1 2.566 2.832c.813.984 1.57 2.008 2.277 3.066a38.76 38.76 0 0 1 3.598 6.734 38.956 38.956 0 0 1 2.219 7.305 39.73 39.73 0 0 1 .558 3.782 38.885 38.885 0 0 1 0 7.633 39.73 39.73 0 0 1-.558 3.78 39.254 39.254 0 0 1-.93 3.708 39.444 39.444 0 0 1-1.289 3.597 38.687 38.687 0 0 1-1.633 3.454 38.737 38.737 0 0 1-6.808 9.18 37.536 37.536 0 0 1-2.832 2.566 38.685 38.685 0 0 1-9.801 5.875 38.956 38.956 0 0 1-7.305 2.219 39.73 39.73 0 0 1-3.781.558 38.885 38.885 0 0 1-7.633 0 39.73 39.73 0 0 1-3.781-.559 39.254 39.254 0 0 1-3.707-.93 39.443 39.443 0 0 1-3.598-1.288 38.687 38.687 0 0 1-3.453-1.633 38.685 38.685 0 0 1-6.348-4.242 38.309 38.309 0 0 1-2.832-2.567 38.309 38.309 0 0 1-2.566-2.832 38.685 38.685 0 0 1-5.875-9.8 39.444 39.444 0 0 1-1.29-3.598 39.254 39.254 0 0 1-.929-3.707 38.944 38.944 0 0 1 10.66-35.133 38.309 38.309 0 0 1 2.832-2.566 38.736 38.736 0 0 1 6.348-4.242 38.687 38.687 0 0 1 3.453-1.633 39.443 39.443 0 0 1 3.598-1.29 39.254 39.254 0 0 1 3.707-.93 38.944 38.944 0 0 1 7.598-.746ZM236.25 288.168h-25.96c-50.106 0-90.868 34.918-90.868 77.887v116.828c0 25.05 22.328 46.078 51.926 50.883v169.789c0 .851.082 1.695.246 2.53a13 13 0 0 0 .742 2.438c.324.786.723 1.536 1.2 2.243a12.966 12.966 0 0 0 13.324 5.52 13.155 13.155 0 0 0 2.433-.74 12.966 12.966 0 0 0 5.828-4.781c.473-.706.871-1.456 1.2-2.242.324-.789.57-1.601.738-2.437.164-.836.25-1.68.25-2.531v-337.5c0-.852-.086-1.696-.25-2.532a13.285 13.285 0 0 0-.739-2.437 13.149 13.149 0 0 0-1.199-2.242 12.966 12.966 0 0 0-13.328-5.52c-.836.164-1.645.41-2.434.738a12.915 12.915 0 0 0-4.21 2.813 12.808 12.808 0 0 0-1.614 1.969 12.622 12.622 0 0 0-1.2 2.242 13 13 0 0 0-.741 2.437c-.164.836-.246 1.68-.246 2.532v141.101c-14.93-3.636-25.965-12.98-25.965-24.273V366.055c0-28.688 29.078-51.922 64.906-51.922h25.961c.852 0 1.695-.086 2.531-.25a13.285 13.285 0 0 0 2.438-.738 13.023 13.023 0 0 0 5.824-4.781c.473-.712.875-1.458 1.2-2.247.327-.785.573-1.597.737-2.433.168-.836.25-1.68.25-2.536 0-.851-.082-1.695-.25-2.53a12.585 12.585 0 0 0-.738-2.434 12.915 12.915 0 0 0-2.812-4.211 13.023 13.023 0 0 0-4.211-2.817c-.79-.324-1.602-.57-2.438-.738-.836-.164-1.68-.25-2.531-.25ZM236.25 534.805v168.75c0 .851.082 1.695.25 2.53a12.88 12.88 0 0 0 1.938 4.68 13.192 13.192 0 0 0 1.613 1.97 12.997 12.997 0 0 0 14.148 2.812 13.149 13.149 0 0 0 2.242-1.2 12.808 12.808 0 0 0 1.97-1.613 13.192 13.192 0 0 0 1.612-1.968 12.88 12.88 0 0 0 1.938-4.68c.168-.836.25-1.68.25-2.531v-168.75c0-.852-.082-1.696-.25-2.532a12.88 12.88 0 0 0-1.938-4.68 12.808 12.808 0 0 0-1.613-1.968 12.808 12.808 0 0 0-1.969-1.613 12.88 12.88 0 0 0-4.68-1.938c-.835-.168-1.679-.25-2.53-.25-.852 0-1.696.082-2.532.25-.836.164-1.648.41-2.437.739a12.997 12.997 0 0 0-4.21 2.813 12.808 12.808 0 0 0-1.615 1.968 12.88 12.88 0 0 0-1.937 4.68c-.168.835-.25 1.68-.25 2.53ZM405 249.227a77.92 77.92 0 0 0 26.238-4.551c1.2-.43 2.39-.89 3.567-1.38a75.372 75.372 0 0 0 3.496-1.546 79.104 79.104 0 0 0 6.738-3.602 79.01 79.01 0 0 0 3.23-2.046 72.525 72.525 0 0 0 3.126-2.204 76.1 76.1 0 0 0 3.015-2.351 76.678 76.678 0 0 0 5.664-5.133 80.016 80.016 0 0 0 5.133-5.66 78.82 78.82 0 0 0 6.598-9.371 77.467 77.467 0 0 0 5.152-10.234 78.945 78.945 0 0 0 2.574-7.196c.371-1.223.711-2.45 1.02-3.687.308-1.235.59-2.477.836-3.727a76.713 76.713 0 0 0 1.121-7.563 77.807 77.807 0 0 0 0-15.269 77.879 77.879 0 0 0-.465-3.793 76.607 76.607 0 0 0-.656-3.766 76.672 76.672 0 0 0-1.856-7.414 78.845 78.845 0 0 0-2.574-7.195 75.433 75.433 0 0 0-1.55-3.496 75.363 75.363 0 0 0-1.72-3.414 81.806 81.806 0 0 0-1.882-3.328 78.822 78.822 0 0 0-4.246-6.355 79.812 79.812 0 0 0-2.352-3.012 80.137 80.137 0 0 0-5.133-5.664 76.678 76.678 0 0 0-5.664-5.133 80.137 80.137 0 0 0-6.14-4.555 78.927 78.927 0 0 0-6.555-3.926 75.363 75.363 0 0 0-3.414-1.719 77.187 77.187 0 0 0-7.063-2.926c-1.199-.429-2.41-.827-3.629-1.198a75.62 75.62 0 0 0-3.683-1.02 81.6 81.6 0 0 0-3.73-.84 82.434 82.434 0 0 0-3.766-.652 77.468 77.468 0 0 0-11.43-.844 77.92 77.92 0 0 0-15.195 1.496 81.6 81.6 0 0 0-3.73.84 75.62 75.62 0 0 0-3.684 1.02 78.845 78.845 0 0 0-7.196 2.574 75.433 75.433 0 0 0-3.496 1.55 75.363 75.363 0 0 0-3.414 1.72 78.927 78.927 0 0 0-6.555 3.926 80.137 80.137 0 0 0-6.14 4.554 76.678 76.678 0 0 0-8.297 7.902c-.86.945-1.691 1.91-2.5 2.895a79.812 79.812 0 0 0-2.352 3.011 78.822 78.822 0 0 0-4.246 6.356 77.39 77.39 0 0 0-1.882 3.328 75.363 75.363 0 0 0-1.72 3.414 75.433 75.433 0 0 0-1.55 3.496 78.845 78.845 0 0 0-2.574 7.195 76.672 76.672 0 0 0-1.855 7.414 76.607 76.607 0 0 0-.657 3.766 77.879 77.879 0 0 0-.465 3.793 77.808 77.808 0 0 0 0 15.27 76.713 76.713 0 0 0 1.957 11.289 75.768 75.768 0 0 0 1.02 3.687 78.845 78.845 0 0 0 2.574 7.195 77.327 77.327 0 0 0 3.27 6.91 79.688 79.688 0 0 0 1.882 3.325 78.82 78.82 0 0 0 6.598 9.371 80.016 80.016 0 0 0 5.133 5.66 76.678 76.678 0 0 0 5.664 5.133 76.1 76.1 0 0 0 3.015 2.351 72.525 72.525 0 0 0 3.125 2.204 79.01 79.01 0 0 0 3.23 2.046 79.104 79.104 0 0 0 6.74 3.602 75.372 75.372 0 0 0 3.495 1.547 77.243 77.243 0 0 0 7.196 2.578c1.218.367 2.449.707 3.683 1.02 1.238.308 2.48.585 3.73.835s2.509.465 3.766.653a77.468 77.468 0 0 0 11.43.844Zm0-129.809c1.7 0 3.398.086 5.09.25a52.235 52.235 0 0 1 14.781 3.703 52.718 52.718 0 0 1 4.606 2.18c1.5.8 2.957 1.676 4.37 2.62a50.62 50.62 0 0 1 4.094 3.036 52.114 52.114 0 0 1 7.196 7.195 52.545 52.545 0 0 1 3.035 4.094 51.526 51.526 0 0 1 4.797 8.977 51.178 51.178 0 0 1 1.719 4.797 52.583 52.583 0 0 1 1.238 4.945c.332 1.664.582 3.347.746 5.039.168 1.691.25 3.387.25 5.09 0 1.699-.082 3.394-.25 5.09a51.035 51.035 0 0 1-.746 5.039 52.205 52.205 0 0 1-1.238 4.941 50.783 50.783 0 0 1-1.72 4.797 51.526 51.526 0 0 1-4.797 8.98 52.48 52.48 0 0 1-3.034 4.09 52.114 52.114 0 0 1-7.195 7.2 52.545 52.545 0 0 1-4.094 3.035 51.486 51.486 0 0 1-4.371 2.617 50.548 50.548 0 0 1-4.606 2.18 52.313 52.313 0 0 1-4.797 1.718 52.583 52.583 0 0 1-4.945 1.239 52.223 52.223 0 0 1-10.129.996 52.223 52.223 0 0 1-10.129-.996 52.583 52.583 0 0 1-4.945-1.239 52.313 52.313 0 0 1-4.797-1.719 50.548 50.548 0 0 1-4.606-2.18c-1.5-.8-2.957-1.671-4.37-2.616a52.545 52.545 0 0 1-4.094-3.036 52.114 52.114 0 0 1-7.196-7.199 52.48 52.48 0 0 1-3.035-4.09 51.526 51.526 0 0 1-2.621-4.37 51.874 51.874 0 0 1-5.133-14.348 51.035 51.035 0 0 1-.746-5.04 51.57 51.57 0 0 1-.25-5.09c0-1.702.082-3.398.25-5.09.164-1.69.414-3.374.746-5.038a52.583 52.583 0 0 1 1.238-4.945 51.178 51.178 0 0 1 1.72-4.797 51.576 51.576 0 0 1 4.796-8.977 52.545 52.545 0 0 1 3.035-4.094 52.114 52.114 0 0 1 7.195-7.195 50.62 50.62 0 0 1 4.094-3.035 51.526 51.526 0 0 1 4.371-2.621c1.5-.801 3.036-1.528 4.606-2.18a52.286 52.286 0 0 1 9.742-2.953 52.235 52.235 0 0 1 5.04-.75c1.69-.164 3.39-.25 5.089-.25ZM456.922 262.207H353.078c-50.105 0-90.867 34.918-90.867 77.887v77.883a38.885 38.885 0 0 0 .75 7.597 38.62 38.62 0 0 0 2.215 7.305 38.759 38.759 0 0 0 8.441 12.633 39.115 39.115 0 0 0 5.903 4.843 39.242 39.242 0 0 0 6.73 3.602 39.254 39.254 0 0 0 7.305 2.215c1.254.25 2.511.433 3.78.558 1.27.125 2.544.188 3.817.188h12.98v246.637c0 .851.087 1.695.25 2.53.169.837.415 1.65.74 2.438.327.786.726 1.536 1.198 2.243a12.966 12.966 0 0 0 13.328 5.52 13.155 13.155 0 0 0 2.434-.74 12.967 12.967 0 0 0 5.828-4.781c.473-.706.871-1.456 1.2-2.242.324-.789.57-1.601.738-2.437.164-.836.25-1.68.25-2.531V456.918h129.804v246.637c0 .851.086 1.695.25 2.53.168.837.414 1.65.739 2.438.328.786.726 1.536 1.199 2.243a12.967 12.967 0 0 0 13.328 5.52 13.155 13.155 0 0 0 2.434-.74 12.966 12.966 0 0 0 5.824-4.781c.476-.706.875-1.456 1.203-2.242.324-.789.57-1.601.738-2.437.164-.836.25-1.68.25-2.531V456.918h12.98a38.944 38.944 0 0 0 11.305-1.676c1.22-.37 2.418-.8 3.598-1.285a39.242 39.242 0 0 0 6.73-3.602 39.115 39.115 0 0 0 8.469-7.672 40.506 40.506 0 0 0 2.278-3.07 38.759 38.759 0 0 0 3.598-6.734 38.62 38.62 0 0 0 2.214-7.305 38.529 38.529 0 0 0 .75-7.597v-77.883c0-42.969-40.762-77.887-90.867-77.887Zm51.926 168.75h-62.18l-106.57-47.379v-2.984l102.418 11.293h40.367c.855 0 1.699-.082 2.535-.25a13.155 13.155 0 0 0 2.434-.739c.789-.328 1.535-.726 2.246-1.199a12.762 12.762 0 0 0 1.964-1.617 12.967 12.967 0 0 0 2.817-4.21c.324-.786.57-1.599.738-2.435.164-.835.25-1.68.25-2.53v-25.833c0-.851-.086-1.699-.25-2.535a13.246 13.246 0 0 0-.738-2.434 12.759 12.759 0 0 0-1.203-2.242 12.966 12.966 0 0 0-13.324-5.52c-.836.165-1.649.41-2.434.739a12.915 12.915 0 0 0-4.211 2.813 13.004 13.004 0 0 0-3.555 6.645c-.164.835-.25 1.683-.25 2.534v12.98h-25.18L340.099 354.5v-1.426c0-.851-.086-1.699-.25-2.535a13.004 13.004 0 0 0-5.52-8.258 12.915 12.915 0 0 0-2.246-1.199 12.585 12.585 0 0 0-2.434-.738c-.836-.168-1.68-.25-2.53-.25-.856 0-1.7.082-2.536.25-.836.164-1.648.41-2.434.738a12.915 12.915 0 0 0-4.21 2.813 13.004 13.004 0 0 0-3.555 6.645c-.164.835-.25 1.683-.25 2.534v38.942a8.122 8.122 0 0 0 0 1.687 8.365 8.365 0 0 0 0 3.117c.336.793.77 1.528 1.3 2.203.356.704.79 1.352 1.297 1.95a9.55 9.55 0 0 0 2.727 1.945s.777.781 1.297.91l62.05 27.129h-81.652c-.851 0-1.695-.082-2.53-.25a12.585 12.585 0 0 1-2.435-.738 12.915 12.915 0 0 1-4.21-2.813 12.832 12.832 0 0 1-1.618-1.969 13.149 13.149 0 0 1-1.199-2.242c-.324-.789-.57-1.601-.738-2.437-.164-.836-.25-1.68-.25-2.531v-77.883c0-28.688 29.078-51.926 64.906-51.926h103.844c35.828 0 64.906 23.238 64.906 51.926v77.883c0 .851-.086 1.695-.25 2.53a13.285 13.285 0 0 1-.738 2.438 13.149 13.149 0 0 1-1.2 2.243 12.967 12.967 0 0 1-10.793 5.77Zm0 0"></path><path fill="#2c3e50" d="M392.02 534.805v168.75c0 .851.082 1.695.25 2.53a12.88 12.88 0 0 0 1.938 4.68 13.193 13.193 0 0 0 1.612 1.97 12.997 12.997 0 0 0 14.149 2.812 12.997 12.997 0 0 0 4.21-2.813 13.193 13.193 0 0 0 1.614-1.968 12.88 12.88 0 0 0 1.937-4.68c.168-.836.25-1.68.25-2.531v-168.75c0-.852-.082-1.696-.25-2.532a12.88 12.88 0 0 0-1.938-4.68 12.808 12.808 0 0 0-1.612-1.968 12.997 12.997 0 0 0-4.211-2.813 12.705 12.705 0 0 0-2.438-.738c-.836-.168-1.68-.25-2.531-.25-.852 0-1.695.082-2.531.25-.836.164-1.649.41-2.438.739a12.997 12.997 0 0 0-4.21 2.813 12.808 12.808 0 0 0-1.614 1.968 12.88 12.88 0 0 0-1.937 4.68c-.168.835-.25 1.68-.25 2.53ZM106.441 301.148a58.367 58.367 0 0 0 11.399-1.12 58.083 58.083 0 0 0 10.957-3.325 58.001 58.001 0 0 0 10.098-5.398 58.458 58.458 0 0 0 8.851-7.262 58.32 58.32 0 0 0 10.211-13.77 58.684 58.684 0 0 0 2.453-5.183 58.683 58.683 0 0 0 3.324-10.957 58.347 58.347 0 0 0 .84-17.121 59.255 59.255 0 0 0-.84-5.672 58.99 58.99 0 0 0-3.324-10.957 59.213 59.213 0 0 0-2.453-5.184 58.994 58.994 0 0 0-2.945-4.914 59.451 59.451 0 0 0-3.414-4.605 57.46 57.46 0 0 0-3.852-4.246 58.261 58.261 0 0 0-8.851-7.266 59.14 59.14 0 0 0-10.098-5.398 58.759 58.759 0 0 0-10.957-3.325 58.367 58.367 0 0 0-17.125-.84 58.993 58.993 0 0 0-5.668.84 58.683 58.683 0 0 0-10.957 3.324 58.684 58.684 0 0 0-10.102 5.399 58.32 58.32 0 0 0-16.113 16.117 57.99 57.99 0 0 0-5.398 10.098 57.793 57.793 0 0 0-3.324 10.957 58.057 58.057 0 0 0-1.126 11.398 58.28 58.28 0 0 0 1.145 11.387 57.774 57.774 0 0 0 1.402 5.555 57.53 57.53 0 0 0 1.938 5.39 58.404 58.404 0 0 0 8.816 14.688 58.292 58.292 0 0 0 8.094 8.094 58.404 58.404 0 0 0 14.688 8.816 58.663 58.663 0 0 0 10.945 3.34c1.875.375 3.765.66 5.668.847a58.28 58.28 0 0 0 5.718.293Zm0-90.863a32.11 32.11 0 0 1 6.332.625 32.47 32.47 0 0 1 11.7 4.844 32.575 32.575 0 0 1 7.054 6.394 32.575 32.575 0 0 1 3.536 5.29c.5.937.953 1.898 1.363 2.878a33.02 33.02 0 0 1 1.07 3c.309 1.016.566 2.047.774 3.09a32.11 32.11 0 0 1 .625 6.332 32.031 32.031 0 0 1-.625 6.328 32.603 32.603 0 0 1-1.844 6.09 33.98 33.98 0 0 1-1.364 2.88 32.138 32.138 0 0 1-3.535 5.288c-.672.82-1.386 1.61-2.136 2.36-.754.75-1.54 1.464-2.36 2.14a33.538 33.538 0 0 1-2.558 1.895 32.206 32.206 0 0 1-2.735 1.636 32.554 32.554 0 0 1-5.875 2.438 32.47 32.47 0 0 1-21.84-1.074c-.98-.406-1.941-.86-2.878-1.364a32.138 32.138 0 0 1-2.73-1.636 32.061 32.061 0 0 1-4.919-4.035 32.206 32.206 0 0 1-4.035-4.918 32.179 32.179 0 0 1-1.64-2.73 32.783 32.783 0 0 1-2.434-5.88 32.177 32.177 0 0 1-1.239-6.238 32.031 32.031 0 0 1-.156-3.18c0-1.062.051-2.125.156-3.183a32.177 32.177 0 0 1 2.313-9.238c.406-.981.86-1.942 1.36-2.88a32.179 32.179 0 0 1 1.64-2.73 33.538 33.538 0 0 1 1.894-2.559 33.03 33.03 0 0 1 2.141-2.359c.75-.75 1.54-1.465 2.36-2.137a31.18 31.18 0 0 1 2.558-1.898 32.818 32.818 0 0 1 5.61-3c.98-.406 1.98-.762 3-1.07a32.393 32.393 0 0 1 9.417-1.399ZM41.54 520.523v183.032c0 .851.081 1.695.25 2.53a12.88 12.88 0 0 0 1.938 4.68 13.192 13.192 0 0 0 1.612 1.97c.601.6 1.258 1.14 1.969 1.613.707.472 1.457.87 2.242 1.199.789.324 1.601.57 2.437.738.836.168 1.68.25 2.532.25.851 0 1.695-.082 2.53-.25a13.285 13.285 0 0 0 2.438-.738 12.997 12.997 0 0 0 4.21-2.813 13.192 13.192 0 0 0 1.615-1.968 12.88 12.88 0 0 0 1.937-4.68c.168-.836.25-1.68.25-2.531v-311.54c0-.85-.082-1.695-.25-2.53a12.88 12.88 0 0 0-1.938-4.68 12.997 12.997 0 0 0-1.613-1.97 12.997 12.997 0 0 0-4.21-2.812 12.705 12.705 0 0 0-2.438-.738c-.836-.168-1.68-.25-2.531-.25-.852 0-1.696.082-2.532.25a12.88 12.88 0 0 0-4.68 1.938 12.808 12.808 0 0 0-1.968 1.613 12.997 12.997 0 0 0-2.813 4.21c-.328.79-.574 1.602-.738 2.438-.168.836-.25 1.68-.25 2.532v101.77c-8.828-3.376-12.98-10.903-12.98-23.888v-90.863c0-1.277.062-2.547.187-3.816a39.73 39.73 0 0 1 .559-3.781 38.956 38.956 0 0 1 3.851-10.762 38.684 38.684 0 0 1 4.242-6.344 38.309 38.309 0 0 1 2.567-2.832 38.309 38.309 0 0 1 2.832-2.566 38.736 38.736 0 0 1 6.348-4.242 38.181 38.181 0 0 1 3.453-1.633 39.444 39.444 0 0 1 3.597-1.29 39.254 39.254 0 0 1 3.707-.93 39.73 39.73 0 0 1 3.782-.558c1.27-.125 2.539-.187 3.816-.187h25.96c.853 0 1.696-.086 2.532-.25a13.285 13.285 0 0 0 2.438-.739 13.149 13.149 0 0 0 2.242-1.199 12.966 12.966 0 0 0 5.52-13.328 12.668 12.668 0 0 0-.739-2.433 12.915 12.915 0 0 0-4.781-5.825 12.622 12.622 0 0 0-2.242-1.199 13 13 0 0 0-2.438-.742 13.113 13.113 0 0 0-2.531-.246H67.5c-1.063 0-2.125.023-3.184.078-1.062.05-2.12.129-3.18.234-1.054.102-2.109.23-3.16.387a65.955 65.955 0 0 0-6.246 1.246 63.689 63.689 0 0 0-6.097 1.848 64.723 64.723 0 0 0-5.883 2.438c-.96.452-1.91.929-2.844 1.429a71.345 71.345 0 0 0-2.773 1.57 66.49 66.49 0 0 0-5.297 3.54 64.363 64.363 0 0 0-4.922 4.043 61.27 61.27 0 0 0-2.309 2.195c-.75.75-1.484 1.52-2.195 2.308a64.361 64.361 0 0 0-9.148 12.992 64.722 64.722 0 0 0-4.871 11.754 63.687 63.687 0 0 0-.848 3.07 65.955 65.955 0 0 0-1.246 6.246 66.416 66.416 0 0 0-.621 6.34 61.735 61.735 0 0 0-.078 3.184v90.863a45.844 45.844 0 0 0-.23 4.391 45.819 45.819 0 0 0 .187 4.395c.129 1.46.328 2.914.597 4.355a44.716 44.716 0 0 0 1.008 4.277c.402 1.414.871 2.801 1.402 4.168a47.276 47.276 0 0 0 1.793 4.016 47.839 47.839 0 0 0 2.16 3.828 47.618 47.618 0 0 0 2.516 3.606 46.518 46.518 0 0 0 2.84 3.355c1 1.07 2.05 2.098 3.149 3.07a46.499 46.499 0 0 0 3.418 2.762 45.795 45.795 0 0 0 3.667 2.426 45.482 45.482 0 0 0 3.875 2.07 46.581 46.581 0 0 0 4.06 1.696c1.378.503 2.776.937 4.194 1.308 1.422.367 2.856.672 4.305.902ZM119.422 703.555v-168.75c0-.852-.082-1.696-.25-2.532a12.88 12.88 0 0 0-1.938-4.68 12.808 12.808 0 0 0-1.613-1.968 12.808 12.808 0 0 0-1.969-1.613 12.88 12.88 0 0 0-2.242-1.2 12.668 12.668 0 0 0-2.433-.738 12.855 12.855 0 0 0-2.536-.25c-.851 0-1.695.082-2.53.25-.837.164-1.65.41-2.434.739-.79.324-1.54.726-2.247 1.199a13.192 13.192 0 0 0-1.968 1.613 12.808 12.808 0 0 0-1.614 1.969 13.149 13.149 0 0 0-1.199 2.242c-.324.789-.57 1.601-.738 2.437-.168.836-.25 1.68-.25 2.532v168.75c0 .851.082 1.695.25 2.53.168.837.414 1.65.738 2.438.328.786.727 1.536 1.2 2.243a13.192 13.192 0 0 0 1.613 1.968 13.039 13.039 0 0 0 6.648 3.55c.836.17 1.68.251 2.531.251.852 0 1.7-.082 2.536-.25a13.246 13.246 0 0 0 2.433-.738 13.149 13.149 0 0 0 2.242-1.2 12.808 12.808 0 0 0 1.97-1.613 13.192 13.192 0 0 0 1.612-1.968 12.88 12.88 0 0 0 1.938-4.68c.168-.836.25-1.68.25-2.531ZM560.77 275.188c1.062 0 2.125-.024 3.183-.079a61.813 61.813 0 0 0 3.18-.234 61.736 61.736 0 0 0 3.16-.39 64.976 64.976 0 0 0 6.246-1.242 63.687 63.687 0 0 0 6.094-1.848c1-.36 1.992-.739 2.972-1.145.985-.41 1.954-.84 2.915-1.293.96-.453 1.906-.93 2.843-1.434a62.41 62.41 0 0 0 2.774-1.57 66.476 66.476 0 0 0 5.297-3.535 64.362 64.362 0 0 0 4.922-4.043c.789-.71 1.554-1.445 2.308-2.195.75-.75 1.48-1.52 2.195-2.309a64.362 64.362 0 0 0 2.082-2.41 66.668 66.668 0 0 0 3.793-5.117c.59-.883 1.16-1.781 1.703-2.692.547-.91 1.07-1.836 1.57-2.773.505-.934.981-1.883 1.434-2.844.454-.96.883-1.93 1.29-2.914.41-.98.789-1.969 1.148-2.973a63.648 63.648 0 0 0 1.848-6.093 64.975 64.975 0 0 0 1.242-6.246c.156-1.051.289-2.106.39-3.16.106-1.06.184-2.118.235-3.18.054-1.059.078-2.121.078-3.184 0-1.062-.024-2.125-.078-3.183a61.813 61.813 0 0 0-.235-3.18 61.737 61.737 0 0 0-.39-3.16 61.332 61.332 0 0 0-.543-3.14 65.904 65.904 0 0 0-2.547-9.204c-.36-1-.738-1.988-1.149-2.969a64.662 64.662 0 0 0-1.289-2.914c-.453-.96-.93-1.91-1.433-2.844a62.409 62.409 0 0 0-1.57-2.773 62.361 62.361 0 0 0-1.704-2.691 66.573 66.573 0 0 0-3.793-5.118 64.361 64.361 0 0 0-2.082-2.41 64.577 64.577 0 0 0-2.195-2.308 64.408 64.408 0 0 0-2.309-2.196 64.363 64.363 0 0 0-10.218-7.582 71.345 71.345 0 0 0-2.774-1.57c-.933-.5-1.883-.977-2.843-1.43-.961-.453-1.93-.886-2.915-1.293-.98-.406-1.972-.789-2.972-1.144a63.648 63.648 0 0 0-6.094-1.848 64.949 64.949 0 0 0-6.246-1.246 66.417 66.417 0 0 0-6.34-.621 61.734 61.734 0 0 0-3.183-.078c-1.063 0-2.125.023-3.184.078a66.417 66.417 0 0 0-6.34.621 65.955 65.955 0 0 0-6.246 1.246 63.688 63.688 0 0 0-6.098 1.848c-1 .355-1.988.738-2.972 1.144a66.593 66.593 0 0 0-5.758 2.723 74.2 74.2 0 0 0-2.77 1.57 66.49 66.49 0 0 0-5.297 3.54 64.363 64.363 0 0 0-4.922 4.043c-.788.71-1.558 1.445-2.308 2.195-.75.75-1.484 1.52-2.195 2.308a64.362 64.362 0 0 0-7.582 10.219 71.346 71.346 0 0 0-1.57 2.773 62.36 62.36 0 0 0-1.43 2.844 64.722 64.722 0 0 0-6.153 24.567 61.735 61.735 0 0 0-.078 3.183c0 1.063.024 2.125.078 3.184.051 1.062.13 2.12.235 3.18a61.714 61.714 0 0 0 .933 6.296 64.94 64.94 0 0 0 .696 3.11c.261 1.03.543 2.054.851 3.07.309 1.016.64 2.023 1 3.023a60.612 60.612 0 0 0 1.145 2.973c.406.984.84 1.953 1.293 2.914.453.961.93 1.91 1.43 2.844a71.346 71.346 0 0 0 1.57 2.773 66.488 66.488 0 0 0 3.539 5.297 64.363 64.363 0 0 0 4.043 4.922c.71.79 1.445 1.559 2.195 2.309.75.75 1.52 1.484 2.309 2.195a64.362 64.362 0 0 0 12.988 9.148c.937.504 1.887.98 2.848 1.434.96.453 1.93.883 2.91 1.293.984.406 1.972.785 2.972 1.145a63.794 63.794 0 0 0 6.098 1.847 64.82 64.82 0 0 0 3.105.7c1.043.206 2.09.39 3.141.542 1.05.157 2.106.29 3.16.391 1.059.105 2.117.184 3.18.234 1.059.055 2.121.079 3.184.079Zm0-103.844a38.944 38.944 0 0 1 38.94 38.941 38.944 38.944 0 0 1-38.94 38.942c-1.278 0-2.547-.063-3.817-.188a39.73 39.73 0 0 1-3.781-.559 38.956 38.956 0 0 1-10.762-3.851 38.685 38.685 0 0 1-6.344-4.242 37.536 37.536 0 0 1-2.832-2.567 38.309 38.309 0 0 1-2.566-2.832 38.737 38.737 0 0 1-4.242-6.348 37.632 37.632 0 0 1-1.633-3.452 39.444 39.444 0 0 1-1.29-3.598 39.254 39.254 0 0 1-.929-3.707 38.944 38.944 0 0 1 10.66-35.133 37.536 37.536 0 0 1 2.832-2.566 37.745 37.745 0 0 1 3.067-2.278 38.759 38.759 0 0 1 6.734-3.598 38.956 38.956 0 0 1 7.305-2.219 39.73 39.73 0 0 1 3.781-.558c1.27-.125 2.54-.187 3.817-.187ZM625.672 353.074c-.852 0-1.695.082-2.531.25-.836.164-1.649.41-2.434.738a12.915 12.915 0 0 0-4.21 2.813 12.608 12.608 0 0 0-1.618 1.969 13.149 13.149 0 0 0-1.2 2.242c-.324.789-.57 1.601-.738 2.437-.168.836-.25 1.68-.25 2.532v337.5c0 .851.082 1.695.25 2.53.168.837.414 1.65.739 2.438a12.98 12.98 0 0 0 7.027 7.023c.785.325 1.598.571 2.434.74.836.167 1.68.25 2.53.25.852 0 1.7-.083 2.536-.25a13.004 13.004 0 0 0 8.258-5.52c.476-.707.875-1.457 1.2-2.243.327-.789.573-1.601.737-2.437.168-.836.25-1.68.25-2.531v-169.79c29.598-4.804 51.926-25.96 51.926-50.882V366.055c0-42.97-40.762-77.887-90.867-77.887H573.75c-.852 0-1.695.086-2.531.25-.836.168-1.649.414-2.438.738-.785.328-1.535.727-2.242 1.2a12.967 12.967 0 0 0-5.52 13.328c.165.836.41 1.648.739 2.433a12.915 12.915 0 0 0 2.812 4.211c.602.606 1.258 1.14 1.97 1.617.706.473 1.456.871 2.241 1.2.79.324 1.602.57 2.438.738.836.164 1.68.25 2.531.25h25.96c35.83 0 64.907 23.234 64.907 51.922v116.828c0 11.031-11.035 20.637-25.965 24.273V366.055c0-.852-.082-1.696-.246-2.532a13 13 0 0 0-.742-2.437 12.622 12.622 0 0 0-1.2-2.242 12.808 12.808 0 0 0-1.612-1.969 12.808 12.808 0 0 0-1.97-1.613 12.74 12.74 0 0 0-2.241-1.2 12.668 12.668 0 0 0-2.434-.738 12.855 12.855 0 0 0-2.535-.25ZM547.79 534.805v168.75c0 .851.081 1.695.25 2.53a12.88 12.88 0 0 0 1.938 4.68 13.192 13.192 0 0 0 1.612 1.97c.601.6 1.258 1.14 1.969 1.613.707.472 1.457.87 2.242 1.199.789.324 1.601.57 2.437.738.836.168 1.68.25 2.532.25.851 0 1.695-.082 2.53-.25a13.285 13.285 0 0 0 2.438-.738 12.997 12.997 0 0 0 4.21-2.813 13.192 13.192 0 0 0 1.615-1.968 12.88 12.88 0 0 0 1.937-4.68c.168-.836.25-1.68.25-2.531v-168.75c0-.852-.082-1.696-.25-2.532a12.88 12.88 0 0 0-1.938-4.68 12.808 12.808 0 0 0-1.613-1.968 12.997 12.997 0 0 0-4.21-2.813 12.705 12.705 0 0 0-2.438-.738c-.836-.168-1.68-.25-2.531-.25-.852 0-1.696.082-2.532.25-.836.164-1.648.41-2.437.739a12.88 12.88 0 0 0-2.242 1.199 12.808 12.808 0 0 0-1.97 1.613 12.808 12.808 0 0 0-1.612 1.969 12.88 12.88 0 0 0-1.938 4.68c-.168.835-.25 1.68-.25 2.53ZM703.559 301.148c1.914 0 3.82-.093 5.722-.28a57.695 57.695 0 0 0 5.672-.84 58.16 58.16 0 0 0 5.563-1.391 58.71 58.71 0 0 0 5.394-1.934 57.564 57.564 0 0 0 5.184-2.45 59.105 59.105 0 0 0 4.918-2.948 57.68 57.68 0 0 0 4.601-3.414 59.176 59.176 0 0 0 4.25-3.848 58.266 58.266 0 0 0 3.848-4.25 57.68 57.68 0 0 0 3.414-4.602 59.105 59.105 0 0 0 2.95-4.918 57.565 57.565 0 0 0 2.448-5.183 57.577 57.577 0 0 0 3.325-10.957 58.347 58.347 0 0 0 0-22.793 57.793 57.793 0 0 0-3.325-10.957 58.073 58.073 0 0 0-2.449-5.184 59.036 59.036 0 0 0-6.363-9.52 58.32 58.32 0 0 0-12.7-11.512 58.684 58.684 0 0 0-10.102-5.398 58.683 58.683 0 0 0-10.956-3.324 58.891 58.891 0 0 0-5.672-.84 58.287 58.287 0 0 0-11.449 0 59.255 59.255 0 0 0-5.672.84 58.759 58.759 0 0 0-10.957 3.324 58.612 58.612 0 0 0-5.18 2.454 58.458 58.458 0 0 0-9.523 6.36 58.261 58.261 0 0 0-4.246 3.85 57.46 57.46 0 0 0-3.852 4.247 59.451 59.451 0 0 0-3.414 4.605 57.949 57.949 0 0 0-2.945 4.914 59.213 59.213 0 0 0-2.453 5.184 58.759 58.759 0 0 0-3.324 10.957 58.367 58.367 0 0 0-1.121 11.398 58.28 58.28 0 0 0 .292 5.719 58.931 58.931 0 0 0 2.25 11.223 58.663 58.663 0 0 0 7.34 15.48 58.583 58.583 0 0 0 26.196 21.508 58.95 58.95 0 0 0 10.95 3.34c1.874.375 3.76.66 5.663.847 1.902.192 3.809.29 5.723.293Zm0-90.863c1.062 0 2.12.05 3.18.156 1.058.106 2.109.258 3.148.47 1.043.206 2.074.464 3.09.773a32.196 32.196 0 0 1 8.609 4.07c.883.59 1.738 1.223 2.559 1.898.82.672 1.609 1.387 2.359 2.137a33.03 33.03 0 0 1 2.14 2.36 33.538 33.538 0 0 1 1.895 2.558c.59.883 1.137 1.793 1.637 2.73.504.938.957 1.899 1.363 2.88a32.177 32.177 0 0 1 2.313 9.238 32.11 32.11 0 0 1 .156 3.183c0 1.063-.051 2.121-.156 3.18a32.177 32.177 0 0 1-2.313 9.238c-.406.98-.86 1.942-1.363 2.88a32.783 32.783 0 0 1-3.531 5.29 33.116 33.116 0 0 1-4.5 4.5 32.783 32.783 0 0 1-5.29 3.53 32.221 32.221 0 0 1-8.969 3.21c-1.038.207-2.09.364-3.148.465a32.031 32.031 0 0 1-3.18.156 32.11 32.11 0 0 1-3.183-.156 32.47 32.47 0 0 1-6.238-1.238 32.554 32.554 0 0 1-8.61-4.074 33.538 33.538 0 0 1-2.558-1.895 33.988 33.988 0 0 1-2.36-2.14c-.75-.75-1.464-1.54-2.136-2.36a32.138 32.138 0 0 1-3.535-5.29 33.98 33.98 0 0 1-1.364-2.878 32.603 32.603 0 0 1-1.844-6.09 32.031 32.031 0 0 1-.625-6.328 32.11 32.11 0 0 1 .625-6.332 33.02 33.02 0 0 1 1.844-6.09c.41-.98.863-1.941 1.363-2.879a32.138 32.138 0 0 1 3.536-5.289 32.975 32.975 0 0 1 2.136-2.359 32.575 32.575 0 0 1 4.918-4.035 32.206 32.206 0 0 1 2.735-1.637 32.295 32.295 0 0 1 8.965-3.207 32.11 32.11 0 0 1 6.332-.625ZM703.559 521.824c-.852 0-1.7.082-2.536.25-.836.164-1.644.41-2.433.739a12.74 12.74 0 0 0-2.242 1.199 12.808 12.808 0 0 0-1.97 1.613 12.808 12.808 0 0 0-1.612 1.969 12.622 12.622 0 0 0-1.2 2.242c-.328.789-.574 1.601-.738 2.437-.168.836-.25 1.68-.25 2.532v168.75c0 .851.082 1.695.25 2.53.164.837.41 1.65.738 2.438.325.786.723 1.536 1.2 2.243a13.192 13.192 0 0 0 1.613 1.968 13.004 13.004 0 0 0 6.645 3.55c.835.17 1.683.251 2.535.251.851 0 1.695-.082 2.53-.25a13.155 13.155 0 0 0 2.434-.738c.79-.328 1.536-.727 2.247-1.2a13.192 13.192 0 0 0 1.968-1.613 13.192 13.192 0 0 0 1.614-1.968c.472-.707.87-1.457 1.199-2.243.324-.789.57-1.601.738-2.437.168-.836.25-1.68.25-2.531v-168.75c0-.852-.082-1.696-.25-2.532a13.285 13.285 0 0 0-.738-2.437 13.149 13.149 0 0 0-1.2-2.242 12.808 12.808 0 0 0-1.613-1.969 13.192 13.192 0 0 0-1.968-1.613 12.915 12.915 0 0 0-2.247-1.2 12.585 12.585 0 0 0-2.433-.738c-.836-.168-1.68-.25-2.531-.25ZM742.5 314.133h-25.96c-.852 0-1.696.082-2.532.246a13 13 0 0 0-2.438.742c-.785.324-1.535.723-2.242 1.2a12.966 12.966 0 0 0-5.52 13.324c.165.835.41 1.648.739 2.433a12.915 12.915 0 0 0 2.812 4.211c.602.606 1.258 1.14 1.97 1.617.706.473 1.456.871 2.241 1.2.79.324 1.602.57 2.438.738.836.164 1.68.25 2.531.25H742.5a38.944 38.944 0 0 1 38.941 38.941v90.863c0 12.985-4.152 20.512-12.98 23.887v-101.77c0-.85-.082-1.695-.25-2.53a12.88 12.88 0 0 0-1.938-4.68 12.997 12.997 0 0 0-1.613-1.97 12.808 12.808 0 0 0-1.969-1.612 12.88 12.88 0 0 0-4.68-1.938c-.835-.168-1.679-.25-2.53-.25-.852 0-1.696.082-2.532.25a12.88 12.88 0 0 0-4.68 1.938 12.997 12.997 0 0 0-1.968 1.613 12.997 12.997 0 0 0-2.813 4.21c-.328.79-.574 1.602-.738 2.438-.168.836-.25 1.68-.25 2.532v311.539c0 .851.082 1.695.25 2.53a12.88 12.88 0 0 0 1.938 4.68 13.192 13.192 0 0 0 1.613 1.97 12.997 12.997 0 0 0 14.148 2.812 13.149 13.149 0 0 0 2.242-1.2 12.808 12.808 0 0 0 1.97-1.613 13.192 13.192 0 0 0 1.612-1.968 12.88 12.88 0 0 0 1.938-4.68c.168-.836.25-1.68.25-2.531V520.523c1.45-.23 2.883-.535 4.305-.902a46.535 46.535 0 0 0 4.195-1.308c1.379-.5 2.73-1.067 4.059-1.696a45.482 45.482 0 0 0 3.875-2.07 45.795 45.795 0 0 0 3.668-2.426 46.499 46.499 0 0 0 3.417-2.762c1.098-.972 2.149-2 3.149-3.07 1-1.074 1.945-2.191 2.84-3.355a47.618 47.618 0 0 0 2.515-3.606c.778-1.242 1.5-2.52 2.16-3.828a47.276 47.276 0 0 0 1.793-4.016c.532-1.367 1-2.754 1.403-4.168.406-1.41.742-2.836 1.008-4.277.27-1.441.468-2.894.597-4.355.133-1.461.196-2.926.188-4.395a45.844 45.844 0 0 0-.23-4.39v-90.864c0-1.062-.024-2.125-.079-3.183a66.416 66.416 0 0 0-.621-6.34 65.955 65.955 0 0 0-1.246-6.246 63.687 63.687 0 0 0-1.848-6.098c-.359-1-.738-1.988-1.144-2.973-.406-.98-.84-1.949-1.293-2.91-.453-.96-.93-1.91-1.434-2.844a62.409 62.409 0 0 0-1.57-2.773 66.475 66.475 0 0 0-3.535-5.297 64.361 64.361 0 0 0-4.043-4.922 61.269 61.269 0 0 0-2.195-2.308 61.27 61.27 0 0 0-2.31-2.196 64.363 64.363 0 0 0-10.218-7.582 71.345 71.345 0 0 0-2.773-1.57 62.36 62.36 0 0 0-2.844-1.43 64.723 64.723 0 0 0-24.566-6.152 61.734 61.734 0 0 0-3.184-.078Zm0 0"></path></svg>