<svg xmlns="http://www.w3.org/2000/svg" width="1080" height="1080" version="1.0" viewBox="0 0 810 810"><defs><clipPath id="a"><path d="M17.21 106H399v704H17.21Zm0 0"></path></clipPath><clipPath id="b"><path d="M403 90h389.71v719H403Zm0 0"></path></clipPath></defs><path fill="#2c3e50" d="m395.93 383.863.437-14.164c.465-15.586.93-31.715 1.774-47.547.054-.953-.653-1.746-1.61-1.828-1.472-.137-2.812-.762-3.683-1.691-3.848-4.313-8.325-7.832-12.637-11.246a310.885 310.885 0 0 1-3.496-2.782c-.488-.382-1.172-.492-1.746-.246a1.735 1.735 0 0 0-1.09 1.418c-1.23 10.946-2.594 21.891-3.957 32.809-.875 6.984-1.75 13.973-2.594 20.988-.082.598.164 1.2.652 1.555 7.18 5.73 13.649 12.363 19.926 18.777a443.962 443.962 0 0 0 5.024 5.133c.355.352.789.516 1.254.516.218 0 .437-.028.628-.11.653-.242 1.09-.87 1.118-1.582M322.73 347.207c.247 7.344.465 14.957-2.375 21.152-4.668 10.211-16.73 10.754-27.73 11.246l-2.54.137c-12.472.684-27.92 1.555-33.433-10.945-3.382-7.75-2.566-17.113-1.773-26.172.3-3.387.547-6.578.629-9.719v-.027c.054-4.04 3.054-5.32 4.336-5.703.41-.11.738-.356.984-.711.52-.79.875-.79 1.012-.79h53.793c4.12 0 5.922 2.864 6.222 5.512.028.274.137.52.274.739.629.98.875 2.129.71 3.465-.355 3.765-.245 7.859-.109 11.816Zm-92.906-64.328a1.72 1.72 0 0 0-1.312 1.637c-.41 13.539-1.145 25.902-2.266 37.746-.273 3.304-.926 7.343-1.582 11.629-2.484 15.718-5.566 35.261 2.676 46.343 13.02 17.524 32.914 23.91 53.765 23.91 23.446 0 48.04-8.082 65.399-17.496 1.336-.738 2.672-1.011 3.93-.793.464.11.953-.027 1.336-.328a1.68 1.68 0 0 0 .683-1.199c1.336-12.144 2.809-24.293 4.258-36.465 2.02-16.84 4.121-34.281 5.867-51.449a1.76 1.76 0 0 0-1.226-1.855 1.75 1.75 0 0 0-2.047.82c-6.524 11.762-14.606 17.824-26.176 19.625-18.942 2.945-38.977-.137-58.383-3.113-7.45-1.145-15.144-2.348-22.543-3.137-1.691-.192-3.137-.93-4.176-2.102a1.977 1.977 0 0 0-.601-.464c-1.117-.465-1.992-1.286-2.7-2.43-2.101-3.465-4.394-6.934-6.714-10.399-2.13-3.222-4.258-6.441-6.25-9.718a1.768 1.768 0 0 0-1.938-.762M368.2 625.848c.245.71.929 1.172 1.667 1.172h.215c.793-.11 1.45-.762 1.531-1.555.871-9.008 1.719-17.985 2.567-26.992 1.773-18.887 3.601-38.403 5.867-57.535.383-3.41.816-6.797 1.281-10.153a1.69 1.69 0 0 0-.844-1.746c-.93-.547-1.613-1.203-2.156-2.074-4.094-6.035-10.21-10.29-16.105-14.414l-.602-.406c-.543-.356-1.226-.41-1.8-.11-.571.3-.954.899-.954 1.555-.055 14.547-.11 31.058.11 47.082.191 18.504 1.39 42.633 9.222 65.176M443.45 373.574a1.735 1.735 0 0 0-1.747.164c-12.094 8.762-22.93 17.606-33.11 27.02a1.887 1.887 0 0 0-.542 1.23l-.164 3.301c-.137 3.602-.274 7.18-.52 10.754-.765 11.68-1.746 23.937-3.14 39.766-.055.628.41 1.148.902 1.503.273.188.629.27.98.27.329 0 .657-.082.93-.191.274-.106.574-.27.82-.407 7.586-4.668 14.356-10.535 20.907-16.187 6.03-5.211 12.28-10.617 19.105-14.985.52-.351.844-.98.79-1.609-1.337-16.43-2.755-32.777-4.204-49.21a1.69 1.69 0 0 0-1.008-1.419M390.39 457.965c.493-.246.844-.762.9-1.309 1.257-11.054 2.155-20.879 2.757-29.996.328-5.078.574-10.152.793-15.203l.246-4.64c0-.516-.191-1.008-.574-1.364-5.106-4.64-9.907-9.687-14.575-14.574-3.847-4.067-7.832-8.242-11.984-12.2a1.796 1.796 0 0 0-1.8-.382 1.793 1.793 0 0 0-1.145 1.445c-2.047 18.34-3.387 33.57-4.203 47.93-.028.433.11.844.382 1.172 1.336 1.691 2.754 3.629 4.258 5.648 6.305 8.516 14.11 19.106 23.364 23.528.218.109.488.19.734.19.3 0 .602-.081.848-.245M382.91 512.063c.602-.247 1.04-.766 1.121-1.422l1.965-14.137c1.117-7.805 2.211-15.613 3.274-23.418.109-.82-.38-1.61-1.172-1.883-10.645-3.765-18.395-11.844-25.164-20.008-.465-.57-1.204-.761-1.91-.543-.684.246-1.176.871-1.176 1.61-.383 14.027-.653 28.14-.817 41.894 0 .766.489 1.418 1.2 1.664.82.274 1.5.657 2.128 1.285 3.141 2.727 6.47 5.184 9.692 7.532 3.191 2.347 6.222 4.586 9.086 7.097.328.274.738.438 1.175.438.192 0 .41-.055.598-.11M384.332 125.012c.68.082 1.309-.301 1.637-.871.328-.602.3-1.313-.055-1.856l-.82-1.203h-.028c-1.445-2.102-2.836-4.176-4.257-6.25l-1.582-2.348c-1.063-1.582-2.13-3.136-3.301-4.668-.903-1.199-1.856-2.37-2.785-3.546l-2.047-2.54a8.918 8.918 0 0 0-.793-1.062l-.38-.492a1.892 1.892 0 0 0-1.202-.656c-22.871-2.454-41.32-1.61-58.078 2.62-.547.137-.985.52-1.204 1.04-.218.515-.136 1.09.137 1.582 1.746 2.812 3.656 5.648 5.84 8.707 4.996 6.906 10.535 13.781 16.461 20.469.324.382.816.601 1.309.601.328 0 .71-.11 1.007-.328 14.497-10.18 33.493-10.371 50.141-9.2M355.02 156.754c2.617 2.238 5.703 4.805 8.894 7.043 1.586 1.144 3.25 2.32 4.914 3.3.274.165.574.247.902.247.38 0 .762-.137 1.09-.38 2.13-1.722 4.149-2.976 6.387-3.96 3.93-1.774 8.953-3.356 14.164-4.473a1.754 1.754 0 0 0 1.395-1.695c.054-7.066.054-12.418-.575-17.168a1.72 1.72 0 0 0-1.554-1.527c-14.875-1.418-33.434-3.164-47 4.996a1.761 1.761 0 0 0-.848 1.281c-.055.52.137 1.066.52 1.445 4.175 4.18 7.886 7.645 11.71 10.89M452.836 495.113a1.72 1.72 0 0 0 1.039-1.695c-.82-13.29-1.773-26.227-2.621-37.172-.219-2.183-.383-4.367-.547-6.523-.187-2.184-.352-4.368-.543-6.551-.055-.656-.492-1.2-1.066-1.473-.63-.246-1.309-.137-1.801.301-2.977 2.484-6.031 5.293-9.2 8.188-8.757 8.05-18.667 17.14-28.71 21.097a1.778 1.778 0 0 0-1.067 2.13c4.395 15.038 8.11 28.929 11.274 42.468a1.814 1.814 0 0 0 1.094 1.226c.19.082.406.11.625.11.355 0 .71-.11.984-.328 3.656-2.536 7.121-5.375 10.48-8.133 6.47-5.32 12.582-10.317 20.059-13.645"></path><path fill="#2c3e50" d="M289.676 275.426h.054c.22-.028.438-.082.63-.164.41-.055.82-.082.984-.055 2.21.246 3.765.656 5.074 1.969 3.25 3.219 1.691 7.422-.598 10.043-1.941 2.183-5.433 2.129-8.054.625-2.508-.79-4.477-3.465-4.477-6.086 0-3.985 3.305-6.059 6.387-6.332Zm-35.07 20.336a1.7 1.7 0 0 0 1.253.789c5.871.71 11.711 1.586 17.551 2.43 14.356 2.101 29.176 4.257 43.942 4.257 1.312 0 2.62 0 3.933-.054 23.469-.68 30.074-18.34 36.461-35.426.957-2.567 1.91-5.133 2.922-7.668.191-.492.191-1.012-.055-1.477a1.765 1.765 0 0 0-1.148-.87c-14.63-3.47-30.922-3.223-46.668-2.977-6.824.109-13.293.218-19.543.027-22.465-.766-40.832-.465-57.809.902-.52.055-.984.328-1.28.735-.302.41-.384.957-.274 1.449 2.808 10.969 9.304 20.715 15.636 30.129a503.18 503.18 0 0 1 5.078 7.754M570.61 129.133c3.6 1.422 7.804 3.387 12.226 5.488 12.09 5.703 26.8 12.664 39.465 12.664 8.597 0 16.27-3.195 21.48-12.172a.598.598 0 0 0 .082-.136c.137-.247.192-.575.192-.848 0-.574-.274-1.117-.735-1.445-3.304-2.266-7.754-5.188-12.613-7.754-36.625-19.649-70.059-33.707-99.402-41.73-.57-.138-1.227 0-1.664.41a1.829 1.829 0 0 0-.52 1.636c4.313 21.399 16.324 34.117 41.488 43.887M678.773 220.977c6.961 2.648 13.891 5.378 20.825 8.105 4.53 1.8 9.035 3.578 13.593 5.352.188.082.407.109.625.109.465 0 .903-.164 1.23-.52a1.73 1.73 0 0 0 .407-1.855c-3.984-10.371-8.16-19.543-12.797-28.004-2.867-5.297-5.843-10.344-8.355-14.601a1.79 1.79 0 0 0-1.446-.848c-.601-.11-1.144.246-1.472.71-5.922 8.052-10.535 17.958-13.676 29.45-.246.875.246 1.773 1.066 2.102M702.273 400.758a1.843 1.843 0 0 0-1.148 1.148 1.748 1.748 0 0 0 .273 1.582c4.668 6.25 9.989 13.809 13.895 22.325a1.77 1.77 0 0 0 1.61 1.011c.109 0 .218 0 .327-.027 19.594-3.985 38.239-12.09 56.278-19.926l1.965-.844c.437-.191.793-.574.957-1.039a1.662 1.662 0 0 0-.11-1.39 842.877 842.877 0 0 0-5.324-9.907c-2.512-4.695-5.074-9.39-7.504-14.113a1.921 1.921 0 0 0-1.12-.898 1.775 1.775 0 0 0-1.392.246c-13.511 8.84-29.503 13.398-44.953 17.793-4.613 1.308-9.195 2.62-13.754 4.039M470.879 78.094c-.684.984-1.336 1.996-1.992 3.004l-1.367 2.129a1.717 1.717 0 0 0-.133 1.691c.242.574.761.93 1.363 1.012 11.625 1.418 21.809 5.02 30.242 10.754.274.191.625.3.953.3.192 0 .356-.027.493-.082.519-.136.93-.492 1.117-.984 1.12-2.621 1.941-4.805 2.511-6.715.739-1.828 1.122-3.601 1.504-5.293.16-.793.352-1.558.57-2.512.329-2.238.63-4.421.903-6.523l.164-1.117c.926-10.457.68-19-.738-26.094l-.438-2.293a1.746 1.746 0 0 0-1.691-1.39h-.027c-.817 0-1.5.57-1.692 1.363-.41 1.718-.848 3.328-1.226 4.86l-.247.898c-2.265 7.644-5.27 13.128-7.316 16.566-2.43 3.988-4.422 6.332-5.812 7.672.246-.684.52-1.45.816-2.211.656-1.774 1.504-3.957 2.457-6.66 1.34-4.067 3.195-9.61 4.422-16.73 1.23-6.907 2.293-15.915-.328-24.212-.274-1.39-.844-2.539-1.309-3.328l-.246-.52c-.437-.82-.898-1.773-1.527-2.265l-.575-.684c-.3-.488-.71-.734-1.117-1.007-.273-.164-.601-.383-1.093-.52-1.774-.707-3.383-.52-3.93.738-.328.79-.11 1.61.219 2.758 0 .082.136.543.136.625a.971.971 0 0 0 .11.246v1.5c0 1.887 0 3.797-.301 5.625-.192 1.254-.328 2.567-.465 3.875-.3 2.621-.601 5.32-1.226 7.942l-.602 2.84c-.602 3.082-1.281 6.277-2.293 9.386l-.492 1.696c-.488 1.554-.953 3.109-1.39 4.554l-.766 2.024a189.312 189.312 0 0 1-1.747 4.418c-.98 2.949-2.457 5.816-4.011 8.843a123.804 123.804 0 0 0-1.883 3.82M711.469 326.93c7.316 9.715 20.062 14.355 33.574 18.64.133.028.27.055.406.055.465 0 .957-.273 1.313-.652.465-.465.57-1.286.355-1.914-1.066-3.22-2.156-6.442-3.086-9.743-2.976-10.753-5.758-21.863-8.433-32.59a1420.577 1420.577 0 0 0-4.696-18.585c-.164-.657-.68-1.172-1.363-1.282-.629-.136-1.312.137-1.719.653-11.683 15.804-24.074 35.265-16.351 45.418M526.531 377.832c.352.41.844.629 1.364.629h.054l12.227-.547a1.699 1.699 0 0 0 1.636-1.5c2.239-15.476 1.395-31.309.575-46.617-.328-6.305-.684-12.828-.817-19.188 0-.492-.218-.957-.574-1.257-.383-.329-.793-.516-1.34-.434-3.191.324-6.441.516-9.77.68a1.753 1.753 0 0 0-1.636 1.8c.082 4.696.3 9.418.492 14.141.735 16.84 1.473 34.281-2.539 50.766-.137.52 0 1.09.328 1.527M513.895 309.543a212.25 212.25 0 0 1-12.528-.844 1.717 1.717 0 0 0-1.34.434c-.382.328-.574.82-.574 1.312.082 9.77-.324 19.707-.68 29.285-.437 11.329-.902 23.036-.628 34.665.027.953 1.199 1.773 2.156 1.773l1.582.383c2.894.707 5.922 1.472 9.035 1.883.082.027.164.027.246.027.766 0 1.445-.492 1.664-1.258 4.996-16.84 4.149-34.523 3.332-51.637-.246-4.777-.465-9.554-.574-14.304-.027-.926-.766-1.692-1.691-1.719"></path><path fill="#2c3e50" d="M448.008 275.781c-.711.301-1.149 1.04-1.04 1.828 3.958 33.164 7.509 68.153 10.891 106.91.055.383.192.739.465 1.036.735.765 1.254 1.777 1.5 2.922l.164.71c.274 1.446.492 2.239 2.075 3.083.82.328 3.03.902 4.257 1.12 2.13.356 4.258.57 6.387.79 2.074.218 4.148.437 6.113.765.328.082.657.137.93.274.246.11.516.164.79.136.82 0 1.64.11 2.565.438 10.782 3.984 22.055 5.074 33.325 5.074 7.07 0 14.168-.437 21.152-.844 5.352-.328 10.672-.656 15.969-.793.465 0 .898-.218 1.226-.546 5.735-6.141 12.121-10.836 19.024-13.973.629-.274 1.011-.902 1.039-1.555.273-20.035 1.472-40.367 2.648-59.992.598-10.098 1.2-20.2 1.692-30.297.027-.793-.438-1.5-1.203-1.746-.735-.219-1.555.027-1.993.684-4.613 6.765-9.879 11.87-20.55 14.629-.93.246-1.473 1.336-1.282 2.238.11 7.148.434 14.41.79 21.398.874 18.34 1.773 37.282-1.91 55.73-.548 2.759-3.52 4.45-6.087 4.505-4.066.082-8.27.382-12.363.683-10.207.735-20.797 1.5-30.598-.902a126.1 126.1 0 0 0-3.191-.734c-5.242-1.122-11.219-2.403-13.73-6.797-2.567-4.34-2.458-12.692-2.375-18.75 0-1.368.027-2.594 0-3.688-.055-8.515.519-17.168 1.066-25.547.574-8.62 1.144-17.547 1.035-26.363a1.7 1.7 0 0 0-1.418-1.691c-5.867-1.04-11.191-2.157-16.457-3.47-.164-.081-.629-.218-.82-.218-1.692-.082-4.75-.762-6.168-4.34-3.711-9.578-7.504-16.62-11.871-22.16-.465-.629-1.313-.848-2.047-.547"></path><path fill="#2c3e50" d="M521.016 272.836c0 1.664-.57 3.246-1.555 4.367-1.145 1.281-2.785 1.938-4.75 1.938h-5.375c-4.367 0-6.332-3.168-6.332-6.305 0-1.668.57-3.277 1.582-4.395 1.117-1.285 2.758-1.937 4.75-1.937h5.375c4.367 0 6.305 3.164 6.305 6.332Zm51.64 1.555c1.117-2.239 2.403-4.422 4.04-6.907.327-.492.382-1.09.136-1.636a1.738 1.738 0 0 0-1.254-1.04c-39.55-7.995-81.582-15.12-122.223-7.093a1.816 1.816 0 0 0-1.363 1.254 1.79 1.79 0 0 0 .547 1.773c7.531 6.551 13.727 15.86 19.512 29.34.219.52.656.875 1.203 1.012 16.074 3.957 32.476 5.949 48.39 5.949 6.688 0 13.293-.356 19.735-1.063 18.312-1.992 23.879-7.152 31.277-21.59M433.785 596.809c.848 13.343 1.75 27.183 5.926 39.793a1.764 1.764 0 0 0 1.61 1.171h.054c.707 0 1.336-.406 1.61-1.062 7.015-16.621 8.624-40.86 9.824-58.547.273-4.012.492-7.723.793-10.996 1.445-16.95 1.8-35.375 1.066-56.281 0-.598-.356-1.172-.902-1.473a1.75 1.75 0 0 0-1.72.027c-5.187 3.055-9.855 7.043-14.382 10.891-4.285 3.656-8.734 7.45-13.484 10.316a1.74 1.74 0 0 0-.82 1.883 1151.269 1151.269 0 0 1 7.753 37.965c1.528 8.434 2.102 17.524 2.672 26.313M309.438 338.883a1.728 1.728 0 0 0-1.254-.543h-38.649c-.93 0-1.691.707-1.746 1.61l-.164 2.265c-.41 5.484-.793 11.164-.328 16.812.246 2.512 1.254 4.532 3.086 6.032 2.781 2.293 7.066 2.921 11.515 2.921 3.383 0 6.825-.355 9.797-.683 1.64-.164 3.086-.328 4.285-.41l.657-.028c6.797-.328 13.21-.652 13.21-10.125l-.027-3.058c-.054-4.446-.136-9.031.11-13.508 0-.492-.164-.957-.493-1.285"></path><g clip-path="url(#a)"><path fill="#2c3e50" d="M280.535 153.781c.164-.054.762-.054.926-.11.328-.054.684-.163 1.121-.163a42.833 42.833 0 0 1 3.219-.137c17.168 0 30.351 11.356 32.562 28.496 1.883 14.246-4.093 32.094-19.133 38.563-8.515 3.66-18.668 3.113-27.921-1.446-9.387-4.64-16.375-12.882-18.696-22.082-2.593-10.097-.957-20.578 4.45-28.683 5.238-7.887 13.59-13.02 23.472-14.438Zm116.899 570.594c-.63-17.766-.903-35.863-1.122-53.355-.109-7.098-.19-14.196-.328-21.29l-.382-29.23c-.434-35.457-1.036-84.012-1.72-101.344-.027-.898-.76-1.61-1.663-1.664-.903 0-1.692.63-1.801 1.528-1.61 12.855-3.223 41.597-4.805 69.382-1.472 26.145-3.027 53.196-4.449 65.285-.492 4.094-3.848 6.032-6.957 6.168-2.402.082-5.078-.875-5.652-3.793a2.14 2.14 0 0 0-.438-.902 6.44 6.44 0 0 1-.57-.762c-28.14-46.43-24.84-110.105-21.945-166.273.574-11.082 1.12-21.563 1.418-31.742.492-16.567 1.695-34.473 3.66-54.695.054-.63-.22-1.258-.739-1.61-.52-.355-1.199-.41-1.773-.11-38.977 19.485-91.898 26.255-122.246-2.566-12.45-11.793-17.277-26.257-15.23-45.527 4.148-38.375 5.84-69.762 5.374-98.828-.027-2.867 1.446-4.34 2.704-5.078.273-.164.464-.383.628-.625.735-1.313 2.239-2.95 4.965-3.305 26.805-3.191 54.098-2.32 80.461-1.473l8.16.274c4.914.164 9.829.137 14.739.11 12.691-.028 24.675-.083 36.601 2.945.52.136 1.067.027 1.473-.274.437-.324.683-.816.71-1.336.356-7.015.548-13.484.548-20.168l-.137-.492c-.055-.219-.137-.438-.164-.71-.438-2.895-1.008-6.005-1.61-9.227-2.046-11.051-4.367-23.551-1.964-33.762a1.743 1.743 0 0 0-.82-1.883c-1.774-1.063-3.383-2.211-4.997-3.328l-.87-.63c-3.657-2.648-6.825-5.292-9.692-7.75-5.375-4.694-10.59-9.718-16.375-15.804-9.168-9.77-17.414-20.086-24.426-30.594a175.356 175.356 0 0 1-7.563-12.636c-.3-.574-.898-.903-1.609-.903a1.705 1.705 0 0 0-1.5 1.04c-7.672 17.492-32.453 26.718-54.316 34.878-8.133 3.032-15.828 5.895-22.188 9.008-2.676 1.309-5.433 2.73-8.297 4.176-15.832 8.078-33.789 17.25-50.437 17.277h-.028c-6.96 0-14.414-9.582-20.472-26.34a1.835 1.835 0 0 0-1.145-1.062 1.747 1.747 0 0 0-1.554.246c-17.852 13.18-32.344 30.402-44.301 52.73-.461.844-.137 1.883.71 2.348.302.164.684.246.958.219 2.426.68 16.238 7.367 23.77 10.996 4.995 2.43 8.597 4.176 9.663 4.586 3.547 1.367 5.676 3.113 6.47 5.352 1.554 4.34-1.966 10.562-5.079 16.02-1.172 2.046-2.293 4.01-3.164 5.866-6.469 13.785-13.895 32.098-13.785 51.477.027 2.129-.79 3.82-2.348 4.914-1.8 1.226-4.34 1.5-6.523.652-.762-.297-1.719-.054-2.727-.351-6.66-1.97-13.101-4.942-19.351-7.809-6.332-2.918-12.91-5.95-19.79-7.969a1.733 1.733 0 0 0-2.156 1.145c-1.636 5.078-3.191 10.183-4.722 15.312a1.778 1.778 0 0 0 .246 1.477c.3.434.765.707 1.312.762 12.856 1.12 25.11 8.488 31.989 19.214 5.894 9.227 7.148 19.844 3.519 29.942-3.547 9.797-11.191 17.879-21.535 22.734-11.383 5.352-24.809 6.114-35.945 2.102-.93-.328-1.91.137-2.239 1.039-4.175 11.242-8.898 20.414-14.355 27.976-.301.434-.41.98-.274 1.473.137.52.493.926.985 1.145 28.054 12.664 57.097 25.765 89.082 33.191l11.054 2.563c20.61 4.722 41.922 9.609 62.286 16.488.492.191 1.09.11 1.582-.246.437-.328.71-.848.71-1.422 0-.027.055-.406.055-.461.817-12.61.68-26.094-.492-41.188-.71-8.652-1.61-17.113-2.457-25.464-.492-4.614-.98-9.2-1.418-13.754-.492-4.45-.82-8.953-1.148-13.375l-.407-5.38c-.054-2.046-.164-4.038-.246-6.03-.164-3.93-.355-7.778-.355-11.954-.164-25.52 2.812-48.144 5.047-62.937 2.758-18.86 6.496-34.828 9.226-46.48 3.547-14.141 6.387-23.747 8.38-29.75-.79 5.456-2.02 13.097-3.438 21.695l-2.32 14.656c-1.774 11.82-3.766 25.223-5.243 40.723-.98 9.855-1.691 18.914-2.129 27.648a1.75 1.75 0 0 0 1.477 1.8c.844.138 1.719-.378 1.965-1.226a349.586 349.586 0 0 1 6.902-21.507c3.086-8.38 5.379-13.864 6.988-17.278-.683 3.55-1.965 9.227-4.203 18.125l-.87 3.63c-3.552 14.382-8.38 34.034-10.782 55.132-.356 3.957-.547 7.289-.656 10.644l.164 2.622c.273 2.183.52 4.367.738 6.55.406 3.793.844 7.614 1.363 11.598.52 3.984 1.063 8.05 1.582 12.172 1.149 8.734 2.348 17.77 3.332 27.05 1.582 15.829 2.047 29.942 1.446 43.067l-.82 8.46c0 .247.027.493.081.74.63 1.8.41 4.01-.52 5.757-.105.191-.16.438-.187.656l-.656 6.688c-.3 3.355-.629 6.715-.957 10.125l-.11 1.066c-.269 2.399-.68 4.856-1.117 7.313-.218 1.39-.437 2.757-.656 4.12l-3.738 23.419a3651.6 3651.6 0 0 0-4.367 23.445c-1.555 7.86-2.922 15.777-4.258 23.883l-3.055 18.039-.793 6.031c-.71 7.344-.793 14.848-.875 22.11l-.054 2.757c-.11 2.399.109 4.774.328 7.094.164 1.774.328 3.55.328 5.324v21.645c-.055 13.973-.082 28.41.71 42.93.845 13.484 1.528 26.886 2.212 40.23l.789 15.012.054 6.824-.109 2.156v.875l-.191 10.672c-.055 2.371-.11 4.746-.137 7.04-.133 3.222-.055 6.222.027 9.144.028 1.254.082 2.511.082 3.847.11 1.856.274 3.63.52 5.38.082.843.765 1.472 1.61 1.527 6.523.437 13.019.87 19.46 1.336 19.57 1.367 38.02 2.648 56.363 2.921 4.883.137 9.743.329 14.575.493 8.297.296 16.484.597 24.562.707h3.14c11.653.054 23.036.082 34.145.082l17.957.136 8.653-.218c2.976-.082 5.894-.137 8.789-.22l20.058-.433c.684-.027 1.258-.383 1.559-.984 11.242-23.336 10.125-49.211 9.004-74.238-.137-3.137-.27-6.278-.406-9.391"></path></g><path fill="#2c3e50" d="M276.633 207.793c3.164 2.047 6.547 3.086 9.879 3.086 3.574 0 7.125-1.176 10.398-3.524 7.887-5.62 10.645-17.41 8.762-25.57-2.54-11-10.344-16.433-22.79-15.64-10.019 1.855-16.405 7.367-17.987 15.503-1.856 9.387 3.195 20.633 11.738 26.145M393.445 224.906h-.027c-4.418.082-8.488.63-12.445 1.746a1.784 1.784 0 0 0-1.282 1.641c-.328 17.492-1.554 36.406-3.71 57.805-.028.437.082.902.355 1.23 3.848 5.02 8.922 8.817 13.836 12.473 2.074 1.527 4.148 3.082 6.14 4.722.329.247.711.407 1.094.407.242 0 .489-.055.707-.16a1.743 1.743 0 0 0 1.04-1.504c1.253-24.782 1.992-51.121-4.012-76.993-.192-.793-.903-1.367-1.696-1.367M65.379 272.672c6.441 1.965 12.691 4.828 18.75 7.586 4.422 2.047 9.008 4.12 13.648 5.867.192.082.41.11.63.11.3 0 .624-.083.898-.247.465-.273.765-.761.82-1.281 2.402-21.234 12.063-42.14 19.133-56.008.219-.433.246-.898.11-1.336a1.818 1.818 0 0 0-.876-1.035l-2.781-1.367c-9.063-4.504-18.453-9.145-28.113-12.856-.848-.328-1.828.083-2.211.93a333.743 333.743 0 0 0-9.172 22.817c-3.684 10.015-7.477 21.015-11.98 34.609-.165.434-.11.926.109 1.336.219.41.597.738 1.035.875M38.004 365.113c3.601 1.336 7.617 2.047 11.71 2.047 11.38 0 23.419-5.348 29.04-16.894 3.41-6.989 3.086-14.329-.984-20.715-5.13-8.078-15.747-13.649-25.954-13.649h-.464c-.793 0-1.446.52-1.664 1.258-2.54 8.68-4.942 17.383-7.344 26.172-1.692 6.441-3.465 13.047-5.403 19.652-.273.903.192 1.829 1.063 2.13M377.59 212.543c.082.465.355.875.765 1.117.407.246.872.328 1.336.219 12.254-2.918 23.993-1.035 36.41.957 2.239.355 4.504.738 6.77 1.062.027 0 .027 0 .055.028.351.027.488.054.652.11.192.081.383.109.574.109.301 0 .602-.083.875-.22.434-.241.735-.679.844-1.171.629-3.086.902-6.36.848-10.617-.192-8.57-1.012-15.614-2.594-22.11-1.992-8.132-3.465-10.343-12.39-11.761-8.626-1.336-17.551-.493-25.165 2.375-16.351 6.195-12.527 23.636-9.472 37.636l.492 2.266M678.035 362.52Zm-7.805-6.168c.137.3.575.656.98.875.356.625.685 1.199.958 1.527.11.191.219.383.547.875 1.363 1.555 2.562 2.754 3.82 3.848l.328.3c.082.082.543.38.625.434l.63.437c.41.247.792.52 1.23.766.707.383 1.39.766 2.316 1.2.356.136.793.273.902.273.438.164.93.3 1.391.41l.574.137c.164.027.301.054.465.054h1.063c.246 0 .437-.027.382-.054.438 0 1.04-.274 1.368-.575.242-.164.46-.41.625-.68l.738-1.394a1.5 1.5 0 0 0 .219-.41c.191-.543.355-1.09.492-1.691l.324-1.829c.027-.136.082-.41.082-.546.055-1.118.11-2.184.11-3.301-.192-5.106-5.758-9.117-10.262-9.117-1.282 0-2.184.109-3.739.574-.191.055-.683.219-1.175.41-.489.164-1.008.355-.844.383-.246 0-.848.215-1.094.324-.597.328-1.254.629-1.855 1.04-.246.163-.41.218-.543.491-.028.028-.055.055-.11.082-.164.11-.355.27-.492.434-.082.082-.219.191-.355.355-.82.52-.957 1.258-.957 1.746 0 1.012.574 1.75.984 2.239l.273.383"></path><g clip-path="url(#b)"><path fill="#2c3e50" d="M558.79 189.207c-.599 17.25-10.427 37.121-27.43 40.04-22.188 3.82-41.84-16.102-45.715-36.329-1.965-10.125.164-19.242 6.14-26.39 6.88-8.188 18.395-13.02 30.867-13.02h.848c21.508 1.554 36 16.238 35.29 35.699Zm99.241 160.348c.98-4.313 3.63-7.832 7.614-10.235 3.71-2.183 9.062-4.12 14.464-4.12 2.43 0 4.887.382 7.18 1.34 9.008 3.683 14.52 10.315 15.555 18.776.11.57.191 1.118.191 1.747-.055 6.25-1.937 14.656-7.066 19.406-2.922 2.726-6.524 3.984-10.809 3.683-9.144-.629-18.289-6.359-23.883-14.93-3.218-4.913-4.422-10.617-3.246-15.667Zm44.95-89.356c1.695.926 2.921 2.399 3.414 4.012.437 1.5.218 3.082-.657 4.637-1.718 3.113-3.328 6.386-4.968 9.718-4.418 9.008-9.004 18.313-15.91 24.836-10.044 9.528-19.133 4.696-29.641-.925-3.93-2.075-7.969-4.23-12.117-5.598a6.465 6.465 0 0 1-2.895-1.938c-.164-.218-.41-.382-.656-.492-2.403-1.008-4.614-3.41-3.602-7.203 2.02-7.808 6.606-14.492 11.028-20.988 3.847-5.625 7.804-11.41 10.207-18.016.082-.219.136-.437.109-.68-.082-2.21 1.117-4.585 2.977-5.953 1.144-.843 3-1.636 5.511-.734 1.2.328 2.184.844 3.274 1.746 8.351 4.613 17.633 8.98 30.078 14.191 1.34.52 2.402 1.446 3.195 2.758.137.274.383.493.652.63Zm80.707 157.781c-.41-.847-1.418-1.226-2.293-.847l-4.122 1.805c-20.277 8.84-41.265 18.011-63.457 21.316-2.754.406-6.441 0-7.968-4.504-4.012-11.547-11.41-21.016-18.559-30.16l-3.36-4.285c-1.171-1.528-1.527-3.059-.98-4.504.63-1.856 2.594-3.41 4.965-3.957a1.6 1.6 0 0 0 .738-.383c.63-.52 1.285-.899 2.02-1.117 6.633-2.403 13.539-4.258 20.851-6.223 15.422-4.148 31.364-8.46 44.164-17.851.653-.493.899-1.391.57-2.13l-1.144-2.456c-.218-.41-.547-.735-1.011-.899-3.164-1.148-6.688-2.265-10.372-3.441-17.984-5.758-40.394-12.91-45.496-29.696-5.789-18.968 8.895-39.382 20.688-55.812 2.265-3.14 4.422-6.172 6.36-9.035.273-.438.382-.957.218-1.446a214.821 214.821 0 0 0-3.14-10.402c-.137-.516-.548-.926-1.036-1.117-8.844-3.168-17.715-6.66-26.285-10.07-8.734-3.442-17.766-7.016-26.773-10.262-3.578-1.285-5.325-4.313-4.532-7.89 2.621-12.364 8.407-30.212 21.125-45.169.52-.629.575-1.504.11-2.129-9.117-13.046-18.532-23.691-28.715-32.562-.379-.328-.871-.465-1.39-.41a1.782 1.782 0 0 0-1.227.793c-18.235 28.875-49.84 14.656-77.762 2.129-4.746-2.13-9.332-4.203-13.7-5.977-25.054-10.184-38.73-24.758-44.323-47.273-.164-.63-.63-1.121-1.258-1.282-.625-.164-1.282.051-1.719.516-.191.191-.383.684-.465.957-1.582 6.195-4.312 12.281-7.176 18.422-6.414 12.883-15.175 25.601-25.984 37.8-6.633 7.18-13.074 13.13-19.734 18.18-7.914 5.895-15.2 9.743-22.871 12.172a1.77 1.77 0 0 0-1.172 2.102c3.136 12.472 3.574 25.683 1.144 35.289-.11.355-.082.766.082 1.121.219.547.438 1.062.52 1.61a2880.215 2880.215 0 0 1 3.71 26.23c.055.488.329.926.739 1.199.41.3.898.383 1.363.273 45.774-10.535 93.125-2.43 141.707 7.614 1.176.191 2.266.683 2.867 1.285.137.137.301.246.493.328 1.062.516 3.574 2.074 3.574 5.375 0 .438 0 .902.027 1.363.055 1.45.11 2.84-.465 4.094-.109.219-.164.438-.164.684-.355 18.777-1.582 37.828-2.78 56.28-1.313 20.36-2.677 41.403-2.868 62.173 0 .547-.11 1.12-.3 1.746-.056.191-.083.41-.083.601.055 1.176-.082 5.106-4.34 6.442-7.258 2.348-13.754 6.988-20.469 14.547-.957 1.011-1.937 1.61-3.003 1.883-.164.027-.301.082-.41.136-.817.438-1.801.684-2.864.684-6.305.055-12.773.437-18.996.765-19.05 1.09-38.73 2.184-56.988-4.558a6.238 6.238 0 0 1-1.367-.656c-.301-.164-.68-.274-1.008-.246-.793.054-1.637.054-2.348-.028-1.582-.273-3.223-.492-4.86-.734-2.812-.41-5.757-.82-8.433-1.45-.52-.136-1.117 0-1.527.383a1.747 1.747 0 0 0-.63 1.446c1.665 20.008 3.278 40.039 4.888 60.047l.816 10.234c3.25 40.148 2.32 78.059-2.836 115.89-.465 3.575-.875 7.286-1.312 11.079-2.047 18.59-4.34 39.66-16.649 53.578-1.582 1.746-3.656 1.8-4.695 1.746-2.156-.219-4.149-1.418-5.211-3.164-9.797-16.133-11.055-33.79-12.39-52.488-.466-6.059-.903-12.364-1.665-18.559-2.539-20.14-6.879-42.305-13.293-67.77-.219-.87-1.012-1.418-1.937-1.308a1.75 1.75 0 0 0-1.504 1.8c2.101 51.395 4.23 106.145 5.05 160.84.165 10.098.794 20.333 1.419 31.196 1.992 32.836 4.015 66.789-7.258 96.402a1.741 1.741 0 0 0 .191 1.637c.356.465.844.683 1.473.738 9.144-.219 17.906-.328 26.367-.383l28.438.328a981.65 981.65 0 0 0 21.59.22h1.253L610.95 797.25a1.79 1.79 0 0 0 1.61-1.691l2.785-83 .734-44.926c-.297-14.903-.57-29.586-.844-44.133-1.554-23.664-3.414-47.41-5.187-70.336l-.953-12.226c-.793-9.09-1.313-18.231-1.801-27.075-.246-4.011-.465-7.968-.738-11.902-.383-6.277-.739-12.527-1.067-18.64l-.027-1.938c-.11-5.403-.191-10.781-.242-16.02-.11-5.922-.192-11.738-.246-17.441l-.082-3.957c0-1.5-.028-3.004-.055-4.45 0-2.183.137-4.038.273-5.921l2.157-34.364c1.718-16.894 3.82-32.535 5.703-46.316l4.422-30.98c.925-6.086 1.8-11.844 2.238-17.004 1.527-13.508 2.672-21.614 3.492-26.473.219 4.914.3 13.102.082 26.719.055 5.707-.437 12.312-.93 18.59-.296 4.39-.652 9.03-1.007 13.89l-.657 8.38c-.437 5.757-.898 11.788-1.418 18.07-.546 7.011-1.12 14.328-1.691 21.996-.082.902.543 1.691 1.445 1.855.93.191 1.746-.383 1.965-1.254 4.723-16.812 9.852-32.015 13.977-44.242 1.008-3.004 1.992-5.871 2.863-8.488l1.34-4.012c1.582-4.695 3.11-9.227 4.308-12.473-.296 3.711-1.117 9.387-2.836 17.274-2.238 10.726-6.003 23.965-10.316 39.304a2702.246 2702.246 0 0 0-4.34 15.528 490.27 490.27 0 0 0-7.152 30.187c-1.473 8.16-2.484 14.875-3.082 20.824l.324 7.043c.274 5.704.52 11.52.766 17.387l.11 2.485c.218 5.101.437 10.261.628 15.609.41 4.531.762 9.2 1.145 13.867l.027.602c.055.488.3.925.71 1.226.384.301.872.438 1.364.328 6.031-1.148 12.336-1.476 18.45-1.773 8.788-.438 17.85-.875 26.394-3.824 14.137-4.828 27.594-11.38 40.613-17.684 3.356-1.637 6.715-3.277 10.098-4.887 13.183-6.304 26.992-11.707 40.34-16.949 11.464-4.504 23.308-9.144 34.746-14.328.843-.383 1.226-1.367.898-2.238-2.293-5.867-5.047-12.063-8.597-19.489"></path></g><path fill="#2c3e50" d="M668.973 256.895c-.817-.41-1.856-.082-2.317.738-2.074 3.875-4.64 7.64-7.125 11.27-3.332 4.886-6.77 9.91-9.172 15.449-.382.847 0 1.855.848 2.265 2.594 1.227 4.992 2.621 7.559 4.121 1.746 1.012 3.496 2.02 5.351 3.004 2.863 1.5 5.13 2.184 7.067 2.184 3.632 0 6.062-2.457 8.761-6.66h.028c3.683-5.786 6.933-11.93 10.07-17.852l1.23-2.293a1.76 1.76 0 0 0 .11-1.39 1.794 1.794 0 0 0-.957-1.04c-8.078-3.464-14.793-6.437-21.453-9.796M523.773 166.172h-.109c-15.992-.328-22.082 6.523-24.238 12.281-4.149 11.055 2.922 26.04 11.847 33.543 4.395 3.715 9.008 5.598 13.403 5.598 2.644 0 5.183-.684 7.531-2.074 10.59-6.168 16.047-18.942 13.238-31.063-2.484-10.672-10.59-17.492-21.672-18.285M332.637 22.855c.629 2.102 1.285 4.258 1.937 6.52 1.555 4.695 3.278 8.844 5.297 12.64a1.722 1.722 0 0 0 1.883.9c26.937-5.08 43.64-2.54 51.148-.575l1.09.355c2.156.63 4.012 1.176 5.406 1.692a85.167 85.167 0 0 1 3.41 1.804 57.365 57.365 0 0 1-3.683-.738c-.957-.11-2.047-.273-3.223-.41l-3.382-.465c-13.594-1.61-29.395-.871-47 2.293-.547.082-1.036.383-1.254.902a1.595 1.595 0 0 0-.028 1.528c.055.136.164.355.246.465 1.829 2.757 4.23 5.593 6.739 8.625l4.64 5.62a767.105 767.105 0 0 0 5.461 6.579l2.211 2.566c5.594 6.551 11.38 13.32 17.274 20.852 1.668 2.074 3.414 4.23 5.105 6.36a117.84 117.84 0 0 1 2.813 4.066c.68.984 1.363 1.964 2.046 2.949a331.273 331.273 0 0 1 4.993 7.23l2.484 3.606c.355.652.738 1.39 1.066 2.156a1.78 1.78 0 0 0 1.528 1.035h.054c.657 0 1.227-.355 1.555-.902 2.758-4.992 6.66-9.442 11.574-13.235 4.801-3.714 9.578-6.386 14.875-9.253l2.239-1.172c6.332-3.36 12.308-6.524 17.195-10.184 1.8-1.336 3.355-2.672 4.719-4.094 2.129-2.129 3.957-4.855 5.734-7.504.598-.902 1.2-1.8 1.938-2.894.625-1.2 1.253-2.375 1.91-3.547 1.336-2.484 2.703-5.05 3.71-7.723.52-1.285 1.067-2.566 1.583-3.824l2.375-6.738c.246-.738 0-1.531-.63-1.992-2.425-1.75-5.593-3.114-9.66-4.258-3.765-.985-7.75-1.64-12.581-2.05-7.586-.599-13.786-.38-18.368-.216l-4.175.215c-1.91.11-3.688.191-5.051.219 1.719-.79 4.558-1.774 8.953-2.672 6.031-1.176 12.281-1.668 18.887-1.477 4.804.137 9.09.684 13.43 1.723 2.89.762 6.003 1.691 9.003 3.383.492.273 1.094.164 1.586-.082.516-.219.926-.82 1.035-1.363.246-1.067.493-2.157.793-3.223.598-2.266.899-4.504 1.2-6.66a61.41 61.41 0 0 1 .601-3.903c.219-1.254.246-2.43.274-3.547.027-.546.027-1.093.082-1.664l.054-1.257-.136-3c0-.356-.028-.711-.055-1.067-.055-.547-.574-1.199-1.04-1.472-.464-.301-.898-.602-1.308-.985C457.887.2 430.977 1.184 409.414 1.972c-4.312.137-8.434.301-12.226.329-27.106.164-47.739 2.375-66.899 7.125a1.828 1.828 0 0 0-1.117.87 1.734 1.734 0 0 0-.11 1.423c.301.816.547 1.61.844 2.43l2.73 8.706M294.89 69.715l.137 1.039c.028.273.137.547.301.766 1.008 1.5 1.445 3.492 1.145 5.293-.028.246-.028.519.054.765 1.04 3.656 2.676 7.887 4.887 12.527a1.76 1.76 0 0 0 1.582 1.008c.164 0 .328-.027.492-.082 15.121-4.394 32.317-6.195 51.067-5.238.843 0 1.336-.356 1.664-.984.3-.598.219-1.364-.246-1.883l-1.309-1.61c-.848-1.039-1.691-2.101-2.512-3.03l-4.449-5.595c-1.473-1.855-2.95-3.683-4.394-5.511L342 65.54c-2.43-3.028-4.723-5.895-6.96-9.388-4.532-6.66-8.134-14.601-10.7-23.609-.98-3.766-1.938-7.453-2.922-10.918a30.81 30.81 0 0 0-.516-2.238l-.41-1.719c-.082-.41-.191-1.145-.902-1.61a1.74 1.74 0 0 0-1.637-.19l-1.09.464c-.765.461-1.422 1.117-1.992 1.91a.572.572 0 0 0-.11.164c-.109.137-.218.324-.273.434l-1.12 2.293c-.653 1.176-1.063 2.484-1.337 3.469-.765 1.882-1.094 3.82-1.39 5.648l-.274 1.527c-1.285 9.91.38 18.723 1.746 24.54a71.46 71.46 0 0 0 5.922 15.855 80.258 80.258 0 0 0 4.531 7.508c.082.136.164.273.247.382-1.692-.984-4.176-2.867-7.125-6.359-3.657-4.34-6.633-9.61-8.844-15.695-1.117-2.922-2.13-6.36-3-10.235-.192-.875-1.067-1.476-1.883-1.367a1.876 1.876 0 0 0-1.285.793c-1.117 1.149-1.883 2.512-2.7 3.93l-.574.984c-2.238 4.45-3.195 9.442-2.812 14.848.027.898.164 1.828.3 2.754M473.008 136.094c.328.383.793.574 1.281.574.383-.164 1.012-.219 1.34-.602 7.23-8.406 13.508-17.058 18.586-25.71a1.784 1.784 0 0 0-.602-2.376c-.027 0-.52-.296-.547-.296-9.03-7.125-21.722-10.32-39.164-9.746a1.906 1.906 0 0 0-.93.328c-4.53 3.164-9.304 5.757-13.945 8.296-1.418.766-2.84 1.528-4.203 2.293-6.933 3.793-13.972 8.051-18.558 13.485a1.738 1.738 0 0 0-.22 1.937c.329.625.817 1.09 1.692.926 23.035-1.746 39.547 1.149 53.524 9.39.68.41 1.172.9 1.746 1.5M160.742 157c1.637.82 3.469 1.23 5.625 1.23 2.7 0 5.922-.656 9.797-2.02 11.68-4.038 22.844-9.417 33.625-14.6 3.277-1.587 6.606-3.169 9.906-4.723 4.422-2.075 10.32-4.121 16.598-6.278 22.762-7.863 53.93-18.668 47.133-43.699a1.774 1.774 0 0 0-.899-1.117c-.464-.219-.984-.246-1.449-.027-6.793 2.812-13.453 6.14-19.867 9.359-10.617 5.297-21.563 10.781-33.297 14.086-3.742 1.035-7.508 2.047-11.273 3.082-17.907 4.86-36.438 9.91-53.551 17.879-3.903 1.8-7.86 3.875-12.09 6.305a1.752 1.752 0 0 0-.793 2.046c2.84 9.145 5.27 15.805 10.535 18.477M435.805 296.715a1.713 1.713 0 0 0-1.664.055c-5.676 3.386-11.11 7.261-16.348 11-1.938 1.39-3.875 2.785-5.813 4.148-.464.3-.738.793-.765 1.336-.82 16.05-1.254 32.344-1.719 48.094-.164 6.25-.355 12.5-.547 18.75 0 .683.383 1.336.985 1.636.246.11.515.164.761.164.41 0 .82-.136 1.121-.41l5.075-4.23c8.109-6.793 16.488-13.836 25.058-19.867.516-.383.79-.985.735-1.614-1.993-20.988-3.93-39.847-5.922-57.695a1.697 1.697 0 0 0-.957-1.367M464.246 147.914c.41-.383.629-.93.547-1.504a1.698 1.698 0 0 0-.875-1.308c-15.992-9.09-34.309-8.625-51.719-6.797-.902.082-1.558.847-1.558 1.746l-.028.875c0 .629-.027 1.254.028 1.855.082 3.684.464 7.531.847 11.57l.11 1.204c.082.82.738 1.472 1.554 1.554 8.68.985 14.93 4.121 18.504 9.309.301.492.875.762 1.422.762.164 0 .328-.028.492-.055 6.575-1.883 13.453-5.457 20.414-10.617 3.957-2.946 7.559-6.168 10.262-8.594M413.098 294.422c.273.137.547.219.82.219.383 0 .734-.11 1.008-.329 5.789-4.093 12.066-8.351 18.887-11.816a1.745 1.745 0 0 0 .957-1.746c-2.02-16.95-4.23-33.898-6.633-50.41-.137-.875-.953-1.504-1.746-1.504-3.223.055-6.715-.652-9.852-1.254l-6.035-1.094a1.747 1.747 0 0 0-1.527.52c-.41.41-.602.984-.465 1.554 4.504 22.575 4.394 45.145 3.66 64.278 0 .656.351 1.285.926 1.582"></path></svg>