<svg xmlns="http://www.w3.org/2000/svg" width="1080" viewBox="0 0 810 810" height="1080" version="1.0"><defs><clipPath id="a"><path d="M321 527h159v203.07H321Zm0 0"></path></clipPath></defs><path fill="#2c3e50" d="M86.613 537.086c0 9.973 8.102 18.078 18.075 18.078 9.976 0 18.097-8.105 18.097-18.078V445.75c0-23.785 19.352-43.137 43.14-43.137 23.79 0 43.16 19.352 43.16 43.137v91.336c0 9.973 8.102 18.078 18.08 18.078 9.972 0 18.093-8.105 18.093-18.078v-184.27H86.613ZM164.016 147.46c16.996 0 30.812-13.835 30.812-30.812 0-16.976-13.816-30.793-30.812-30.793-16.98 0-30.793 13.817-30.793 30.793 0 16.98 13.816 30.813 30.793 30.813Zm0 0"></path><g clip-path="url(#a)"><path fill="#2c3e50" d="M321.004 712.152c0 9.973 8.105 18.075 18.078 18.075 9.977 0 18.098-8.102 18.098-18.075v-91.336c0-23.789 19.351-43.14 43.14-43.14 23.785 0 43.137 19.351 43.137 43.14v91.336c0 9.973 8.125 18.075 18.098 18.075 9.976 0 18.078-8.102 18.078-18.075v-184.27h-158.63Zm0 0"></path></g><path fill="#2c3e50" d="M86.613 329.664h158.63v-2.547l-20.184-20.742c-15.954-15.953-15.954-42.117.117-58.207a40.926 40.926 0 0 1 20.066-11.035v-35.73c0-.735.074-1.489.211-2.2.055-.312.133-.617.23-.926.25-.949.637-1.851 1.137-2.703.118-.21.25-.426.407-.637.406-.597.867-1.175 1.406-1.718l80.742-80.723c7.043-7.058 7.043-18.539 0-25.582-7.059-7.059-18.54-7.059-25.582 0l-80.742 80.723a11.6 11.6 0 0 1-8.18 3.394h-97.89a11.575 11.575 0 0 1-8.415-3.644L32.63 86.805c-7.063-6.95-18.465-6.91-25.465.113-7.062 7.043-7.062 18.523 0 25.582.074.078.152.156.23.234l75.82 80.489.25.25c.118.117.216.234.313.367.114.097.192.21.285.328.176.21.352.426.465.656a.372.372 0 0 1 .137.172c.152.195.27.406.363.602.118.172.215.363.313.539.035.078.074.156.113.23.137.274.25.543.348.813.039.054.058.113.078.191.098.25.191.52.27.793.038.113.078.23.078.348.078.23.132.46.171.691.02.117.059.234.059.367.059.25.078.504.094.774.039.347.058.71.058 1.058v128.262ZM398.41 322.508c16.996 0 30.809-13.817 30.809-30.793 0-16.977-13.813-30.793-30.809-30.793-16.976 0-30.793 13.812-30.793 30.793 0 16.976 13.813 30.793 30.793 30.793Zm0 0"></path><path fill="#2c3e50" d="M569.059 274.754c0-4.82-1.871-9.356-5.286-12.79-3.8-3.78-8.875-5.538-13.875-5.25-.21.02-.441.04-.675.04a18.136 18.136 0 0 0-11.055 5.21l-80.723 80.743a11.578 11.578 0 0 1-8.18 3.379h-97.894a11.58 11.58 0 0 1-8.297-3.492l-76.05-78.16c-3.012-3.008-6.868-4.707-10.864-5.11h-.055c-.214-.02-.406-.039-.617-.039-4.996-.308-10.129 1.445-13.949 5.266-7.043 7.043-7.043 18.52 0 25.582l23.457 24.097 52.73 54.157c.231.23.442.48.637.73.23.29.461.582.653.887.136.176.273.367.367.578.117.176.21.348.308.543.04.059.079.094.079.152v.02c.156.289.289.582.406.887.078.21.172.425.23.656.078.21.156.426.196.656.054.152.093.309.132.461.02.117.04.234.059.328 0 .04.02.098.02.137.054.23.093.46.113.676 0 .093.02.191.02.27.038.366.058.73.058 1.1V504.73h158.629V376.47c0-.23 0-.465.039-.696 0-.23.02-.46.055-.671.039-.235.058-.465.097-.676.078-.465.172-.91.328-1.352.055-.234.133-.445.23-.656.06-.211.157-.426.25-.637.098-.21.196-.426.31-.636.058-.118.117-.25.195-.368.015-.054.054-.093.078-.132.113-.211.25-.426.402-.637.406-.598.871-1.176 1.41-1.719l80.743-80.742c3.418-3.414 5.289-7.95 5.289-12.793ZM560.258 537.086c0 9.973 8.105 18.078 18.078 18.078 9.976 0 18.098-8.105 18.098-18.078V445.75c0-23.785 19.351-43.137 43.14-43.137 23.785 0 43.137 19.352 43.137 43.137v91.336c0 9.973 8.121 18.078 18.098 18.078 9.976 0 18.078-8.105 18.078-18.078v-184.27h-158.63Zm0 0"></path><path fill="#2c3e50" d="M803.004 86.918c-3.414-3.414-7.945-5.305-12.79-5.305-4.823 0-9.359 1.89-12.773 5.305L696.7 167.641a11.6 11.6 0 0 1-8.18 3.394h-97.894c-3.184 0-6.23-1.328-8.43-3.644l-75.918-80.586c-7.062-6.95-18.464-6.91-25.488.113-7.039 7.043-7.039 18.523 0 25.582.098.078.172.156.25.234l75.766 80.434.289.309a11.493 11.493 0 0 1 3.164 7.93v33.202a40.894 40.894 0 0 1 19.87 10.996c7.794 7.793 12.079 18.137 12.079 29.153 0 11.02-4.281 21.379-12.078 29.172l-19.871 19.87v5.868h158.629V201.406c0-1.062.152-2.105.441-3.125.04-.156.078-.328.156-.484.153-.54.368-1.059.637-1.563.078-.152.152-.324.25-.48.078-.133.133-.27.23-.387.079-.156.176-.289.274-.426a11.5 11.5 0 0 1 1.406-1.714l80.723-80.723c7.062-7.063 7.062-18.543 0-25.586Zm0 0"></path><path fill="#2c3e50" d="M637.664 147.46c16.996 0 30.809-13.835 30.809-30.812 0-16.976-13.813-30.793-30.809-30.793-16.98 0-30.793 13.817-30.793 30.793 0 16.98 13.813 30.813 30.793 30.813Zm0 0"></path></svg>