<svg xmlns="http://www.w3.org/2000/svg" width="1080" viewBox="0 0 810 810" height="1080" version="1.0"><defs><clipPath id="a"><path d="M197 587.695h10V612h-10Zm0 0"></path></clipPath><clipPath id="b"><path d="M103.078 705H113v28h-9.922Zm0 0"></path></clipPath><clipPath id="c"><path d="M279 683h10.828v28H279Zm0 0"></path></clipPath></defs><path fill="#2c3e50" d="M121.14 461.348v17.699l-14.855 33.504a22.843 22.843 0 0 0-12.305-3.582h-.152v-47.621H13.531l52.375-86.707L0 380.875l56.52-65.914-47.7.426 64.48-63.395-27.288-2.988V249l61.472-68.477L168.957 249l-27.289 2.992 55.812 54.875-3.726 8.41-35.305-.316 23.363 27.246-15.12 34.102-17.63-1.668 10.594 17.539-30.668 69.168Zm620.114 6.96v76.985h-20.008v-76.984h-58.832l38.371-63.528-48.285 4.567 41.406-48.29-34.941.313 47.238-46.45-19.992-2.187 45.039-50.175 45.035 50.175-19.988 2.188 47.238 46.45-34.945-.313L810 409.348l-48.29-4.567 38.372 63.528ZM616.96 155.958c-12.133 36.996-46.938 63.719-87.988 63.719-51.137 0-92.586-41.45-92.586-92.582 0-49.614 39.023-90.11 88.05-92.473-10.644 13.43-17.003 30.402-17.003 48.867 0 43.477 35.246 78.723 78.726 78.723 10.93 0 21.336-2.23 30.8-6.254Zm-354.738 65.797 263.52 64.152 155.62 229.961a15.37 15.37 0 0 0-3.015 9.156v35.407l-205.032 10.18v-32.262c0-8.262-6.742-15-15-15h-3.949c-8.258 0-14.996 6.738-14.996 15v33.949l-5.418.27Zm-13.047 155.992L152.934 505.11l51.156 62.547 45.086-189.91 75.05 192.598-114.855-2.57 214.016 4.792-171.73-350.812L114.73 530.582l33.172-22.57-2.363-2.903 96.242-127.363ZM90.68 523.992h3.3c4.364 0 7.93 3.57 7.93 7.934v7.375l-.383.261H82.75v-7.636c0-4.364 3.566-7.934 7.93-7.934Zm11.23 20.965v14.54l8.871-20.005 41.246-26.418 44.34 54.41-94.457-2.117v7.203H82.75v-27.613Zm591.88-27.86h3.3c4.363 0 7.933 3.563 7.933 7.926v5.782H685.86v-5.782c0-4.363 3.567-7.925 7.93-7.925Zm11.233 19.958v28.613H685.86v-28.613Zm-250.656-8.184h3.95c5.21 0 9.476 4.266 9.476 9.477v8.3h-22.902v-8.3c0-5.211 4.265-9.477 9.476-9.477Zm13.426 24.031v34.02h-22.902v-34.02Zm0 0" fill-rule="evenodd"></path><path fill="#2c3e50" d="m262.645 739.281-20.262-25.98a29.724 29.724 0 0 1-2.567-.406c-.027-.008-.05-.016-.078-.02-.02.023-.035.05-.05.074-.055.074-.211.004-.293-.082a.335.335 0 0 1-.04-.09c-2-.468-3.882-1.199-5.816-1.879-1.226-.433-2.293.07-2.41 1.399-.106 1.21.348 2.476.785 3.582 1.043 2.629 2.649 5.062 4.418 7.258 1.207 1.496 2.504 2.93 3.621 4.5 1.106 1.547 1.817 3.164 2.457 4.941 1.14 3.164 3.64 5.957 4.082 9.36a21.375 21.375 0 0 1 2.957-1.528l.301-.86.094.696c1.039-.422 2.11-.766 3.207-1.012a21.21 21.21 0 0 1 9.594.047Zm-5.329-6.676c-.293.844-.312.848-.785.016-.023.211-.043.379-.066.555-.324-.395-.637-.774-.899-1.098.684-.383 1.297-.59 1.75.527Zm-9.207 7.149c.305-.313.528-.54.746-.766.028.067.055.137.083.207-.13.524-.278 1-.829.559Zm.54-3.52c-.087-.074-.122-.336-.18-.511.086-.051.168-.137.258-.149.12-.015.246.028.41.051.015.516-.211.84-.489.61Zm1.48-3.132.41-.563c-.312.09-.668.035-.98-.254-2.434-2.25-4.575-4.844-6.016-7.844-.262-.539-.219-1.171.336-1.523.457-.297 1.266-.203 1.523.332.985 2.047 2.262 3.844 3.75 5.484l.364-1.75c.035.036.074.07.109.102l.047 1.973c-.059.02-.117.035-.172.054a29.128 29.128 0 0 0 1.559 1.547c.59.547.367 1.3-.125 1.684 0 .011 0 .023-.004.035.047.039.09.078.132.117-.25.324-.5.652-.75.977-.062-.125-.125-.25-.183-.371Zm.312 5.168c-.02-.106-.035-.215-.054-.32.437-.813 1.09-.348 1.601-.72.016.102.032.204.051.305-.531.246-1.066.488-1.598.735Zm3.54-6.024.101.906c-.336-.086-.676-.168-1.113-.277.39-.242.668-.418 1.011-.629Zm0 0"></path><g clip-path="url(#a)"><path fill="#2c3e50" d="M199.324 610.746c3.352 2.047 7.528.203 7.574-3.558.059-4.43-.921-9.079-2.68-13.13-.894-2.062-2.038-4.117-2.085-6.363.199 3.446-1.367 6.715-2.778 9.864-1.41 3.152-2.73 6.601-2.015 9.976.27 1.266.879 2.535 1.984 3.211Zm0 0"></path></g><path fill="#2c3e50" d="M195.484 735.79c-.097.03-.195.065-.168.054-.152-.313-.242-.504-.312-.649l.965-.023c-.008.066-.016.137-.028.207l2.114-2.469c0-.492-.012-.988.02-1.472.01-.137.163-.235.28-.391-.058.652-.101 1.176-.144 1.68l8.555-10.004c-2.817.359-5.383 1.48-7.703 3.195-1.09.8-2.106 1.7-3.083 2.637.008.004.012.011.02.015-.02.004-.031.008-.047.012-.156.152-.312.3-.469.457-.004.129.024.293.102.516a4.606 4.606 0 0 0-.211-.078l-.023-.309c-.778.773-1.54 1.566-2.297 2.355.035.227.074.454.05.653-.015.113-.289.125-.507.21.054-.206.097-.378.14-.53-.023.023-.047.046-.07.074-1.066 1.105-2.133 2.207-3.254 3.258-1.168 1.097-2.414 2.109-3.52 3.273-1.851 1.945-3.347 4.203-4.132 6.789-.758 2.508-.91 5.117-.864 7.723l14.61-17.082-.024-.102Zm2.149-2.548c-.34.68-.559.781-1.16.426.453-.168.785-.29 1.16-.426Zm-2.16-3.422c.039.047.074.094.113.145-.016.117-.063.25-.04.347.056.239.142.461.216.688-.223.07-.446.164-.672.191-.106.012-.215-.113-.457-.25.312-.414.574-.77.84-1.12ZM164.629 760.816l-1.219.141c.356-.508.746-.348 1.13-.32-1.626-3.512-4.06-6.633-7.2-8.93-.414-.305-.84-.582-1.274-.848-.07.145-.164.297-.226.442-.067-.008-.137-.012-.207-.02-.121-.273-.328-.539-.348-.828v-.05c-3.84-2.114-8.305-2.848-12.656-2.122l-2.906 2.723c-.91 6.285 1.132 13.168 5.699 17.582 4.566 4.418 11.308 6.465 17.555 5.348l3.812-4.461a24.058 24.058 0 0 0-.726-4.625 24.99 24.99 0 0 0-1.434-4.032Zm-6.688-6.773c.11.379.196.687.336 1.191-.363-.496-.644-.886-.933-1.28.293-.716.379.937.597.089Zm-13.058 11.11c.304-.305.527-.524.746-.743l.082.2c-.129.507-.277.968-.828.542Zm.543-3.407c-.086-.07-.121-.324-.184-.492.09-.05.172-.133.262-.145.121-.015.246.024.41.043.016.504-.21.817-.488.594Zm1.234 6.66c0-.12-.008-.324-.015-.726l-.47 1.015c-.015-1.082.903-1.918.04-2.894l.308-.848c.16 1.164.305 2.207.454 3.297l.3-.133.114.89a98.97 98.97 0 0 1-.73-.6Zm14.055-7.133c-.125 2.02-1.258 3.688-2.957 4.743-2.977 1.847-7.598 2.558-10.309-.153-1.015-1.015-1.582-2.465-1.074-3.87.637-1.778 2.54-2.641 4.238-3.098 1.375-.368 2.047 1.738.676 2.105-.793.21-1.644.469-2.289 1.004-.316.266-.504.578-.578.836a.835.835 0 0 0 .34-.133c.015.098.035.2.05.297l-.417.187c.027.301.171.61.41.899.382.465.937.805 1.496 1.023 1.308.516 2.687.38 4.008-.004 1.351-.39 2.836-1.011 3.648-2.23 1.508-2.262-.031-5.172-1.957-6.582-2.328-1.703-6.523-2.735-9.55-1.652 0 .054.003.105.003.156l-.95.285a4.915 4.915 0 0 0-2.19 2.543c-.516 1.324-2.461.277-1.954-1.035 1.395-3.59 5.504-4.805 9.036-4.512 3.308.277 6.753 1.621 8.832 4.313 1.046 1.351 1.593 3.171 1.488 4.878Zm-13.531-4.699c.27.098.464.164.656.235-.035.347-.082.777-.133 1.207.047.035.09.074.133.109-.25.316-.5.633-.75.945-.063-.117-.121-.238-.184-.36.215-.276.426-.558.653-.855-.125-.421-.239-.82-.375-1.28Zm2.562 1.918 1.012-.61.101.876c-.336-.082-.675-.16-1.113-.266Zm2.598-.773c.683-.371 1.3-.574 1.754.508-.297.82-.313.82-.786.015-.027.207-.046.367-.066.54-.324-.384-.637-.75-.902-1.063Zm9.898 5.386c.356-.52 1.293-.46 1.656.106-.515-.035-1.03-.066-1.656-.106Zm1.66 8.157c-.16-.5-.28-.875-.406-1.258l.582-.164c-.058.48-.113.898-.176 1.422ZM235.797 655.93c-.031.218-.215.367-.332.547-.102-.211-.246-.399-.3-.63l-5.704 5.434c.144 1.996.184 3.996.02 5.977.3-.457.554-.942.773-1.446.062-.144.121-.292.18-.44.011-.032.015-.04.02-.048 0-.004 0-.004.007-.02.027-.074.055-.148.078-.226.106-.285.203-.578.297-.867.195-.598.383-1.195.59-1.785.191-.543.633-.875 1.23-.766.34.063.649.38.758.73a.992.992 0 0 1 .156.266c.582 1.469 1.453 2.797 2.211 4.176.18.332.356.668.524 1.008-.028-.266-.055-.524-.078-.778a1.048 1.048 0 0 1 .023-.351c.105-.402.227-.797.34-1.195.222-.059.504-.098.77-.22.042-.019.027-.394.046-.804-.219.254-.324.38-.484.567.023-.266.047-.477.066-.696a1.175 1.175 0 0 1-.824-.277c-.457-.387-.457-1.137-.062-1.563a24.774 24.774 0 0 0 1.609-1.949c.125-.168.246-.332.367-.5l.149-.207c.02-.031.043-.058.062-.09.227-.324.45-.648.676-.972.172-.25.351-.426.637-.532.003-.003.007-.003.011-.003.16-.165.328-.336.485-.5.164.132.285.234.437.355-.055.055-.11.121-.164.191.027.012.059.02.086.032.242.117.453.386.535.64.078.242.074.633-.078.856-.996 1.445-2 2.883-3.191 4.176a.935.935 0 0 1-.176.156c.523-.153 1.035-.473 1.465.398.172-.176.304-.316.433-.453.043.168.137.434.114.477-.114.183-.27.28-.395.441-.11.14-.242.293-.297.496-.113.43-.265.586-.55.528-.47-.094-.778.328-.856 1.09-.137 1.3-.156 1.34-.879 1.257.094.2.191.399.281.598a45.85 45.85 0 0 0 3.239-2.59c-.086-.309-.184-.602-.344-.813.426-.41.594.18.77.47 1.046-.712 2.503.687 1.488 1.597-1.364 1.223-2.805 2.34-4.286 3.398.844 2.223 1.415 4.528 1.852 6.864l6.008-5.235c-.012-.02-.028-.035-.043-.058.008-.09.012-.18.02-.266.101.023.21.047.312.074l5.3-4.613c-.406-3.875-.273-6.215-2.421-9.516-1.938-2.965-5.824-6.238-9.125-6.738l-3.762 3.586a7.862 7.862 0 0 1-.074.762Zm4.691 15.816c.02-.523-.031-1.066.078-1.484.051-.203.395-.18.606-.258 0 .25.004.496 0 .746-.004.684-.281.875-.684.996Zm8.239-5.242c-.247.625-.72.98-1.094 1.453-.04-.09-.082-.18-.125-.266.07-.257.137-.515.23-.875-.34-.113-.648-.21-1.02-.332.262-.672.825-1.09.567-2.183.371-.012.688-.02 1.047-.028.121.727.73 1.372.395 2.23Zm-1.774-3.945c.234-.196.266-.164.277.242.004.062.098.105.13.183.058.141.1.301.152.453l-.114.094a148.14 148.14 0 0 1-1.105-1.156c.305-.129.535-.61.66.184Zm-1.348-.84c-.12.054-.238.11-.375.168.055-.492.278-.64.84-.598.075.758.172 1.52-.218 2.39.054-1.054-.34-1.034-.684-1.199.184-.222.34-.41.496-.593l-.059-.168Zm-3.722-6.02c.07.77.273 1.547.133 1.98-.114.344-.645.274-.985.387-.086-.402-.152-.703-.25-1.168.301-.332.64-.695 1.102-1.199ZM226.375 625.145c2.938 1.433 5.898-1.676 7.172-4.086 2.418-4.575 2.27-10.164.738-15.106-1.531-4.945-4.32-9.387-7.082-13.765a33.04 33.04 0 0 1-1.34 13.511c-1.136 3.59-2.906 7.047-3.195 10.801-.223 2.836.86 7.25 3.707 8.645ZM161.922 752.848c1.27-3.07 3.902-5.368 6.484-7.375 2.75-2.141 5.57-4.09 8.04-6.57 3.066-3.071 5.769-6.477 8.5-9.84 1.702-2.102 3.507-4.067 5.378-5.977.028-.238.031-.5 0-.8-.078-.774-.023-1.575-.015-2.364 0-.117.039-.262.09-.34.308-.473.425-1.047.492-1.652a451.54 451.54 0 0 1-4.067 3.703c-2.941 2.637-5.972 5.18-9.183 7.476-1.461 1.047-2.868 2.051-4.157 3.309-1.226 1.203-2.375 2.484-3.543 3.742-2.261 2.438-4.777 5.078-7.968 6.266-2.223.828-4.27.344-6.223-.555-.133 0-.258.024-.332.188a3.702 3.702 0 0 1-.176-.43c-.984-.488-1.945-1.063-2.898-1.61a1.051 1.051 0 0 1-.434-.445l-5.133 4.813c.012.144.02.3.036.515l-.598.012-.961.902c2.168-.078 4.336.145 6.45.739 4.042 1.136 7.487 3.375 10.218 6.293Zm-11.918-9.766L149.57 742c.262.02.43.035.72.059-.106.37-.177.62-.286 1.023Zm0 0"></path><g clip-path="url(#b)"><path fill="#2c3e50" d="m112.863 705.836-2.379.09c-2.804 1.96-4.597 5.066-5.863 8.238-.84 2.09-1.5 4.3-1.5 6.55 0 4.442 3.223 7.774 4.129 12.13l4.402-.364c-.027-.054-.054-.109-.078-.175-2.707-8.371-3.578-18.727 1.29-26.47Zm0 0"></path></g><path fill="#2c3e50" d="M174.367 673.945c-3.226-2.734-6.738-5.23-9.402-8.465-.906-1.097.969-2.273 1.86-1.19 2.296 2.784 5.198 4.995 8.003 7.28.219-.949.48-1.879.785-2.793-.289.008-.582-.09-.793-.285-1.437-1.324-3.015-2.492-4.304-3.969-.203-.234-.328-.46-.356-.77-.023-.292.11-.573.293-.792.176-.211.496-.344.766-.356.254-.011.62.094.797.293 1.289 1.477 2.867 2.645 4.304 3.97.008.007.012.015.02.023.789-1.84 1.82-3.555 3.16-5.086l-6.41-6.446c-3.836.664-6.184.684-9.336 3.047-1.453 1.098-2.957 2.719-4.113 4.489.132.113.265.222.406.343l-.477.672c-.039-.246-.078-.476-.117-.726-.988 1.578-1.687 3.257-1.816 4.78l15.914 14.606c.14-2.804.336-5.746.816-8.625Zm-.254-11.433c-.488.199-.91.367-1.449.582.64-.989.879-1.086 1.45-.582Zm0 0"></path><path fill="#2c3e50" d="M191.105 651.781c-3.277 5.586-8.238 10.043-11.484 15.653-3.758 6.492-5 14.398-3.41 21.73a16.597 16.597 0 0 1-6.281-7.867c-.735 8.617 3.21 17.144 9.535 22.887a25.073 25.073 0 0 0 1.863 1.527c6.258 4.644 12.059 6.703 19.707 7.719 11.078 1.476 22.3-2.98 29.844-11.801 5.746-6.719 8.61-14.492 7.164-23.215-.293-1.746-.742-3.453-1.293-5.129-.496-.11-.86-.43-1.176-1.004.137-.379.332-.633.543-.789-1.02-2.699-2.281-5.32-3.64-7.867-.586 3.21-2.497 6.16-5.188 8.012 2.29-16.492-2.559-33.848-13.062-46.766-2.579-3.172-5.559-6.23-6.72-10.148.774 4.14 1.141 8.359 1.102 12.57-.015 1.836-.539 4.18-2.355 4.453a44.391 44.391 0 0 0-11.645-20.27c1.836 13.633 3.453 28.442-3.504 40.305Zm-15.867 38.559c-.164-.113-.39-.156-.476-.36-.137-.32-.356-.757.09-1.261.187.48.351.914.52 1.351l-.134.27Zm3.875-2.32c-.144.148-.43-.075-.652-.13 0-.1.004-.202.004-.304.351-.227.703-.45 1.207-.774-.223.508-.344.989-.559 1.208Zm1.903-1.301c-.012.136-.266.218-.422.336-.281-1.125-.281-1.125.386-2.137.024.734.067 1.277.036 1.8Zm55.73-10.774a5.655 5.655 0 0 0-.02.266l-.984.152a67.58 67.58 0 0 0-.207-.988c.461.215.836.39 1.211.57Zm-6.117-1.437c.309.039.66.047.719.758.05.644-.27 1.261-.684 1.41-.187-.293-.469-.531-.539-.887-.098-.508.273-1.309.504-1.281Zm-35.371-.188c-.215.16-.477.348-.738.543-.016-.043-.028-.086-.043-.125.105-.199.21-.394.32-.597a80.02 80.02 0 0 1-.637-.657c.543-.035 1.059-.57 1.098.836Zm-1.121-5.316c.39.293.558.633.308 1.27-.43-.165-.441-.614-.308-1.27Zm-6.614-9.836c.165.035.446.379.442.562-.012.665-.121 1.32-.195 1.98a6.888 6.888 0 0 0-.172-.167c-.18-.04-.371-.043-.543-.129a.61.61 0 0 1-.274-.363c-.12-.469.446-1.95.742-1.883Zm-.816 41.133c.05-.5.106-1 .16-1.496.047-.024.094-.043.14-.067.071.2.231.461.2.582-.094.383.176 1.29-.5.98Zm1.992-14.465c-.207.172-.465.184-.695.297-.238.117-.469.277-.676.402-.012-.422.063-1.055-.058-1.57-.196-.84.023-1.57.027-2.348 0-.312-.098-.62-.121-.937-.016-.278-.051-.727.031-.805.16-.156.406-.2.594-.121.16.066.285.367.472.629l-.484.347c.066.84.316 1.438.793 1.805.09.067.164.332.172.512.008.258-.05.52.012.808a45.91 45.91 0 0 0-.25.665c.03.046.066.093.101.14.14-.21.278-.418.418-.625.028.035.055.07.086.106-.14.238-.254.554-.422.695Zm.473-14.488c-.02-.555.07-1.063-.324-.735-.082.07-.246-.117-.371-.183.02-.106.035-.215.054-.325.117.067.23.16.352.196.156.047.32.047.594.086-.09.285-.168.523-.305.96Zm.156-5.91.438-3.594c.316.61.601 1.148.879 1.707.039.082.046.285.015.37-.219.571-.45 1.126-.75 1.864-.008-.328.004-.43-.015-.508-.047-.187-.114-.363-.172-.543a19.61 19.61 0 0 0-.22.391l-.175.313Zm1.672 3.07-.324-.414c-.164.254-.305.476-.387.601-.281-.175-.496-.312-.715-.445-.004-.074-.008-.148-.015-.219.214.02.449.14.64.043.383-.203.742-.52 1.078-.765-.066.289-.168.718-.277 1.199Zm1.172-1.102c-.055.352-.152.684-.29 1.27-.085-.473-.152-.86-.218-1.242l-.234.23c.16-.379.234-.64.351-.8.07-.09.262-.102.32-.012.07.109.094.382.07.554Zm11.719 19.883a2.547 2.547 0 0 1-.102-.047c.059-.375.117-.754.145-.906.316.039.539.062.8.094.028.133.075.375.125.62l.223-.128c.176.375-.184 1.047-.66 1.316l.117.836a.239.239 0 0 1-.047.02c-.035-.098-.07-.2-.156-.434-.008.38-.016.613-.02.848-.062.004-.125.012-.183.015.008-.253.012-.507.035-.757.031-.387.125-.774.11-1.153-.012-.277-.157-.543-.34-.73l-.047.406Zm1.68-2.387c-.118-.367-.243-.761-.45-1.402.406.117.727.215 1.234.363-.3.399-.511.68-.785 1.04Zm1.558 2.953c.043.735.082 1.356.117 1.922-.406-.144-.676-.238-1.086-.382.328-.52.613-.977.969-1.54Zm-.867 9.235-.739 2.008c-.039-.059-.074-.118-.113-.172-.191-.285-.398-.547-.574-.864-.082-.148-.098-.394-.145-.597.121-.067.243-.13.329-.176-.153-.289-.305-.668-.512-.937-.086-.11-.281.015-.535.046l.449-.789c-.035-.695.242-1.136.71-1.55.274-.243.446-.848.61-1.344.106-.317.11-.73.172-1.223-.207-.336-.207-.336-.726.063-.32-.242-.57-.426-.817-.606-.004-.039-.004-.078-.008-.113.453-.012.91-.024 1.387-.035.133-.258.316-.61.496-.961.063.039.125.082.191.12.063.83.13 1.657.2 2.571-.274-.136-.563-.418-.594.29 0 .042.09.09.098.152.023.136-.008.343.039.41.187.273.398.488.593.75.254.351.422.172.586-.188.036-.074.145-.05.223-.074.008.262.012.527.02.79-.082.558-.153 1.124-.254 1.675-.13.707-.352 1.312-.797 1.726l-.29-.972Zm.797 11.316c-.036-.035-.07-.07-.106-.11l.305-1.394c.176.328.336.63.523.985l-.722.52Zm10.757-1.922c-.406.856-1.015.797-1.726.793.144-.863.246-1.656.406-2.414.203-.945.965-.422 1.219-1.273.37.96.547 1.95.101 2.894Zm-.441-4.629c.04-.046.074-.093.113-.144.157.207.43.406.442.625.011.336-.153.684-.246 1.039-.121-.605-.215-1.063-.309-1.52Zm4.902-.648c.282.121.524.227.883.383-.441.36-.758.683-.883-.383Zm5.715-16.25c.172.121.469.375.461.512-.027.386-.125.922-.293 1.074-.418.371-.648-.309-.875-.648.094-.692.235-1.27.707-.938Zm-3.61 14.004.223-.035c.051.336.145.672.145 1.004-.004.5-.227.535-.473.53-.14 0-.28.138-.422.216.051.133.102.27.239.617l-.992-.164.011-.242c.399-.32.797-.637 1.207-.969l.063-.957Zm-4.331-48.524c.129.07.265.149.41.227-.207.836-.316.895-.688.352.106-.223.192-.399.278-.578Zm-2.692 27.254c.16.07.29.395.43.614-.031.11-.066.222-.098.332-.23-.121-.46-.239-.843-.438.242-.258.402-.558.511-.508Zm-1.297 22.008c2.653-2.668 5.02-5.992 5.528-9.804.066-.497.66-.793 1.105-.688.52.117.758.613.692 1.106-.422 3.156-2.043 6.054-4.067 8.53l.164.122c-.02.277-.035.523-.05.77a.751.751 0 0 0 .05.066c-.082.066-.058.058-.058.043.004-.035.004-.074.008-.11l-.395-.55a30.58 30.58 0 0 1-1.621 1.765c-.836.84-2.191-.406-1.356-1.25Zm-10.843-48.254c.176-.156.285-.25.441-.386.067.445.125.816.184 1.191-.125 0-.246.004-.367.008-.012-.051-.02-.102-.032-.153.059-.078.118-.152.203-.27-.128-.116-.238-.214-.43-.39Zm-.102-11.957c.36.188.602.32.965.512-.48.39-.723.242-.965-.512Zm.543-3.5-1.074.852c.176-1.11.398-1.297 1.074-.852Zm-.512 4.57c-.289.165-.554.325-.828.442-.023.008-.16-.328-.136-.418.136-.512.671-.55.964-.023Zm-2.18 21.938c.04.922-.437 2.375-.859 2.57.223-.879.274-1.918.86-2.57Zm-2.6 12.742c1.206 2.246 1.76 4.672 2.46 7.078 1.77-2.687 2.734-5.886 3.293-9.027.668-3.762.758-7.644.274-11.434-.11-.828.992-1.203 1.542-.714 1.918 1.695 3.38 3.824 4.473 6.125 2.14 4.511 3.004 9.617 3.024 14.59.02 4.597-.637 9.355-2.559 13.566-.492 1.082-2.117.21-1.625-.863.957-2.102 1.527-4.36 1.895-6.633.738-4.602.613-9.442-.415-13.992-.761-3.399-2.07-6.801-4.257-9.532a39.955 39.955 0 0 1-.602 9.559c-.726 3.937-2.11 7.887-4.703 10.992-.457.55-1.34.281-1.555-.344-.734-2.14-1.16-4.37-1.953-6.484-1.277 3.297-2.633 6.566-3.55 9.984-1.079 4.016-1.653 8.543.398 12.36.558 1.043-.992 2.039-1.555.992-4.457-8.29.848-18.047 3.742-25.938.243-.664 1.254-1.066 1.672-.285Zm-3.102-4.574.277.082c-.066.64-.129 1.281-.207 2.074-.54-.945.137-1.449-.07-2.156Zm-.07 2.66c-.02.313-.036.625-.055.942-.036.492-.262 1.004.09 1.457.039.05.062.234.039.293-.2.468-.418.922-.633 1.379 0 .003-.047-.051-.055-.06.176-1.347.348-2.683.523-4.015.032 0 .06 0 .09.004Zm-.56-12.05c.052 0 .102-.004.157-.004.02.75.035 1.5.055 2.253-.055-.003-.106-.003-.157-.003-.02-.75-.039-1.497-.054-2.247Zm.2-28.266c.02.496.05.988.05 1.48 0 .38-.042.754-.062 1.13l-.125.023c-.015-.23-.039-.465-.047-.696-.011-.308 0-.62-.015-.93-.016-.331-.055-.667-.086-1 .097-.003.191-.003.285-.007Zm-.711 48.863c-.066-.035-.129-.066-.191-.101l.257-1.993c.075.032.149.063.223.098-.098.664-.195 1.328-.289 1.996Zm0 0"></path><path fill="#2c3e50" d="M178.48 645.578c.098-.308.266-.555.403-.828.023.04.047.078.07.121-.035.32-.055.656-.121.957-.035.14-.164.219-.25.328.273.27.559.535.867.782.461.375.969.714 1.5.988.348-.125.696-.246 1.04-.367.015.109.03.214.042.324-.246.07-.488.137-.734.203.777.348 1.61.547 2.457.488 1.871-.129 3.414-1.48 4.293-3.176-.137-.464-.047-1.105-.371-1.48.242-.145.398-.238.566-.336l-.074 1.344c.055-.035.098-.067.14-.094.137-.328.25-.66.333-1 .582-2.355.152-4.832-.278-7.223-.074-.418-.144-.84-.21-1.265-.524 1.086-1.071 2.14-1.641 3.273-.075-.613-.133-1.129-.211-1.832-.004 0-.133-.097-.262-.2l.035-.17c.215.132.426.269.567.355.257-.133.515-.149.66-.372.238-.367.402-.87.594-1.32.054-.121.105-.246.16-.371-.254-1.656-.504-3.34-.993-4.894-1.132.289-1.617 2.714-2.285 3.769-.207.328-.464.668-.84.742-.609.114-1.082-.515-1.343-1.078-3.785-8.047.722-18.394-3.711-26.105.351 4.632-.817 9.234-2.055 13.71-1.238 4.477-2.57 9.004-2.562 13.649.007 4.25 1.32 8.691 4.312 11.648-.039-.195-.137-.445-.098-.57Zm7.997-2.133.328 1.578-.14.082c-.13-.52-.259-1.039-.384-1.562.067-.031.13-.066.196-.098Zm-2.254 1.352-.184 1.484c.04-.008.078-.015.117-.02-.21.212-.426.423-.617.61.086-1.316.27-1.914.684-2.074Zm-.953.43.093.238c-.304.347-.605.695-.91 1.043a14.2 14.2 0 0 0-.148-.363c.324-.31.644-.614.965-.918ZM113.492 731.012c.305-.356.824-.18 1.024-.832.27.672.433 1.36.332 2.039l31.187-2.567c-.914-1.129-1.965-2.14-3.2-2.918-3.038-1.922-6.632-2.23-10.144-2.238-4.07-.004-8.12.23-12.171-.281-1.41-.18-.903-2.332.5-2.153 2.421.305 4.867.325 7.304.29 3.832-.059 7.805-.325 11.543.703 3.696 1.011 6.586 3.343 8.758 6.386l.938-.078.558-.699.035.652 1.617-.132c.145-.118.293-.168.454-.04l11.84-.972-10.602 9.945c.793.461 1.594.973 2.422 1.418a.104.104 0 0 0 .023-.02c.016.016.024.036.035.051.801.43 1.63.793 2.5.985 1.828.402 3.465-.375 4.957-1.38 2.641-1.776 4.692-4.3 6.852-6.605 1.11-1.175 2.254-2.32 3.5-3.351 1.39-1.153 2.937-2.113 4.379-3.203 4.976-3.758 9.48-8.074 14.066-12.285a21.536 21.536 0 0 1-2.87-1.051c-1.587-.48-3.09-1.16-4.43-2.149a1.148 1.148 0 0 1-.297-.097c-4.622-2.285-8.297-6.176-11.125-10.422-2.856-4.29-5.012-9.153-6.125-14.192a1.018 1.018 0 0 1-.024-.285l-3.723-1.172c.051.57-.277 1.18-1.015 1.207-3.117.133-6.23.356-9.352.422-.328.008-.656.012-.984.016.086.074.176.148.266.219.113.093.23.172.335.28a.833.833 0 0 1-.039.247c-.148-.027-.312-.02-.437-.137-.102-.093-.156-.34-.23-.515.019-.032.042-.063.062-.094-.797.008-1.59 0-2.387-.02-.054.559-.133 1.082-.617 1.07.07-.085.14-.167.23-.28a58.23 58.23 0 0 0-.343-.626c.015-.066.031-.125.043-.187-3.532-.133-7.032-.613-10.371-1.781.082.617.203 1.203.086 1.554-.114.332-.649.266-.985.371-.09-.386-.152-.68-.254-1.128.25-.258.524-.543.864-.903a23.557 23.557 0 0 1-1.504-.594c-1.946-.847-3.735-2.007-5.688-2.835-1.781-.754-3.625-.903-5.5-.696-.21.227-.426.453-.629.684-1.488 1.687-2.851 3.543-3.605 5.66-1.5 4.187.426 8.406-.188 12.809l21.184 5.644-27.047.992c-.035.117-.09.23-.172.34-5.16 6.973-4.273 17.043-1.836 24.934Zm19.238-1.594c.172.16.305.289.579.547-.274.176-.524.488-.645.379-.316-.282-.121-.63.066-.926Zm-12.812-1.856c.398-.312.797-.62 1.207-.94l.066-.93c.075-.008.149-.02.223-.032.05.324.14.653.14.973-.003.484-.226.52-.472.515-.14 0-.281.133-.422.207.05.13.102.262.235.598-.383-.062-.688-.11-.989-.156l.012-.235Zm.043.676c-.438.352-.754.664-.883-.37.281.12.524.222.883.37Zm33.156-4.093c.176-.082.305-.145.434-.211.129-.063.262-.125.402-.192.086.332.172.656.258 1-.375.086-.777.278-1.094-.597Zm1.965 4.113-1.172.469c-.039-.094-.074-.188-.113-.286.23-.406.43-.898.707-1.18.09-.085.387.384.586.602 0 .13-.004.262-.008.395Zm14.7-3.43c4.273-4.176 8.46-8.488 13.335-11.98 1.16-.828 2.344 1.039 1.192 1.863-4.723 3.379-8.766 7.57-12.903 11.613-1.015.992-2.644-.5-1.625-1.496Zm-13.13-32.59c.028-.36.067-.87.121-1.531.493.512.793.047 1.098-.488.047.625.102 1.097.113 1.57.008.219-.027.508-.113.64-.277.434-.59.81-.887 1.212-.148.199-.289.406-.359.504-.23-.594-.406-1.063-.629-1.645.164-.066.379-.148.656-.262Zm-.086 2.504.047-.195c.293-.004.594-.055.887.015.055.012.082.473.137.797.047.008.136.02.226.032l.024 1.035c-.407-.07-.82-.149-1.239-.223a26.395 26.395 0 0 0-.035-.219c.364-.437.25-.843-.047-1.242Zm.172 6.914c.032-.023.098-.086.172-.133.469-.308 1.059.325 1.043 1.153-.004.152-.125.308-.21.433-.075.114-.165.211-.259.278-.175.129-.355.226-.535.34-.086-.434-.191-.86-.254-1.301-.03-.211.024-.45.043-.77Zm-3.09-.172c.098.059.184.184.278.278-.082.097-.16.23-.254.289-.184.11-.379.176-.692.316l.211-.789a51.6 51.6 0 0 0-.632.692c-.504-.711-.504-.711.187-1.274.36.192.633.328.902.488Zm-.05 4.598c-.582 1.395-.575 1.36-1.473.93-.434-.211-.895-.274-1.344-.403-.008-.074-.011-.144-.02-.218.454-.41.887-1.082 1.36-1.149.453-.062.945.512 1.477.84Zm-4.2-15.047c.227-.258.489-.433.778-.515.207-1.22.765-.883 1.351-.93.813-.067 1.086.824 1.465 1.617.035.074-.047.395-.125.5-.152.2-.328.379-.512.473-.175.086-.39-.016-.562.086-.555.34-.945-.008-1.074-.993-.028-.195-.106-.375-.203-.714-.34.441-.637.82-1.036 1.34-.042-.442-.128-.81-.082-.864Zm.18 10.164c.012.07.027.14.043.211-.14.07-.281.137-.457.223.016.176.04.387.066.652l-.742.188c.008-.227.016-.453.028-.727-.063.027-.133.063-.293.137l.21-.602c.141.157.282.317.481.543-.027-.23-.047-.367-.062-.504.253-.043.488-.082.726-.12Zm-1.465-3.511c-.023-.114-.058-.325-.105-.579.304-.304.59-.34.863.2-.297.152-.527.261-.758.379Zm-4.328-7.239c.238-.187.266-.156.281.235 0 .062.094.105.125.18.059.136.106.288.153.437-.035.031-.074.058-.114.09-.34-.344-.683-.692-1.101-1.118.3-.125.535-.59.656.176Zm-6.851-4.629.437.344c-.14.14-.289.387-.457.43-.168.039-.363-.117-.559-.192.188-.191.391-.39.579-.582Zm.086 1.172c.12.074.171.496.156.848-.168-.195-.34-.39-.621-.707.011.535.02.8.027 1.172l-.402-.297c.172-.66.324-1.328.84-1.016Zm-4.258-4.515c-.04.554-.047 1.078-.125 1.566-.035.215-.219.355-.332.531-.11-.219-.27-.406-.317-.652-.117-.629.223-1.309.774-1.445Zm-2.68 5.882c.129-.53.762-1.03 1.328-.828 3.735 1.364 7.477 2.727 11.274 3.91.023-.914-.352-.914-.684-1.066l.5-.574c-.02-.055-.043-.11-.063-.164-.12.054-.238.105-.375.168.055-.48.282-.625.84-.582.075.71.16 1.422-.183 2.226.738.23 1.476.453 2.219.664.074 0 .148 0 .226-.004.004.028.012.051.02.078.898.254 1.796.504 2.699.731 1.379.348.883 2.504-.5 2.152-.66-.168-1.32-.343-1.977-.523-.261.437-.633.746-.941 1.125a7.783 7.783 0 0 1-.125-.258c.066-.246.137-.496.23-.844-.343-.11-.652-.203-1.02-.32.028-.074.063-.14.098-.21-4.3-1.278-8.523-2.817-12.738-4.356-.558-.204-.984-.688-.828-1.325Zm17.75 9.196c-.367.523-.602.84-.789.043-.027-.114-.168-.157-.258-.23l.024-.196c.308.117.617.23 1.023.383Zm-2.789 6.207c-.023.023-.047.054-.07.07-.293.18-.723-.059-.82.738-.008.067-.227.047-.348.07-.125.02-.246.04-.36.235.246.098.493.195.735.293a8.805 8.805 0 0 1-.02.32c-.379.008-.754.016-1.133.028-.632-.606-.316-1.59-.363-2.461.438.125.828-.344.879-.856.187-.254.305-.433.43-.578.136-.156.324-.453.425-.387.43.274.442-.105.375-.664.434.125.887.02.883 1.063-.004.195.176.398.278.605l-.465.93c-.153-.02-.332-.047-.567-.078.059.297.098.484.141.672Zm-1.121 7.441c-.05.461-.102.922-.149 1.383-.062-.012-.12-.024-.183-.035-.156-.477-.727-.723-.332-1.512.254-.512.441.106.664.164Zm-9.715-10.332c-.852.067-1.371-.238-1.805-1.004.493-1.308 1.711-1.242 1.856.125-.117.086-.242.176-.395.285l.344.594Zm1.79-8.016c-.11.141-.243.286-.298.485-.117.414-.27.562-.554.508-.47-.09-.774.32-.856 1.054-.14 1.29-.152 1.301-.922 1.215-.05-.004-.097.098-.156.156-.059-.535-.11-.996-.152-1.457a.986.986 0 0 1 .023-.34c.106-.39.227-.773.34-1.156.223-.054.504-.093.77-.21.042-.02.027-.383.05-.782-.222.246-.328.367-.488.547.031-.313.055-.555.078-.813.703.168 1.43-.792 2.012.344.172-.172.304-.304.433-.437.043.16.137.418.114.46-.114.176-.27.274-.395.426Zm1.523 1.149c.082.574.152 1.05.238 1.633-.758-.258-.684-1.606-1.168-2.235.547-.507.664.586.93.602Zm-.204 5.344c.016-.508-.03-1.032.079-1.438.05-.2.394-.176.605-.25 0 .238.004.48 0 .719-.004.664-.281.848-.684.969Zm5.059.859c.004-.086.012-.172.016-.258.398.094.797.184 1.203.281-.14 1.122-.461 1.094-1.219-.023Zm-4.012 11.352c.012-.426-.222-.97.215-1.196.07-.035.086-.32.129-.492.094.176.172.371.277.52.102.152.246.226.344.386.207.348.399.727.692 1.274l-1.422 1.277-.012-.558-.461.14-.047-.156.34-.48c-.012-.044-.02-.087-.031-.133-.168.066-.34.129-.508.191-.031-.293-.031-.293.484-.773Zm-2.148.554c-.008.106-.016.211-.02.313-.207-.059-.41-.117-.656-.192.254-1.007.465-.246.676-.12Zm-17.43.797c4.008-1.441 8.176-1.344 12.317-.617 3.375.59 6.718 1.55 10.156 1.73 1.746.09 3.539.012 5.23-.449 1.504-.406 2.926-1.05 4.336-1.71-.289-.13-.586-.259-.906-.4.25-.5.39-.874.586-1.155.226-.329.476-.426.734.066.133.254.348.398.563.629-.008.133-.012.273-.02.414.13-.063.254-.121.383-.18 3.055-1.406 6.41-2.058 9.383-3.66 2.71-1.465 4.512-3.601 5.062-6.68.254-1.398 2.407-.894 2.153.5-.649 3.633-2.899 6.38-6.121 8.09-3.125 1.66-6.602 2.387-9.801 3.856-1.945.89-3.88 1.894-5.965 2.41-1.8.445-3.68.574-5.527.476-3.645-.19-7.164-1.16-10.746-1.785-3.762-.66-7.508-.738-11.145.567-1.344.484-2.008-1.625-.672-2.102Zm-3.465 12.102c.32.226.637.453.97.691-.017.266-.032.508-.052.742.02.024.032.043.051.067-.082.062-.059.054-.059.043a1.03 1.03 0 0 0 .008-.11c-.343-.465-.656-.883-.965-1.297l.047-.136Zm-1.027 3.351c.152.2.43.39.437.602.016.324-.152.664-.246 1.004-.12-.582-.214-1.024-.304-1.469l.113-.137Zm0 0"></path><path fill="#2c3e50" d="M138.008 681.531c1.55.676 3.172 1.164 4.824 1.512-.195-.285-.246-.703-.289-1.29-.047-.632-.023-1.222-.086-1.827l.137-.024c.015.254.035.508.054.727.372.367.754.676 1.082 1.105.098.133.063.61.036.91-.012.133-.16.243-.254.329a2.94 2.94 0 0 1-.207.164c.437.086.882.16 1.324.23.402-.68.43-.68.883-.465l-.09.543c-.067 0-.137 0-.203.004.222.028.445.059.672.086 4.918.559 9.89.168 14.824-.09l-4.95-1.562c-.042 1.215-.792.668-1.144 1.101-.055-.195-.098-.351-.16-.562-.05.101-.098.152-.094.203.004.676-.222.742-.558.64-.235-.074-.477-.05-.75-.074.293-.664.824-1.12.558-1.968l.004-.016-20.172-6.367c-1.949.535-3.695 1.574-5.273 2.86 1.406.1 2.789.421 4.148.991 1.953.829 3.742 1.993 5.684 2.84ZM198.691 714.8c-.011-.003-.023-.003-.035-.007a32.007 32.007 0 0 1-3.847-.461c-1.23 1.121-2.454 2.25-3.68 3.379l-.246 2.64c.52.762.496.926-.106 1.575-.113.12-.144.492-.172.761-.003.043-.007.083-.007.122.515-.524 1.039-1.047 1.57-1.567a2.694 2.694 0 0 1-.145-.515c.48-.672.688-.79.946-.262.234-.227.46-.453.695-.676 1.711-1.629 3.41-3.273 5.027-4.988ZM245.77 751.43c.046.039.078.066.12.097.048-.062.09-.129.137-.191-.074.027-.156.059-.257.094ZM237.34 754.61c.023-.633-.258-1.305.285-1.891.023.265.047.511.07.761.325-1.18.754-2.332 1.305-3.437.203-.398.418-.79.645-1.172-.012-.012-.028-.02-.04-.031-2.945-2.758-4.894-6.211-6.402-9.914-.363-.89-.691-1.793-1.027-2.684-.094.043-.2.078-.281.133-.024-.078-.043-.156-.067-.23-.066.156-.129.312-.187.453-.043-.016-.07-.02-.07-.024-.012-.379-.02-.761-.032-1.156.09-.055.176-.113.258-.164a33.29 33.29 0 0 0-.527-1.27c-.028.024-.06.043-.09.067-.024-.051-.043-.102-.067-.153.02-.039.043-.082.063-.125a19.554 19.554 0 0 0-.742-1.488c-.172-.02-.395-.34-.684-.582-.125.098-.375.285-.656.5a74.8 74.8 0 0 0-.098-.715l.844-.18c-.324-.495-.676-.98-1.082-1.437-1.942-2.191-4.024-4.156-5.692-6.582-1.558-2.273-3.035-4.625-4.87-6.691-.731-.82-1.567-1.672-2.5-2.38-4.641 1.231-9.497 1.348-14.313.891-2.262 2.528-4.73 4.868-7.184 7.215-1.46 1.395-2.906 2.805-4.285 4.281-1.457 1.563-2.777 3.25-4.121 4.91-2.664 3.286-5.336 6.579-8.371 9.528-2.422 2.344-5.172 4.227-7.824 6.289-2.375 1.852-5.032 4.074-5.903 7.078-.039.133-.101.246-.168.344 2.735 3.594 4.532 7.941 5.188 12.465l6.36-7.434c.081-.176.14-.305.179-.383.062-.011.121-.027.18-.039l3.746-4.383c-.254-.164-.442-.44-.457-.835-.133-3.493.011-7.082 1.222-10.395 1.055-2.879 2.848-5.371 5.032-7.504 1.195-1.168 2.492-2.226 3.687-3.398 1.152-1.13 2.258-2.301 3.379-3.457 2.168-2.246 4.41-4.493 7.05-6.18 2.747-1.754 5.852-2.734 9.114-2.82a1.1 1.1 0 0 1 .48.086l3.114-3.645 23.058 37.406c.223-.23.387-.031.512.235.102.222.133.539.219.949l1.398 2.265c.067-1.039.207-2.066.426-3.082-.023.004-.047.004-.074.004Zm-66.996 7.53c-.469.012-.934.02-1.403.032v-.305c.47.067.934.137 1.403.207v.067Zm12.918-24.995-.016-.692c.215-.008.422-.012.629-.015.008.05.012.105.02.156l-.633.55Zm8.797-8.758c-.063-.465-.051-.98-.172-1.399-.051-.176-.36-.152-.535-.215.222-.648.222-.648.855-.168.016.758.035 1.461.055 2.258-.082-.187-.18-.32-.203-.476Zm.902-1.04c.101-.21.156-.32.226-.472-.14-.02-.273-.035-.402-.05.27-.563.348-.524.778.41l-.602.113Zm23.02-3.929c-.239-.348-.473-1.652-.38-2.082.16-.75.41-.79 1.012-.055-.207.703-.422 1.422-.633 2.137Zm12.273 10.797c.434.101.871.2 1.305.3 0 .075-.004.15-.008.223l-1.313-.187c.004-.114.008-.223.016-.336Zm1.394 4.781c-.222.356-.277 1.016-.714 1.008-.184-.004-.364.324-.594.547.18.496.078.691-.387.582.156-.367.274-.637.387-.91.168-.407.36-.793.5-1.227.137-.437.496-.683.726-.387.055.07.106.348.082.387Zm1.407-4.332c.015.274.03.508.043.719-.25.183-.477.347-.7.512-.05-.368-.05-.368.657-1.23Zm-.825 5.816c.325-.214.547-.367.805-.539-.043-.148-.086-.289-.164-.558.18.031.3.05.426.074-.117.926-.309 1.543-1.067 1.023Zm1.063.875c-.258-.523.004-1.625.52-2.011l-.52 2.011Zm3.578 7.59c-.43-.758-.605-.101-.805.336l-.129-.36c.266-.359.528-.722.793-1.085l.153.117-.012.992Zm-.953-5.113c.348-.523.61-.914.867-1.309.028.051.055.098.078.149-.039.23-.074.46-.113.691.145.02.293.04.441.063.075.851-.168.976-1.273.406Zm0 0"></path><path fill="#2c3e50" d="M249.516 765.297c-.383.469-.516.285-.586-.39-.047-.485-.239-.653-.516-.15l.082-.827 1.73.726c.098.418.212.883.344 1.426-.226.031-.507.066-.86.11.067.238.13.437.18.62 2.938-.113 5.844-.824 8.426-2.152-.023-.574-.113-1.219.547-1.152-.011.289-.027.578-.043.879.485-.266.957-.551 1.414-.864 4.582-3.14 7.723-8.285 8.54-13.773-.067.117-.208.215-.31.277-.25.149-.51.246-.866.41-.036-.101-.125-.37-.22-.636-.07.14-.132.37-.218.394-.082.02-.187-.172-.285-.265.059-.098.133-.18.172-.297.047-.153.078-.328.09-.504.011-.176-.055-.422-.008-.524.14-.293.305-.593.496-.77.16-.148.387-.206.563-.14.07.028.117.5.125.774.007.355-.032.715-.055 1.242.156-.547.265-.934.402-1.399-.015-.058-.074-.269-.187-.69.218.16.359.233.468.343.012-.192.028-.383.032-.57l-1.73-2.223c-.036.289-.071.578-.11.91-.16-.516-.281-.902-.406-1.3.05-.012.105-.032.171-.048l-1.867-2.394a18.665 18.665 0 0 0-4.347-1.242c-3.547-.551-7.243-.024-10.54 1.406l.06.453c.03-.012.151-.066.3-.133.043.328.078.606.117.918-.254-.215-.476-.406-.73-.62a22.14 22.14 0 0 1-.012-.5c-.047.019-.098.038-.145.062l-.332.734c0-.211.028-.414.075-.61-1.461.7-2.836 1.575-4.067 2.618-4.531 3.836-6.683 9.531-6.191 15.402.011.152-.008.29-.043.414l2.687 4.36c2.446.878 5.086 1.285 7.715 1.222a5.292 5.292 0 0 1-.062-1.527Zm5.476-1.488c-.215-.262-.375-.579-.558-.633-.145-.043-.317.234-.52.406l.035-.937c-.082-.141-.195-.344-.347-.606.363-.008.644-.035.918-.012.09.012.183.153.265.25.102.125.2.266.348.47-.024.179-.067.5-.14 1.062Zm.344-2.246c.316-.653 1.156-.481 1.61.425a287.07 287.07 0 0 0-1.61-.426Zm3.46-7.043c-.042-.364-.062-.5-.097-.782-.101.274-.168.442-.262.688a90.855 90.855 0 0 0-.109-.567c-.074.07-.156.153-.3.29-.051-.313-.141-.57-.126-.801.055-.746.133-1.489.243-2.215.035-.235.19-.414.293-.617.12.187.285.336.359.566.336 1.059.262 2.125 0 3.438Zm3.657 3.007c-.004-.12-.008-.246-.015-.367.277-.008.55-.015.824-.02a.86.86 0 0 1 .398.083c-.402.144-.797.484-1.207.304Zm.442-4.629.046-.226.727.172c.004.066.008.285.02.668-.293-.227-.543-.418-.793-.614Zm-13.48-8.52c-.142.485-.274.95-.411 1.411-.024-.016-.047-.031-.07-.043l-.036-1.43c.215.024.372.043.516.063Zm-3.556 4.165c.16-.148.344-.277.524-.293.39-.031.668-.219.613-1.125.063.055.125.105.191.156-.015.313-.03.621-.05 1.078.437-.191.91-.394 1.383-.601.015.07.03.137.046.203.051-.211.102-.418.172-.695.094.117.227.199.246.324.028.195.024.555-.043.613-.183.164-.402.219-.609.305-.46.183-.941.285-1.375.578-.21.144-.336.64-.5.98-.043-.023-.082-.05-.125-.074.027-.281.059-.562.09-.875-.149.059-.293.156-.438.153-.086 0-.23-.145-.246-.258-.015-.145.047-.399.121-.469Zm-5.511 10.691-1.078-.367c.09-.254.214-.601.367-1.023l.02.761.726.383c-.008.082-.024.164-.035.246Zm.68 1.266.07-.516c.52-.273.972-.515 1.43-.754.015.086.03.172.05.258-.52.282-.816 1.387-1.55 1.012Zm4.699-8.73c-.082-.09-.168-.192-.286-.325.27-.644.418-.758.813-.402.05-.063.098-.133.148-.195 2.559-3.172 6.399-4.926 10.438-5.02 3.035-.07 7.226.535 7.238 4.422.004 1.422-2.207 1.516-2.21.09-.005-2.805-4.45-2.438-6.325-2.227-2.086.235-4.035 1.11-5.66 2.403.012.027.023.054.031.082-.234.289-.476.836-.7.797a.666.666 0 0 1-.222-.086c-.398.386-.777.793-1.117 1.234-1.395 1.8-2.902 4.934-.781 6.73-.04-.168-.078-.336-.117-.515.535-.281 1.12-.594 1.71-.903-.375.696-1.062.774-1.28 1.66 1.874 1.262 4.75.66 6.265-.89a7.75 7.75 0 0 0 .652-.766 1.224 1.224 0 0 1 .285-.89l.082.367c.887-1.371 1.48-3.149-.218-3.828-1.32-.524-.274-2.473 1.035-1.95 4.094 1.63 1.758 6.825-.582 8.919a7.546 7.546 0 0 1-2.383 1.41c.082.226.14.504.168.836-.024.03-.055.101-.07.09-.383-.258-.75-.594-1.196-.426-.03.008-.07-.059-.113-.157-2.02.403-4.184.032-5.754-1.343-2.871-2.516-1.73-6.352.149-9.117Zm10.441-1.016c-.023.117-.113.262-.184.27-.289.038-.578.027-.98.038.281-.343.516-.628.754-.914.222-.117.586-.23.41.606Zm-6.996 2.793c-.2.148-.402.3-.684.508.52-1.157.52-1.157.684-.508Zm5.016 1.898.19-1.113c.204-.062.415-.133.622-.2.023.044.05.087.074.13l-.762 1.347-.125-.164ZM280.781 709.969c1.84-8.434 3.078-19.707-3.906-26.153l-21.91.375c-.012.293-.028.598-.04.914-.573-.257-1.155-.523-1.823-.828.007-.02.015-.035.023-.054l-6.055.105-.117 1.106c-.058-.012-.121-.028-.18-.04-.117-.37-.472-.609-.468-1.05l-3.348.058c.074.145.152.297.246.473-.426.395-.906.844-1.422 1.32a54.75 54.75 0 0 1-.015-.574c-.153.047-.305.094-.461.14-.016-.05-.032-.105-.047-.16.113-.163.226-.328.34-.496-.008-.043-.02-.09-.028-.136-.172.066-.343.133-.511.195-.032-.289-.024-.305.425-.738l-1.605.027c-.004.55-.04 1.102-.086 1.649.012.086.012.18 0 .277-.02.137-.047.273-.07.41a23.105 23.105 0 0 1-1.325 5.422c-.097.258-.203.512-.304.762-.207.68-.426 1.355-.676 2.02-3.11 8.359-10.461 15.937-19.063 18.636.465.43.918.875 1.336 1.344 1.946 2.187 3.532 4.636 5.18 7.043.82 1.195 1.684 2.336 2.672 3.39 1.031 1.106 2.129 2.14 3.102 3.293 2.37 2.805 3.304 6.215 4.664 9.551 1.328 3.258 3.046 6.3 5.59 8.758a20.41 20.41 0 0 1 3.73-3.77 1.07 1.07 0 0 1-.29-.687c-.132-2.074-1.429-4.035-2.386-5.82-.492-.922-.976-1.852-1.387-2.817-.425-1.008-.683-2.07-1.195-3.047-1.781-3.383-4.723-5.992-6.828-9.164-1.57-2.363-3.05-5.066-3.516-7.894-.129-.774-.148-1.579.016-2.336-.004-.004-.004-.004-.008-.004-.02.066-.07.21-.152.46-.238-.406-.485-.82-.703-1.195l1.152-.793c.04.137.082.278.125.418a3.73 3.73 0 0 1 .219-.351c1.078-1.496 2.93-1.785 4.59-1.18 1.648.598 3.273 1.203 4.964 1.645.012-.035.028-.07.04-.106.242.04.558-.113.722.301.016 0 .031.008.047.012.113.023.23.039.348.062l-1.266-1.617 41.582 1.164c.027-.105.055-.215.078-.32Zm-37.148 32.328.137-.711.238 1.273c-.48.192-.727-.078-.774-.984.153.164.258.277.399.422Zm-3.32 1.523.597.653c-.508.328-.863.965-1.465.632l.868-1.285Zm-1.555-8.625c.187-.054.383-.027.605-.035-.054.422-.093.707-.144 1.125-.203-.242-.39-.441-.555-.683-.023-.036.043-.391.094-.407Zm-2.914-3.633c.062.368.12.743.207 1.27-.313-.363-.567-.66-.91-1.055.297-.09.488-.152.703-.215Zm-2.184-.37c-.187-.465-.222-.422 0-.637.184.175.309.394.399.367.57-.184.445.644.504 1.07.078.606-.282.442-.458.5-.242.078-.5.028-.847.04.234-.184.426-.243.437-.364.035-.316.063-.742-.035-.977Zm-6.035-7.883c-.367-.075-.734-.145-1.191-.235.234-.578.398-.976.546-1.336.254.516.454.93.653 1.34-.004.078-.004.152-.008.23Zm.918 1.046c-.14.43-.242.735-.371 1.137-.129-.355-.219-.613-.352-.976.243-.055.442-.098.723-.16Zm7.574-17.218c-.078.21-.09.488-.129.722-.797-.097-.918-1.02-.898-2.082.972-.047.972-.047 1.347.844-.105.168-.246.309-.32.516Zm-.254-3.36c-.32-.297-.12-.652.067-.96.168.167.304.3.578.566-.278.18-.528.504-.645.394Zm28.297-13.164c.305-.574.938-.668 1.496-.457 2.07.782 4.614 1.293 6.832 1.485.621.054 1.094.398 1.149 1.058.047.543-.48 1.2-1.059 1.149-2.734-.235-5.39-.77-7.96-1.739-.56-.214-.708-1.02-.458-1.496Zm-7.418 6.555c.133-.066.266-.129.406-.2.086.345.168.68.258 1.032-.379.09-.781.29-1.094-.613.172-.086.301-.153.43-.219Zm-13.555-4.973c3.399-.14 6.793-.261 10.196-.097.597.03 1.12.418 1.148 1.058.024.559-.46 1.18-1.058 1.149-3.399-.164-6.801-.04-10.196.097-1.425.059-1.511-2.152-.09-2.207Zm11.458 13.25c-.461-.152-.922-.3-1.461-.476.105-.364.164-.555.25-.836.129.254.214.422.289.558.109-.164.214-.382.25-.355.261.21.504.469.754.715-.028.129-.055.261-.082.394Zm18.972-1.758c-4.816.16-9.535-1.277-14.34-.996-1.242.07-2.48.172-3.718.278-.016.12-.047.234-.07.242-.259.07-.571.508-.77-.168-.446.043-.895.082-1.344.125.02.324.035.625.05.926-.343-.32-.59-.547-.905-.844-2.95.281-5.895.57-8.856.695-1.426.063-1.512-2.144-.09-2.207 5.219-.222 10.399-.949 15.613-1.258 4.81-.28 9.524 1.157 14.34.997 1.422-.043 1.512 2.164.09 2.21Zm0 0"></path><g clip-path="url(#c)"><path fill="#2c3e50" d="M284.105 703.32c-.242 2.367-.644 4.711-1.148 7.035l3.047.086c.668-4.402 3.71-7.894 3.465-12.332-.117-2.25-.895-4.414-1.844-6.46-1.441-3.098-3.398-6.102-6.3-7.91l-1.45.023c1.11 1.332 2 2.832 2.684 4.445 2.003 4.727 2.062 10.086 1.546 15.113Zm0 0"></path></g><path fill="#2c3e50" d="M268.824 749.309a22 22 0 0 0 .063-.532c-.051.157-.059.34-.063.532Zm0 0"></path></svg>