<svg xmlns="http://www.w3.org/2000/svg" xmlns:xlink="http://www.w3.org/1999/xlink" width="1080" zoomAndPan="magnify" viewBox="0 0 810 809.999993" height="1080" preserveAspectRatio="xMidYMid meet" version="1.0"><path fill="#2c3e50" d="M 495.699219 503.496094 C 510.578125 508.675781 589.476562 553.308594 600.367188 616.089844 C 597.269531 621.714844 591.246094 627.113281 583.722656 632.472656 C 583.5 631.367188 583.367188 630.65625 583.367188 630.390625 C 574.421875 636.367188 555.695312 643.628906 527.136719 652.132812 C 532.714844 687.773438 535.503906 713.585938 535.503906 729.480469 C 535.503906 750.953125 395.636719 759.410156 365.128906 781.769531 C 334.976562 781.726562 305.269531 783.363281 276.488281 789.875 C 270.957031 752.902344 283.265625 703.84375 289.328125 664.574219 C 308.148438 634.421875 326.125 582.085938 326.125 555.609375 C 332.765625 556.007812 340.644531 558.222656 350.695312 555.609375 C 329.753906 634.109375 412.902344 700.703125 457.402344 524.792969 C 465.503906 521.738281 478.253906 514.609375 495.699219 503.496094 Z M 495.699219 503.496094 " fill-opacity="1" fill-rule="evenodd"></path><path fill="#2c3e50" d="M 359.863281 175.058594 C 352.421875 184.179688 343.746094 194.359375 333.605469 205.917969 C 449.300781 179.707031 487.289062 238.902344 511.328125 297.523438 C 489.28125 253.382812 423.617188 209.371094 316.824219 244.082031 C 257.894531 263.210938 181.164062 297.523438 174.523438 396.261719 C 165.355469 344.988281 180.324219 277.910156 255.058594 235.273438 C 241.15625 233.234375 228.230469 230.933594 216.1875 228.367188 C 136.046875 280.566406 96.242188 360.660156 119.796875 459.484375 L 119.929688 460.0625 C 124.136719 479.054688 133.300781 576.597656 248.597656 545.558594 C 245.496094 540.421875 242.75 532.808594 239.5625 530.683594 C 214.636719 513.769531 197.015625 488.707031 187.140625 458.289062 C 180.011719 436.460938 176.558594 413.527344 178.0625 390.992188 C 203.964844 348.882812 242.617188 322.894531 274.984375 312.402344 C 276.136719 301.066406 272.726562 287.164062 264.800781 270.691406 C 281.804688 277.601562 292.253906 290.042969 296.105469 308.019531 C 324.882812 291.324219 359.773438 279.992188 400.859375 271.488281 C 402.410156 263.300781 401.523438 251.300781 398.160156 235.40625 C 411.886719 245.765625 418.792969 257.851562 418.792969 271.621094 C 449.652344 265.691406 474.269531 266.53125 501.941406 290.617188 C 510.222656 303.765625 516.863281 318.734375 522.222656 335.160156 C 531.960938 365.132812 559.636719 370.667969 559.769531 418.265625 C 559.855469 438.542969 552.59375 459.308594 528.773438 480.164062 C 587.308594 440.183594 608.871094 387.050781 583.324219 310.097656 C 555.03125 224.867188 471.304688 163.898438 363.183594 174.703125 Z M 300.132812 188.605469 C 296.324219 189.890625 292.519531 191.21875 288.753906 192.589844 C 293.535156 198.832031 297.917969 206.183594 301.859375 214.816406 L 301.859375 214.726562 C 300.308594 206.449219 299.691406 198.480469 300.042969 190.773438 Z M 300.132812 188.605469 " fill-opacity="1" fill-rule="evenodd"></path><path fill="#2c3e50" d="M 237.660156 527.804688 C 225.21875 518.90625 214.769531 508.058594 206.269531 495.617188 C 197.945312 483.4375 191.570312 469.757812 187.140625 454.882812 C 174.210938 411.84375 176.957031 364.515625 204.054688 324.578125 C 225.128906 293.539062 260.859375 266.929688 315.453125 250.28125 C 369.46875 233.632812 410.867188 232.660156 442.480469 243.597656 C 483.746094 257.851562 508.007812 292.386719 522 337.726562 C 525.1875 348.132812 530.457031 355.792969 536.078125 363.140625 C 541.4375 370.136719 547.105469 376.777344 551.398438 385.632812 C 555.5625 394.3125 558.351562 405.113281 558.21875 420.347656 C 557.953125 442.042969 548.257812 465.152344 518.015625 487.957031 C 494.238281 505.886719 458.019531 523.597656 404.136719 540.246094 C 390.722656 544.363281 377.835938 547.460938 365.527344 549.585938 C 351.671875 552.023438 338.519531 553.175781 326.078125 553.21875 C 324.660156 553.21875 323.511719 554.371094 323.511719 555.742188 C 323.511719 557.160156 324.660156 558.308594 326.078125 558.308594 C 338.785156 558.355469 352.246094 557.246094 366.414062 554.902344 C 378.988281 552.820312 392.09375 549.71875 405.730469 545.601562 C 460.632812 528.957031 497.558594 511.113281 521.824219 493.003906 C 554.410156 468.695312 564.59375 443.722656 564.992188 420.480469 C 565.257812 403.875 562.203125 392.097656 557.6875 382.621094 C 553.214844 373.28125 547.324219 366.195312 541.746094 358.847656 C 536.65625 352.074219 531.828125 345.121094 528.953125 335.601562 C 514.429688 287.695312 488.617188 251.34375 445.046875 236.113281 C 412.238281 224.644531 369.203125 225.175781 313.015625 242.269531 C 256.167969 259.667969 218.976562 287.472656 197.191406 319.929688 C 168.988281 362.035156 166.597656 411.84375 180.632812 456.875 C 185.503906 472.324219 192.410156 486.539062 201.308594 499.070312 C 210.386719 511.910156 221.585938 522.976562 234.738281 531.964844 C 235.886719 532.761719 237.484375 532.496094 238.28125 531.347656 C 239.078125 530.195312 238.8125 528.601562 237.660156 527.804688 Z M 237.660156 527.804688 " fill-opacity="1" fill-rule="evenodd"></path><path fill="#2c3e50" d="M 368.761719 476.796875 C 369.824219 475.027344 371.152344 473.609375 372.523438 472.148438 C 373.808594 470.730469 375.269531 469.582031 376.863281 468.429688 C 378.367188 467.367188 380.007812 466.394531 381.824219 465.507812 C 383.503906 464.710938 385.320312 463.914062 387.269531 463.25 C 396.742188 460.148438 409.316406 459.441406 425.210938 461.34375 C 426.628906 461.523438 427.914062 460.59375 428.136719 459.21875 C 428.355469 457.804688 427.425781 456.476562 426.011719 456.253906 C 416.976562 454.4375 408.875 453.464844 401.703125 453.421875 C 395.414062 453.375 389.792969 454.039062 384.921875 455.367188 C 382.441406 456.03125 380.140625 456.875 378.015625 457.9375 C 375.710938 459.085938 373.585938 460.503906 371.773438 462.144531 C 369.867188 463.871094 368.230469 465.773438 366.945312 467.941406 C 365.707031 470.066406 364.730469 472.324219 364.066406 474.804688 C 363.492188 476.089844 364.113281 477.59375 365.394531 478.125 C 366.722656 478.703125 368.230469 478.125 368.761719 476.796875 Z M 368.761719 476.796875 " fill-opacity="1" fill-rule="evenodd"></path><path fill="#2c3e50" d="M 211.003906 422.207031 C 211.003906 422.207031 207.375 423.402344 201.972656 425.703125 C 200.378906 426.367188 198.609375 427.207031 196.75 428.136719 C 195.640625 428.671875 194.492188 429.246094 193.339844 429.910156 C 188.425781 432.609375 183.023438 435.84375 177.84375 438.898438 C 165.667969 446.070312 154.820312 452.757812 154.820312 452.757812 C 153.578125 453.421875 153.09375 454.96875 153.757812 456.210938 C 154.464844 457.449219 156.015625 457.9375 157.253906 457.226562 C 157.253906 457.226562 168.765625 451.78125 181.429688 445.449219 C 186.785156 442.792969 192.453125 440.003906 197.414062 437.347656 C 198.5625 436.726562 199.671875 436.109375 200.734375 435.488281 C 202.503906 434.425781 204.1875 433.40625 205.648438 432.390625 C 210.472656 429.113281 213.441406 426.722656 213.441406 426.722656 C 214.726562 426.058594 215.167969 424.507812 214.503906 423.269531 C 213.796875 422.027344 212.246094 421.542969 211.003906 422.207031 Z M 211.003906 422.207031 " fill-opacity="1" fill-rule="evenodd"></path><path fill="#2c3e50" d="M 324.839844 457.007812 C 343.214844 448.0625 353.085938 437.257812 358.265625 426.058594 C 365.351562 410.648438 363.449219 394.355469 361.808594 380.628906 C 360.214844 366.859375 353.398438 355.746094 341.886719 349.726562 C 332.71875 344.898438 320.457031 343.351562 305.179688 346.539062 C 283.308594 351.144531 238.589844 364.117188 218.132812 385.324219 C 206.976562 396.925781 202.636719 410.828125 210.960938 426.988281 C 223.003906 449.746094 240.9375 463.027344 261.390625 467.589844 C 281.273438 472.015625 303.5 468.121094 324.839844 457.007812 Z M 322.582031 452.402344 C 302.300781 461.964844 281.539062 464.753906 263.117188 460.148438 C 244.921875 455.589844 229.027344 443.589844 218.488281 423.046875 C 209.898438 406.664062 218.976562 393.382812 233.71875 382.800781 C 255.28125 367.347656 288.929688 357.605469 306.730469 353.667969 C 320.011719 350.699219 330.726562 351.71875 338.742188 355.792969 C 348.394531 360.660156 354.015625 369.960938 355.523438 381.425781 C 357.160156 394.179688 359.375 409.277344 353 423.667969 C 348.394531 434.027344 339.316406 443.945312 322.582031 452.402344 Z M 322.582031 452.402344 " fill-opacity="1" fill-rule="evenodd"></path><path fill="#2c3e50" d="M 453.59375 415.875 C 475.910156 413.835938 494.726562 405.070312 506.945312 390.28125 C 514.429688 381.25 519.386719 369.960938 521.160156 356.542969 C 522.132812 349.105469 522.089844 341.003906 520.9375 332.238281 C 517.925781 310.011719 502.429688 301.554688 483.039062 300.535156 C 458.199219 299.25 426.675781 310.675781 410.734375 317.359375 C 397.320312 322.984375 388.90625 330.863281 384.746094 339.808594 C 379.917969 350.210938 380.714844 362.125 386.605469 374.078125 C 392.539062 386.078125 399.445312 399.492188 412.019531 407.949219 C 421.714844 414.5 434.820312 418.175781 453.59375 415.875 Z M 453.019531 410.78125 C 435.925781 412.640625 424.015625 409.277344 415.25 403.167969 C 403.738281 395.152344 397.71875 382.488281 392.359375 371.289062 C 387.578125 361.28125 386.78125 351.320312 390.941406 342.730469 C 394.574219 335.160156 402.011719 328.738281 413.523438 324.089844 C 428.800781 317.890625 458.90625 307.265625 482.550781 308.683594 C 497.824219 309.613281 510.265625 315.855469 512.523438 333.386719 C 513.632812 341.3125 513.675781 348.707031 512.835938 355.480469 C 511.417969 367.304688 507.300781 377.355469 500.96875 385.546875 C 490.253906 399.449219 473.339844 408.039062 453.019531 410.78125 Z M 453.019531 410.78125 " fill-opacity="1" fill-rule="evenodd"></path><path fill="#2c3e50" d="M 297.210938 197.992188 C 297.121094 173.550781 306.199219 151.769531 322.226562 131.136719 C 336.527344 112.714844 356.363281 95.183594 380.226562 77.429688 C 393.421875 67.597656 407.855469 57.726562 423.175781 47.542969 C 424.636719 46.566406 426.542969 46.613281 427.957031 47.675781 C 429.375 48.738281 429.949219 50.554688 429.464844 52.234375 C 417.15625 91.507812 411.664062 112.894531 393.554688 140.875 C 381.292969 159.824219 363.09375 181.832031 332.984375 214.59375 C 332.054688 215.65625 330.417969 215.746094 329.398438 214.816406 C 328.335938 213.84375 328.25 212.25 329.179688 211.1875 C 358.222656 178.113281 375.667969 155.972656 387.488281 137.023438 C 403.03125 112.097656 408.785156 92.660156 418.21875 60.914062 C 406.574219 68.792969 395.59375 76.542969 385.320312 84.246094 C 362.121094 101.515625 342.726562 118.382812 328.78125 136.226562 C 310.449219 159.691406 301.636719 184.664062 306.554688 214.019531 C 306.90625 215.921875 305.800781 217.785156 303.941406 218.402344 C 302.125 219.023438 300.089844 218.226562 299.203125 216.5 C 281.847656 183.246094 260.59375 170.539062 235.089844 166.421875 C 200.6875 160.84375 158.980469 170.273438 109.570312 167.085938 C 122.230469 185.949219 140.121094 199.71875 164.558594 210.390625 C 193.117188 222.832031 230.621094 230.933594 279.234375 237.707031 C 280.609375 237.882812 281.582031 239.167969 281.40625 240.585938 C 281.226562 242.003906 279.941406 242.976562 278.527344 242.753906 C 229.246094 236.289062 191.214844 228.277344 162.167969 215.878906 C 134.007812 203.835938 114.175781 187.71875 100.535156 165.007812 C 99.917969 163.945312 99.960938 162.660156 100.582031 161.597656 C 101.246094 160.578125 102.398438 160.003906 103.636719 160.089844 C 156.191406 164.296875 200.15625 153.496094 236.289062 159.117188 C 259.710938 162.75 280.03125 173.019531 297.210938 197.992188 Z M 297.210938 197.992188 " fill-opacity="1" fill-rule="evenodd"></path><path fill="#2c3e50" d="M 385.808594 362.476562 C 384.746094 361.8125 383.769531 361.371094 382.621094 360.882812 C 381.511719 360.441406 380.359375 360.261719 379.164062 360.085938 C 377.96875 359.953125 376.773438 359.996094 375.578125 360.128906 C 374.429688 360.21875 373.277344 360.527344 372.125 360.839844 C 370.179688 361.414062 368.273438 362.210938 366.371094 363.230469 C 362.695312 365.222656 359.066406 367.96875 355.476562 371.554688 C 354.371094 372.484375 354.238281 374.078125 355.125 375.183594 C 356.054688 376.246094 357.648438 376.425781 358.753906 375.496094 C 362.207031 373.105469 365.617188 371.464844 368.894531 370.226562 C 370.753906 369.5625 372.613281 369.164062 374.429688 368.808594 C 375.667969 368.585938 376.90625 368.5 378.101562 368.367188 C 379.34375 368.1875 380.539062 367.921875 381.824219 367.789062 C 382.753906 367.703125 383.550781 367.480469 384.523438 367.4375 C 385.894531 367.789062 387.269531 366.992188 387.621094 365.621094 C 388.019531 364.25 387.179688 362.832031 385.808594 362.476562 Z M 385.808594 362.476562 " fill-opacity="1" fill-rule="evenodd"></path><path fill="#2c3e50" d="M 454.878906 527.359375 C 454.832031 528.378906 452.929688 536.304688 449.476562 547.375 C 447.617188 553.351562 445.3125 560.214844 442.523438 567.386719 C 440.578125 572.476562 438.363281 577.703125 435.972656 582.925781 C 432.472656 590.5 428.488281 598.027344 423.929688 604.800781 C 413.167969 620.785156 399.3125 633.003906 381.113281 631.808594 C 370 631.144531 361.101562 622.910156 355.921875 610.421875 C 349.988281 596.167969 348.925781 576.550781 355.035156 555.167969 C 355.433594 553.792969 354.636719 552.378906 353.308594 551.980469 C 351.9375 551.582031 350.519531 552.332031 350.121094 553.707031 C 343.035156 576.417969 343.878906 597.449219 349.855469 612.859375 C 355.832031 628.265625 366.988281 638.050781 380.539062 639.203125 C 401.523438 640.929688 418.304688 627.824219 430.835938 609.539062 C 435.75 602.363281 440.046875 594.4375 443.632812 586.382812 C 446.023438 580.933594 448.148438 575.445312 449.964844 570.085938 C 452.53125 562.605469 454.523438 555.433594 456.027344 549.1875 C 458.953125 537.101562 460.015625 528.46875 459.96875 527.359375 C 459.96875 525.945312 458.820312 524.792969 457.402344 524.792969 C 456.027344 524.792969 454.878906 525.945312 454.878906 527.359375 Z M 454.878906 527.359375 " fill-opacity="1" fill-rule="evenodd"></path><path fill="#2c3e50" d="M 595.320312 615.335938 C 591.378906 596.699219 582.703125 579.519531 569.417969 563.710938 C 564.726562 558.132812 559.457031 552.730469 553.65625 547.460938 C 548.210938 542.546875 542.367188 537.722656 535.992188 533.027344 C 530.101562 528.644531 523.769531 524.304688 517.085938 520.054688 C 510.796875 516.113281 504.203125 512.128906 497.207031 508.324219 C 495.964844 507.703125 495.433594 506.152344 496.054688 504.914062 C 496.675781 503.628906 498.222656 503.097656 499.464844 503.761719 C 506.902344 507.039062 513.941406 510.449219 520.582031 514.078125 C 525.320312 516.644531 529.835938 519.347656 534.132812 522.09375 C 539.886719 525.765625 545.246094 529.53125 550.25 533.472656 C 555.605469 537.722656 560.566406 542.105469 565.082031 546.621094 C 585.800781 567.253906 598.199219 590.367188 602.671875 615.734375 C 602.847656 616.84375 602.539062 617.949219 601.828125 618.746094 C 595.410156 625.832031 586.199219 632.382812 574.203125 638.359375 C 561.714844 644.515625 546.128906 650.09375 527.402344 655.054688 C 526.03125 655.453125 524.65625 654.65625 524.257812 653.28125 C 523.859375 651.910156 524.65625 650.492188 526.03125 650.136719 C 544.183594 644.871094 559.28125 639.023438 571.324219 632.695312 C 581.597656 627.292969 589.609375 621.535156 595.320312 615.335938 Z M 595.320312 615.335938 " fill-opacity="1" fill-rule="evenodd"></path><path fill="#2c3e50" d="M 581.285156 632.03125 C 581.242188 634.640625 589.964844 674.976562 593.90625 711.238281 C 595.898438 729.613281 596.914062 747.8125 595.1875 761.09375 C 594.878906 763.308594 593.460938 765.34375 591.335938 767.382812 C 588.546875 770.039062 584.519531 772.515625 579.558594 774.910156 C 569.816406 779.558594 556.625 783.675781 541.527344 787.171875 C 523.371094 791.378906 502.472656 794.699219 481.445312 797.003906 C 442.703125 801.253906 403.519531 801.960938 380.449219 798.109375 C 373.5 796.957031 368.097656 795.453125 364.820312 793.371094 C 363.535156 792.574219 362.519531 791.867188 362.605469 790.757812 C 362.785156 788.722656 364.464844 786.953125 366.855469 785.179688 C 371.507812 781.769531 378.765625 778.761719 387.710938 775.882812 C 425.789062 763.707031 492.734375 755.425781 521.910156 744.09375 C 527.578125 741.878906 531.917969 739.488281 534.53125 737.050781 C 536.878906 734.792969 538.027344 732.402344 538.027344 729.925781 C 537.984375 721.953125 537.230469 711.503906 535.769531 698.578125 C 534.351562 685.605469 532.140625 670.152344 529.261719 652.175781 C 529.039062 650.800781 527.710938 649.828125 526.339844 650.050781 C 524.921875 650.269531 523.992188 651.601562 524.214844 652.972656 C 526.914062 670.859375 528.953125 686.269531 530.28125 699.152344 C 531.5625 711.859375 532.226562 722.085938 532.183594 729.925781 C 532.183594 731.652344 530.546875 732.980469 528.15625 734.484375 C 523.949219 737.183594 517.261719 739.574219 509.070312 741.921875 C 477.503906 750.867188 423.53125 757.949219 389.304688 767.914062 C 378.367188 771.101562 369.378906 774.597656 363.582031 778.496094 C 358.398438 781.992188 355.609375 785.976562 355.167969 790.050781 C 354.726562 794.789062 358.222656 799.304688 366.058594 802.316406 C 385.363281 809.621094 434.15625 810.285156 482.328125 805.238281 C 503.714844 803.023438 524.964844 799.703125 543.472656 795.453125 C 559.238281 791.777344 573.007812 787.351562 583.191406 782.390625 C 595.277344 776.503906 602.316406 769.328125 603.15625 762.113281 C 604.796875 748.253906 603.558594 729.394531 601.078125 710.398438 C 596.382812 674.492188 586.464844 634.597656 586.421875 632.03125 C 586.421875 630.613281 585.269531 629.460938 583.855469 629.460938 C 582.4375 629.460938 581.285156 630.613281 581.285156 632.03125 Z M 581.285156 632.03125 " fill-opacity="1" fill-rule="evenodd"></path><path fill="#2c3e50" d="M 289.417969 661.871094 C 288.578125 664.042969 277.550781 714.871094 273.566406 748.253906 C 270.511719 773.757812 272.859375 783.894531 274.320312 790.40625 C 274.320312 791.820312 275.425781 792.972656 276.84375 792.972656 C 278.261719 792.972656 279.410156 791.820312 279.410156 790.40625 C 279.765625 780 276.84375 761.714844 280.785156 731.429688 C 284.945312 699.0625 293.800781 666.078125 294.332031 663.289062 C 294.730469 661.914062 293.933594 660.5 292.605469 660.101562 C 291.234375 659.746094 289.816406 660.5 289.417969 661.871094 Z M 289.417969 661.871094 " fill-opacity="1" fill-rule="evenodd"></path><path fill="#2c3e50" d="M 252.800781 728.375 C 259.621094 721.777344 275.605469 698.179688 291.1875 669.796875 C 298.496094 656.515625 305.667969 642.167969 311.867188 628.132812 C 320.101562 609.273438 326.476562 590.851562 328.78125 575.976562 C 330.375 565.792969 329.976562 557.160156 327.40625 550.914062 C 319.613281 532.453125 306.421875 520.851562 292.519531 514.035156 C 271.886719 503.9375 249.746094 504.558594 241.554688 508.324219 C 234.824219 511.378906 231.816406 515.273438 230.929688 519.304688 C 230.175781 522.492188 230.796875 525.988281 232.566406 529.753906 C 236.90625 538.738281 248.949219 549.765625 257.539062 562.074219 C 264.710938 572.257812 269.496094 583.503906 262.765625 595.367188 C 248.417969 620.695312 211.625 666.742188 185.988281 705.835938 C 172.484375 726.425781 162.082031 745.15625 159.292969 758.128906 C 154.109375 782.125 173.414062 793.414062 199.9375 793.328125 C 224.554688 793.238281 255.191406 783.320312 274.851562 766.140625 C 276.886719 764.371094 275.027344 758.96875 274.054688 759.898438 C 255.414062 777.519531 224.464844 787.617188 199.9375 787.484375 C 178.019531 787.394531 160.972656 779.246094 165.402344 759.457031 C 168.191406 747.058594 178.507812 729.214844 191.613281 709.558594 C 217.648438 670.503906 254.839844 624.503906 269.449219 599.175781 C 273.789062 591.648438 274.542969 584.253906 273.125 577.128906 C 270.070312 561.628906 255.722656 547.285156 246.160156 535.417969 C 243.195312 531.699219 240.714844 528.289062 239.476562 525.148438 C 238.765625 523.289062 238.457031 521.5625 239.34375 520.011719 C 240.273438 518.417969 242.132812 517.132812 244.964844 515.847656 C 252.003906 512.617188 271 512.882812 288.796875 521.605469 C 301.0625 527.671875 312.75 537.855469 319.613281 554.191406 C 321.785156 559.285156 321.785156 566.367188 320.589844 574.738281 C 318.464844 589.039062 312.441406 606.792969 304.738281 625.078125 C 298.894531 639.023438 292.03125 653.28125 285.125 666.566406 C 270.511719 694.589844 255.679688 718.148438 249.214844 724.789062 C 248.199219 725.761719 248.199219 727.398438 249.214844 728.375 C 250.191406 729.394531 251.828125 729.394531 252.800781 728.375 Z M 252.800781 728.375 " fill-opacity="1" fill-rule="evenodd"></path><path fill="#2c3e50" d="M 584.296875 194.582031 C 584.296875 197.902344 585.625 199.851562 587.527344 201.046875 C 590.230469 202.816406 594.789062 202.640625 598.421875 203.082031 C 599.4375 203.171875 600.457031 203.171875 600.855469 203.878906 C 601.253906 204.5 601.078125 205.386719 600.722656 206.714844 C 599.703125 210.390625 597.09375 213.886719 594.171875 217.785156 C 590.273438 223.007812 585.847656 228.808594 583.058594 236.421875 C 580.578125 242.976562 579.335938 250.859375 580.664062 260.730469 C 580.84375 262.058594 581.90625 263.078125 583.234375 263.253906 C 584.5625 263.34375 585.847656 262.589844 586.289062 261.304688 C 591.160156 247.535156 599.4375 239.167969 609.402344 233.546875 C 622.109375 226.285156 637.472656 223.449219 651.816406 219.644531 C 668.109375 215.304688 683.164062 209.679688 692.640625 196.574219 C 700.519531 185.683594 702.160156 176.871094 701.007812 169.390625 C 699.855469 161.996094 695.871094 155.839844 691.976562 150.128906 C 688.34375 144.816406 684.539062 140.035156 685.023438 134.542969 C 687.148438 108.6875 701.847656 90.003906 708.402344 70.875 C 711.898438 60.78125 713.273438 50.597656 710.171875 39.441406 C 703.707031 15.839844 682.234375 4.019531 658.238281 2.378906 C 636.054688 0.832031 611.835938 8.046875 596.25 21.949219 C 581.152344 35.5 573.316406 47.585938 571.855469 58.921875 C 570.082031 72.292969 576.769531 85.089844 591.867188 98.460938 C 599.128906 104.789062 600.367188 109.351562 598.066406 113.511719 C 595.277344 118.5625 588.988281 122.679688 584.164062 127.015625 C 579.335938 131.355469 575.882812 136.003906 575.929688 141.140625 C 576.015625 147.25 578.1875 150.527344 581.242188 152.609375 C 583.855469 154.378906 587.308594 155.175781 590.9375 156.152344 C 594.4375 157.125 598.15625 158.230469 600.679688 161.953125 C 601.875 163.632812 601.917969 165.183594 601.296875 166.6875 C 599.660156 170.496094 595.234375 174.039062 591.46875 178.332031 C 587.484375 182.9375 584.207031 188.117188 584.296875 194.582031 Z M 586.113281 247.800781 C 591.425781 238.992188 598.421875 232.835938 606.347656 228.234375 C 619.453125 220.617188 635.300781 217.429688 650.136719 213.355469 C 664.835938 209.328125 678.605469 204.542969 687.105469 192.589844 C 693.4375 183.648438 695.03125 176.5625 694.058594 170.453125 C 692.773438 162.75 687.679688 156.726562 683.785156 150.882812 C 680.019531 145.304688 677.277344 139.902344 677.71875 133.96875 C 679.710938 107.449219 694.410156 88.054688 701.050781 68.351562 C 703.929688 59.761719 705.171875 51.085938 702.511719 41.566406 C 696.847656 21.464844 678.160156 11.988281 657.660156 10.660156 C 637.695312 9.332031 615.910156 15.707031 601.917969 28.28125 C 588.722656 40.015625 581.507812 50.199219 580.132812 60.027344 C 578.585938 71.097656 584.785156 81.324219 597.179688 92.527344 C 604.664062 99.300781 607.054688 105.144531 606.878906 110.058594 C 606.746094 113.511719 605.417969 116.65625 603.203125 119.578125 C 600.765625 122.765625 597.3125 125.734375 593.773438 128.566406 C 590.671875 131.046875 587.484375 133.480469 585.269531 136.136719 C 583.988281 137.6875 582.96875 139.28125 582.925781 141.140625 C 582.925781 144.195312 583.632812 145.96875 585.136719 147.03125 C 587.128906 148.492188 589.917969 149.023438 592.710938 149.863281 C 597.535156 151.28125 602.449219 153.230469 605.859375 158.496094 C 608.382812 162.351562 608.339844 165.804688 606.789062 169.125 C 605.195312 172.667969 601.5625 176.121094 597.84375 179.839844 C 593.773438 183.914062 589.519531 188.382812 589.433594 194.582031 C 589.433594 196.265625 590.363281 196.929688 591.558594 197.195312 C 592.886719 197.550781 594.390625 197.59375 595.851562 197.636719 C 597.757812 197.726562 599.660156 197.816406 601.164062 198.257812 C 603.023438 198.746094 604.441406 199.675781 605.371094 201.089844 C 606.300781 202.597656 606.699219 204.765625 605.859375 208.085938 C 604.707031 212.382812 601.875 216.5 598.507812 221.058594 C 594.96875 225.886719 590.894531 231.289062 588.324219 238.371094 C 587.261719 241.207031 586.511719 244.347656 586.113281 247.800781 Z M 586.113281 247.800781 " fill-opacity="1" fill-rule="evenodd"></path><path fill="#2c3e50" d="M 308.679688 395.550781 C 308.679688 402.589844 302.96875 408.304688 295.925781 408.304688 C 288.886719 408.304688 283.175781 402.589844 283.175781 395.550781 C 283.175781 388.511719 288.886719 382.800781 295.925781 382.800781 C 302.96875 382.800781 308.679688 388.511719 308.679688 395.550781 Z M 308.679688 395.550781 " fill-opacity="1" fill-rule="evenodd"></path><path fill="#2c3e50" d="M 444.695312 353.046875 C 444.695312 360.085938 438.984375 365.796875 431.941406 365.796875 C 424.902344 365.796875 419.191406 360.085938 419.191406 353.046875 C 419.191406 346.007812 424.902344 340.296875 431.941406 340.296875 C 438.984375 340.296875 444.695312 346.007812 444.695312 353.046875 Z M 444.695312 353.046875 " fill-opacity="1" fill-rule="evenodd"></path><path fill="#2c3e50" d="M 657.21875 64.011719 C 657.21875 71.050781 651.507812 76.765625 644.46875 76.765625 C 637.429688 76.765625 631.714844 71.050781 631.714844 64.011719 C 631.714844 56.972656 637.429688 51.261719 644.46875 51.261719 C 651.507812 51.261719 657.21875 56.972656 657.21875 64.011719 Z M 657.21875 64.011719 " fill-opacity="1" fill-rule="evenodd"></path><path fill="#2c3e50" d="M 657.21875 115.019531 C 657.21875 122.058594 651.507812 127.769531 644.46875 127.769531 C 637.429688 127.769531 631.714844 122.058594 631.714844 115.019531 C 631.714844 107.980469 637.429688 102.265625 644.46875 102.265625 C 651.507812 102.265625 657.21875 107.980469 657.21875 115.019531 Z M 657.21875 115.019531 " fill-opacity="1" fill-rule="evenodd"></path><path fill="#2c3e50" d="M 657.21875 166.023438 C 657.21875 173.066406 651.507812 178.777344 644.46875 178.777344 C 637.429688 178.777344 631.714844 173.066406 631.714844 166.023438 C 631.714844 158.984375 637.429688 153.273438 644.46875 153.273438 C 651.507812 153.273438 657.21875 158.984375 657.21875 166.023438 Z M 657.21875 166.023438 " fill-opacity="1" fill-rule="evenodd"></path></svg>