<svg xmlns="http://www.w3.org/2000/svg" width="1080" viewBox="0 0 810 810" height="1080" version="1.0"><defs><clipPath id="a"><path d="M26.324 340H266v345H26.324Zm0 0"></path></clipPath><clipPath id="b"><path d="M544 374h239.824v311H544Zm0 0"></path></clipPath></defs><path fill="#2c3e50" d="M526.242 608.813c-56.629 77.128-185.86 77.093-242.488 0-20.98 19.777-33.34 47.816-33.668 77.957v101.207c0 9.468 7.746 17.21 17.215 17.21h275.398c9.465 0 17.211-7.742 17.211-17.21V686.77c-.344-30.141-12.683-58.196-33.668-77.957Zm0 0"></path><g clip-path="url(#a)"><path fill="#2c3e50" d="M43.54 684.703H215.78c.606-40.879 18.989-79.265 49.434-105.668-6.555-13.805-11.082-28.555-13.477-43.754-10.824-8.883-18.02-22.41-18.605-36.336-1.293-5.578 5.472-54.906 5.851-61.55 1.961-15.973 5.993-31.567 12.051-46.336-50.539 6.28-101.969-14.493-133.5-50.778L77.43 358.184c-30.965 13.77-51.106 44.75-51.106 78.66v230.644c0 9.469 7.746 17.215 17.215 17.215Zm0 0"></path></g><path fill="#2c3e50" d="M149.703 158.777c5.629-8.918 19.262-10.261 26.492-2.617 30.051 30.05 70 46.594 112.5 46.594h80.055c-3.063-31.223-5.7-67.473-23.91-93.395-65.957-105.046-230.817-66.441-243.762 56.438l-4.113 36.957h23.426Zm0 0"></path><g clip-path="url(#b)"><path fill="#2c3e50" d="M732.55 392.605c-8.862-4.214-30.98-13.457-40.105-17.726-28.398 31.672-69.535 51.637-115.32 51.637-10.434-1.79-7.11 2.89-6.129 10.879.242 5.37 7.004 56.027 5.852 59.949-.551 13.476-6.145 27.11-16.524 35.941-6.543 13.89-7.265 31.738-15.543 45.735 30.465 26.402 48.832 64.804 49.453 105.664h172.227c9.465 0 17.21-7.746 17.21-17.211V471.27c0-33.91-20.136-64.891-51.12-78.665Zm0 0"></path></g><path fill="#2c3e50" d="M300.04 571.531c49.741 91.93 192.226 76.473 220.022-24.547H289.95c2.051 8.641 5.856 16.852 10.09 24.547ZM632.89 200.172l-4.644-18.762c-3.308-15.148-25.441-17.71-32.016-3.613l-16.18 32.36c-8.433 16.695-25.132 27.023-43.722 27.023h-62.48c-9.465 0-17.211 7.746-17.211 17.21v17.215c.015 9.016 1.031 17.864 2.976 26.352 6.008 2.324 11.98 4.7 17.817 7.398 16.593 8.06 31.945 18.645 44.906 31.778 15.527 15.23 27.851 33.597 36.437 53.582 36.32 5.781 74.739-6.508 100.11-30.813 29.554-26.093 41.5-66.113 38.726-105.511 0-9.465-7.746-17.211-17.21-17.211-22.547 0-42-15.32-47.508-37.008Zm0 0"></path><path fill="#2c3e50" d="M411.008 289.09c4.164.12 8.293.398 12.41.758-.863-6.024-1.207-35.457-1.207-35.457 0-28.399 23.238-51.637 51.637-51.637h62.48c5.508 0 10.328-2.926 12.91-8.09l16.18-32.36c8.777-17.558 26.508-28.402 46.129-28.402 23.375-.117 44.582 16.301 50.09 39.075l4.648 18.761c1.719 6.54 7.399 11.016 14.113 11.016 28.399 0 51.637 23.238 51.637 51.637 1.445 31.793-3.613 65.113-19.105 91.742l15.836 7.058c9.328-28.246 23.46-63.55 20.48-93.808.379-33.34-10.875-65.547-28.398-93.637-60.692-110.226-226.672-110.191-287.45-.172-17.367 28.23-28.828 60.383-28.398 93.809 0 0-2.688 31.808 6.008 29.707ZM361.125 330.918c-47.336 16.043-82.656 60.621-87.922 110.281l-3.031 27.317-2.7 24.957c-.636 9.828 6.676 19.398 17.04 19.105h240.972c4.907 0 9.57-2.082 12.825-5.73 8.125-7.453 1.566-29.125 1.515-38.332-1.91-11.743-2.668-33.496-6.25-44.618-16.297-73.96-101.828-119.968-172.449-92.98ZM232.875 357.664c15.32 0 29.95-2.926 43.375-8.262 10.652-12.324 22.566-23.664 36.285-32.53 6.762-6.161 17.777-7.47 22.168-15.696 12.309-18.883 18.383-41.52 18.66-63.996h-64.668c-44.703 0-87.097-15.063-121.367-42.758l-23.39 35.098c-5.715 10.308-21.981 7.28-31.551 7.66.722 66.113 53.254 120.382 120.488 120.484Zm0 0"></path></svg>