<svg xmlns="http://www.w3.org/2000/svg" width="1080" height="1080" version="1.0" viewBox="0 0 810 810"><defs><clipPath id="a"><path d="M10.125 225H279v301H10.125Zm0 0"></path></clipPath><clipPath id="b"><path d="M539 256.32h260.828V625H539Zm0 0"></path></clipPath></defs><path fill="#2c3e50" d="M531.715 291.258c-18.313 0-25.817-2.883-26.528-3.453-25.886-17.907-44.113-36.653-58.761-51.715-11.895-12.238-21.297-21.91-30.45-26.668-3.917-2.031-10.843-3.074-20.566-3.074-7.316 0-16.195.586-26.426 1.722 12.996-32.86 28.766-72.457 30.04-75.433l18.671-42.094c2.082.105 3.645.121 4.985.129 1.53.02 2.75.05 4.175.172.051 0 .508.02.547.02 7.926 0 67.977-11.93 89.223-17.727 12.32-3.336 35.355-6.79 52.598-6.79 2.379 0 4.605.048 6.687.208l46.914 5.062 52.653 5.84c2.75.258 5.277 1.047 7.433 2.29 2.293 1.327 4.121 3.116 5.313 5.14 1.117 1.933 1.593 4 1.41 6.117-.156 1.441-.563 2.746-1.293 4.004-2.293 4.058-7.586 6.777-13.223 6.777-.594 0-1.183-.035-1.777-.09l-.688-.03-28.425.237c-.188.02-.352.051-.543.114-.22.093-5.348 2.199-5.23 8.03.105 4.747 4.042 6.938 6.112 7.427l44.825.953c3.023.402 11.441 1.484 15.02 8.722 2.292 4.622 2.14 9.63-.407 13.75-3.238 5.23-9.98 8.227-18.48 8.227-1 0-2.07-.043-3.157-.121l-39.765-.984c-3.352 0-7.133 1.59-7.372 6.074-.253 4.914 4.196 6.965 6.586 7.347l53.16 2.594c17.38 2.535 16.653 18.387 16.633 18.547a12.195 12.195 0 0 1-1.562 4.895c-2.324 4.109-7.297 7.113-12.965 7.808a4.025 4.025 0 0 0-.918-.183 8.92 8.92 0 0 0-.559-.032l-57.812-1.05c-3.711 0-7.82 1.843-8.043 6.984-.203 4.75 3.516 6.367 5.516 6.547l47.03 1.648c.9.07 1.763.106 2.634.106.867 0 1.71-.035 2.547-.09 1.98.406 3.953 1.078 5.652 2.043 6.023 3.512 9.379 9.847 8.754 16.547-.235 2.445-.95 4.75-2.172 6.828-3.14 5.469-9.113 8.867-15.598 8.867-.593 0-1.172-.027-1.765-.09l-.625-.027-56.625.277a75.953 75.953 0 0 0-3.547-.07c-20.688 0-87.563 5.004-88.223 5.062-.34.016-.664.149-.898.383-.375.313-.801.598-1.258.906-4.227 2.907-7.668 6.778.238 19.223L541.68 291c-3.465.164-6.79.258-9.965.258"></path><path fill="#2c3e50" d="M239.988 350.938c-20.96-32.692-43.586-68.075-45.336-71.012-.035-.035-21.148-36.113-26.394-45.07 4.742-15.876 16.043-64.223 19.199-83.473 2.477-15.211 10.727-42.219 18.586-56.676l24.082-40.594 27.16-45.48c1.39-2.41 3.121-4.344 5.172-5.817 2.137-1.52 4.535-2.449 6.879-2.691.387-.023.758-.043 1.137-.043 1.797 0 3.476.438 5.004 1.305 1.242.707 2.273 1.672 3.125 2.836 2.507 3.457 3.527 10.062-.153 16.425l-.324.618-11.54 25.953a1.219 1.219 0 0 0-.136.547c-.02.222-.242 5.765 5.121 8.07 1.008.437 2.02.656 3.04.656 3.788 0 6.16-2.992 6.265-3.129l19.453-40.386c1.61-2.57 6.129-9.79 14.184-10.047l.543-.008c5.168 0 9.726 2.523 12.191 6.742 3.41 5.766 2.684 13.938-2.008 22.398l-17.394 35.774c-1.086 2.148-1.989 6.883 2.48 9.21.98.52 2 .786 3.051.786 3.82 0 6.246-3.55 6.363-3.7l24.395-47.312c4.953-7.629 11.27-9.261 15.719-9.261 3.867 0 6.988 1.199 8.074 1.836 1.515.851 2.75 1.984 3.8 3.449 2.786 3.828 3.446 9.59 1.735 15.043a5.165 5.165 0 0 0-.563.742c-.015.043-.234.457-.25.488l-24.933 52.164c-.035.074-1.63 3.098-.668 6.149.562 1.761 1.789 3.129 3.672 4.09 1.031.527 2.05.78 3.05.78 3.383 0 5.13-2.96 5.2-3.085 0 0 20.976-42.055 20.992-42.082.816-1.457 1.527-3.02 2.176-4.73 1.203-1.657 2.625-3.153 4.207-4.29 3.07-2.175 6.656-3.336 10.336-3.336 2.937 0 5.82.774 8.367 2.23a16.886 16.886 0 0 1 5.312 4.813c4.024 5.63 4.325 13.266.766 19.446l-.29.562-23.878 53.828c-.562.95-26.902 67.531-34.965 87.906a1.596 1.596 0 0 0-.039 1c.137.473.242.989.324 1.528.578 3.293 1.461 8.242 11.375 8.242 1.797 0 3.883-.16 6.207-.48l22.75-1.196c-10.168 26.117-14.55 28.176-14.601 28.188-27.086 16.176-51.09 24.664-70.383 31.48-15.566 5.5-27.855 9.86-35.95 16.2-6.265 4.894-16.921 22.515-31.687 52.413"></path><g clip-path="url(#a)"><path fill="#2c3e50" d="M140.133 524.535c-12.524-15.52-40.781-47.738-53.29-60.258-10.878-10.894-27.988-33.382-35.116-48.191l-18.86-43.277-21.043-48.618c-1.136-2.492-1.719-5.097-1.699-7.59.02-2.628.66-5.097 1.836-7.152 1.137-1.945 2.7-3.367 4.613-4.25a9.711 9.711 0 0 1 4.043-.867c4.39 0 10.336 3.04 13.32 9.727l.31.597 14.304 24.559c.12.156.222.293.375.414.097.082 2.273 1.793 5.277 1.793 1.496 0 2.934-.414 4.274-1.23 4.093-2.438 4.023-6.95 3.43-8.989L40.503 291.81c-1.137-2.813-4.375-10.684.137-17.387 2.75-4.11 6.996-6.461 11.648-6.461 7.18 0 13.813 5.387 18.262 14.777l18.851 35.02c.067.148 2.176 4.101 6.063 4.101.95 0 1.922-.234 2.87-.707 4.395-2.214 3.97-7.093 3.122-9.355L77.336 264.34c-6.395-16.336 7.723-23.586 7.879-23.64a11.925 11.925 0 0 1 5.004-1.075c4.758 0 9.812 2.824 13.222 7.383.067.351.172.629.29.894.019.032.222.465.253.496l27.754 50.715c.063.13 2.219 4.442 6.578 4.442 1.145 0 2.313-.305 3.48-.914 4.216-2.164 3.77-6.204 2.942-8.02l-21.879-41.668a34.694 34.694 0 0 0-2.562-4.5c-.633-1.933-1.02-3.965-1.02-5.93.047-6.953 3.883-13.011 10.032-15.82a16.9 16.9 0 0 1 6.89-1.48c7.024.011 13.406 4.23 16.344 10.738l.27.555 29.738 50.812c.445 1.027 39.09 61.297 50.918 79.746.117.2.27.348.457.477l.523.328c1.399.926 3.301 2.187 5.692 2.187 4.14 0 7.996-3.652 12.117-11.472l11.59-23.703c13.191 20.632 15.261 31.68 15.074 32.89-2.7 31.418-9.84 55.848-15.563 75.477-4.652 15.867-8.304 28.39-7.894 38.664.27 6.445 5.719 20.316 16.222 41.262-35.21.953-76.421 2.03-80.023 2.03 0 0-45.234-.609-51.531-.679"></path></g><path fill="#2c3e50" d="M243.91 716.457c-3.738 0-7.082-.137-9.984-.41l-46.79-6.195-52.5-7.102c-2.73-.313-5.226-1.172-7.366-2.477-2.235-1.359-4.04-3.199-5.188-5.265-1.059-1.977-1.477-4.04-1.262-6.14a10.1 10.1 0 0 1 1.39-3.977c2.349-3.926 7.423-6.446 12.95-6.446.735 0 1.465.051 2.227.137l.66.035 28.445.434c.172 0 .348-.04.531-.098.223-.09 5.415-2.047 5.415-7.879.015-4.77-3.856-7.043-5.926-7.586l-44.79-2.015c-3.003-.477-11.394-1.785-14.816-9.102-2.156-4.61-1.902-9.558.66-13.586 3.246-5.117 9.61-7.941 17.871-7.941 1.29 0 2.63.082 4.04.21L169.23 633c3.41 0 7.16-1.55 7.48-5.895.38-4.902-4.023-7.043-6.382-7.511l-53.105-3.86c-17.282-2.968-16.192-18.797-16.172-18.957a12.17 12.17 0 0 1 1.68-4.843c2.41-4.043 7.468-6.922 13.152-7.508.32.136.613.183.914.222l58.36 2.477c3.984 0 7.84-1.797 8.179-6.797.32-4.738-3.363-6.43-5.352-6.68l-46.875-2.773a39.808 39.808 0 0 0-3.636-.164c-.543 0-1.106.016-1.66.027-1.934-.441-3.954-1.191-5.586-2.172-5.938-3.652-9.165-10.058-8.364-16.757a16.596 16.596 0 0 1 2.32-6.778c3.196-5.226 9.083-8.484 15.36-8.484.73 0 1.477.05 2.227.137l.628.043 58.915.785c7.53 0 90.07-1.91 90.906-1.926.34-.02.68-.137.945-.356.375-.312.8-.605 1.277-.906 4.274-2.8 7.82-6.594.215-19.215L273.63 492.48c1.953-.046 3.8-.078 5.598-.078 19.402 0 29.43 3.094 30.718 4.157 25.5 18.539 42.727 37.289 56.57 52.34 11.192 12.152 20.016 21.75 29.044 26.703 1.191.664 2.804 1.273 4.902 1.91.445.203 1.125.379 1.77.52 6.605 1.73 17.058 3.238 31.007 4.48-22.828 31.75-47.746 66.277-49.847 69.043 0 0-.766.953-36.137 46.136-.828.86-1.695 1.91-2.547 3.094-21.219 3.66-41.293 7.613-51.355 10.074-10.989 2.72-32.043 5.598-49.43 5.598h-.012"></path><path fill="#2c3e50" d="M478.164 809.918c-.625 0-1.234-.043-1.848-.137-2.222-.343-4.144-1.258-5.652-2.718a9.839 9.839 0 0 1-2.324-3.52c-1.594-3.953-.969-10.602 4.176-15.89l.441-.5 17.547-22.348c.117-.149.203-.317.27-.504.07-.223 1.632-5.54-2.985-9.094-1.375-1.05-2.922-1.582-4.547-1.582-2.805 0-4.855 1.54-5.078 1.71l-28.75 34.411c-1.797 1.711-6.855 6.586-13.375 6.586-.953 0-1.898-.105-2.848-.309-5.18-1.125-9.152-4.648-10.648-9.421-2-6.489.68-14.297 7.367-21.446l25.633-30.426c1.578-1.828 3.598-6.207-.152-9.55-1.262-1.125-2.7-1.7-4.293-1.7-3.024 0-5.434 2.137-5.555 2.23l-35.23 39.892c-4.024 3.738-8.493 5.695-13.176 5.695-5.938 0-10.575-3.176-11.715-4.309a11.592 11.592 0 0 1-2.828-4.265c-1.766-4.375-.989-10.137 1.984-15.016.309-.16.524-.379.746-.598l37.309-44.875c.035-.062 2.308-2.59 2.117-5.785-.098-1.847-.965-3.476-2.559-4.886-1.273-1.114-2.668-1.676-4.125-1.676-2.527 0-4.226 1.699-4.43 1.89 0 0-30.671 35.664-30.671 35.707-1.117 1.192-2.168 2.504-3.238 4.016-1.551 1.285-3.348 2.445-5.11 3.14-2.125.81-4.347 1.243-6.586 1.243-4.469 0-8.676-1.696-11.832-4.742a16.998 16.998 0 0 1-3.992-5.97c-2.508-6.44-.934-13.917 4.012-19.023l.437-.488 36.305-46.351c.766-.79 42.601-58.907 55.387-76.7.214-.285.3-.617.3-.964-.02-.477.02-.993.051-1.555.375-5.098-.488-10.227-15.156-11.828l-26.29-2.043c14.31-19.86 23.829-25.86 25.017-26.13 30.214-9.054 55.55-11.413 75.921-13.296 16.442-1.54 29.43-2.73 38.852-6.91 5.926-2.63 15.75-11.727 30.82-28.586 15.16 31.719 46.133 99.457 53.278 115.902-8.465 13.852-30.79 58.309-38.446 75.953-6.12 14.125-20.722 38.32-31.875 50.399l-33.285 33.488-37.453 37.441c-1.902 1.965-4.09 3.461-6.45 4.364-1.784.699-3.663 1.074-5.468 1.074"></path><g clip-path="url(#b)"><path fill="#2c3e50" d="M665.375 625c-.73 0-1.426-.05-2.121-.137-6.856-.886-12.656-5.843-14.785-12.652l-.235-.617-23.254-54.063c-.324-1.062-30.62-64.492-39.902-83.906a1.551 1.551 0 0 0-.7-.723l-.776-.402c-1.36-.723-3.079-1.625-5.247-1.625-4.207 0-8.52 3.395-13.593 10.676l-14.7 17.746c-10.605-22.059-11.218-32.297-10.867-33.426 6.54-30.848 16.621-54.23 24.715-73.004 6.555-15.164 11.727-27.137 12.563-37.387 1.34-16.214-25.086-79.867-30.16-91.906 10.183-1.281 58.195-6.808 122.101-6.86 8.484 22.49 19.129 50.9 22.316 60.938 1.903 6.008 38.172 59.618 50.938 76.024 9.473 12.164 23.676 36.57 28.941 52.11l13.418 45.269 14.922 50.843c.836 2.657 1.07 5.235.73 7.735-.335 2.62-1.253 4.988-2.683 6.87-1.36 1.774-3.07 3.017-5.11 3.653a9.68 9.68 0 0 1-2.878.45c-.446 0-.871-.043-1.293-.09-4.262-.496-9.793-4.239-11.95-11.27l-.238-.633-11.203-26.133a1.428 1.428 0 0 0-.3-.457c-.106-.105-2.481-2.484-6.012-2.484-1.137 0-2.29.254-3.414.758-4.34 1.91-4.848 6.394-4.508 8.504l16.41 41.722c.797 2.922 3.035 11.141-2.254 17.22-2.836 3.288-6.644 5.105-10.695 5.105-7.742 0-14.465-6.364-17.961-17.016l-14.43-37.066c-.066-.184-1.847-4.868-6.207-4.868-.73 0-1.476.149-2.238.418-4.633 1.645-4.809 6.543-4.246 8.887l18.11 50.05c4.343 16.985-10.56 22.466-10.708 22.509a11.827 11.827 0 0 1-5.11.445c-4.687-.562-9.37-3.996-12.206-8.957a4.17 4.17 0 0 0-.188-.922c0-.035-21.5-54.254-21.5-54.254-.054-.148-1.883-5.261-6.789-5.261-.902 0-1.816.175-2.77.511-4.46 1.645-4.511 5.707-3.917 7.625 0 0 16.597 43.996 16.632 44.031a35.72 35.72 0 0 0 1.965 4.778c.395 1.965.543 4.097.293 6-.918 6.914-5.468 12.472-11.883 14.465a17.175 17.175 0 0 1-5.023.777"></path></g></svg>