<svg xmlns="http://www.w3.org/2000/svg" version="1.0" viewBox="0 0 810 810"><defs><clipPath id="a"><path d="M235 137h50v70h-50Zm0 0"/></clipPath><clipPath id="b"><path d="m223.055 126.992 166.734-37.96 23.645 103.843-166.735 37.96Zm0 0"/></clipPath><clipPath id="c"><path d="m223.055 126.992 166.734-37.96 23.645 103.843-166.735 37.96Zm0 0"/></clipPath><clipPath id="d"><path d="m223.055 126.992 166.734-37.96 23.645 103.843-166.735 37.96Zm0 0"/></clipPath><clipPath id="e"><path d="M237.402 178.344a68.925 68.925 0 0 1-1.511-9.809 66.097 66.097 0 0 1-.086-9.746 59.25 59.25 0 0 1 1.351-9.305c.688-3 1.598-5.836 2.73-8.511a42.473 42.473 0 0 1 4.005-7.383c1.539-2.25 3.246-4.242 5.129-5.977a29.367 29.367 0 0 1 6.054-4.34 26.632 26.632 0 0 1 13.922-3.171c2.442.113 4.887.543 7.332 1.293 2.45.75 4.852 1.808 7.211 3.168 2.36 1.363 4.629 3.003 6.809 4.921a50.973 50.973 0 0 1 6.144 6.489 59.432 59.432 0 0 1 5.246 7.804 65.767 65.767 0 0 1 4.14 8.82 69.946 69.946 0 0 1 4.4 19.31c.269 3.288.296 6.534.081 9.741a59.712 59.712 0 0 1-1.347 9.305c-.688 3-1.598 5.836-2.73 8.512-1.137 2.672-2.47 5.133-4.009 7.383-1.535 2.25-3.246 4.242-5.128 5.976a29.343 29.343 0 0 1-6.051 4.34 26.659 26.659 0 0 1-13.922 3.172 29.674 29.674 0 0 1-7.336-1.293 34.794 34.794 0 0 1-7.211-3.168c-2.355-1.363-4.625-3.004-6.805-4.922a50.7 50.7 0 0 1-6.144-6.488 59.048 59.048 0 0 1-5.246-7.805 65.785 65.785 0 0 1-4.145-8.82 69.216 69.216 0 0 1-2.883-9.496Zm0 0"/></clipPath><clipPath id="f"><path d="M239 157h21v21h-21Zm0 0"/></clipPath><clipPath id="g"><path d="m223.055 126.992 166.734-37.96 23.645 103.843-166.735 37.96Zm0 0"/></clipPath><clipPath id="h"><path d="m223.055 126.992 166.734-37.96 23.645 103.843-166.735 37.96Zm0 0"/></clipPath><clipPath id="i"><path d="m223.055 126.992 166.734-37.96 23.645 103.843-166.735 37.96Zm0 0"/></clipPath><clipPath id="j"><path d="M237.402 178.344a68.925 68.925 0 0 1-1.511-9.809 66.097 66.097 0 0 1-.086-9.746 59.25 59.25 0 0 1 1.351-9.305c.688-3 1.598-5.836 2.73-8.511a42.473 42.473 0 0 1 4.005-7.383c1.539-2.25 3.246-4.242 5.129-5.977a29.367 29.367 0 0 1 6.054-4.34 26.632 26.632 0 0 1 13.922-3.171c2.442.113 4.887.543 7.332 1.293 2.45.75 4.852 1.808 7.211 3.168 2.36 1.363 4.629 3.003 6.809 4.921a50.973 50.973 0 0 1 6.144 6.489 59.432 59.432 0 0 1 5.246 7.804 65.767 65.767 0 0 1 4.14 8.82 69.946 69.946 0 0 1 4.4 19.31c.269 3.288.296 6.534.081 9.741a59.712 59.712 0 0 1-1.347 9.305c-.688 3-1.598 5.836-2.73 8.512-1.137 2.672-2.47 5.133-4.009 7.383-1.535 2.25-3.246 4.242-5.128 5.976a29.343 29.343 0 0 1-6.051 4.34 26.659 26.659 0 0 1-13.922 3.172 29.674 29.674 0 0 1-7.336-1.293 34.794 34.794 0 0 1-7.211-3.168c-2.355-1.363-4.625-3.004-6.805-4.922a50.7 50.7 0 0 1-6.144-6.488 59.048 59.048 0 0 1-5.246-7.805 65.785 65.785 0 0 1-4.145-8.82 69.216 69.216 0 0 1-2.883-9.496Zm0 0"/></clipPath><clipPath id="k"><path d="M326 116h50v71h-50Zm0 0"/></clipPath><clipPath id="l"><path d="m223.055 126.992 166.734-37.96 23.645 103.843-166.735 37.96Zm0 0"/></clipPath><clipPath id="m"><path d="m223.055 126.992 166.734-37.96 23.645 103.843-166.735 37.96Zm0 0"/></clipPath><clipPath id="n"><path d="m223.055 126.992 166.734-37.96 23.645 103.843-166.735 37.96Zm0 0"/></clipPath><clipPath id="o"><path d="M327.75 157.773a70.022 70.022 0 0 1-1.512-9.812c-.27-3.29-.297-6.54-.082-9.742.211-3.207.66-6.309 1.348-9.305.687-3 1.598-5.836 2.73-8.512 1.133-2.672 2.47-5.136 4.008-7.382 1.535-2.25 3.246-4.243 5.125-5.977a29.367 29.367 0 0 1 6.055-4.34 26.688 26.688 0 0 1 6.742-2.535 26.738 26.738 0 0 1 7.18-.637c2.441.114 4.886.543 7.336 1.293 2.445.75 4.847 1.805 7.207 3.168 2.36 1.363 4.629 3.004 6.808 4.922a50.973 50.973 0 0 1 6.145 6.488 59.432 59.432 0 0 1 5.246 7.805 66.27 66.27 0 0 1 4.144 8.82 70.056 70.056 0 0 1 4.395 19.305c.27 3.293.297 6.54.082 9.746a58.795 58.795 0 0 1-1.348 9.305c-.687 3-1.597 5.836-2.73 8.508-1.133 2.675-2.469 5.136-4.008 7.386-1.535 2.25-3.246 4.243-5.125 5.977a29.367 29.367 0 0 1-6.055 4.34 26.688 26.688 0 0 1-6.742 2.535 26.738 26.738 0 0 1-7.18.637 29.612 29.612 0 0 1-7.332-1.293c-2.449-.75-4.851-1.809-7.21-3.168-2.36-1.364-4.63-3.004-6.809-4.922a51.235 51.235 0 0 1-6.145-6.488 59.432 59.432 0 0 1-5.246-7.805 66.27 66.27 0 0 1-4.144-8.82 69.932 69.932 0 0 1-2.883-9.497Zm0 0"/></clipPath><clipPath id="p"><path d="M330 136h20v21h-20Zm0 0"/></clipPath><clipPath id="q"><path d="m223.055 126.992 166.734-37.96 23.645 103.843-166.735 37.96Zm0 0"/></clipPath><clipPath id="r"><path d="m223.055 126.992 166.734-37.96 23.645 103.843-166.735 37.96Zm0 0"/></clipPath><clipPath id="s"><path d="m223.055 126.992 166.734-37.96 23.645 103.843-166.735 37.96Zm0 0"/></clipPath><clipPath id="t"><path d="M327.75 157.773a70.022 70.022 0 0 1-1.512-9.812c-.27-3.29-.297-6.54-.082-9.742.211-3.207.66-6.309 1.348-9.305.687-3 1.598-5.836 2.73-8.512 1.133-2.672 2.47-5.136 4.008-7.382 1.535-2.25 3.246-4.243 5.125-5.977a29.367 29.367 0 0 1 6.055-4.34 26.688 26.688 0 0 1 6.742-2.535 26.738 26.738 0 0 1 7.18-.637c2.441.114 4.886.543 7.336 1.293 2.445.75 4.847 1.805 7.207 3.168 2.36 1.363 4.629 3.004 6.808 4.922a50.973 50.973 0 0 1 6.145 6.488 59.432 59.432 0 0 1 5.246 7.805 66.27 66.27 0 0 1 4.144 8.82 70.056 70.056 0 0 1 4.395 19.305c.27 3.293.297 6.54.082 9.746a58.795 58.795 0 0 1-1.348 9.305c-.687 3-1.597 5.836-2.73 8.508-1.133 2.675-2.469 5.136-4.008 7.386-1.535 2.25-3.246 4.243-5.125 5.977a29.367 29.367 0 0 1-6.055 4.34 26.688 26.688 0 0 1-6.742 2.535 26.738 26.738 0 0 1-7.18.637 29.612 29.612 0 0 1-7.332-1.293c-2.449-.75-4.851-1.809-7.21-3.168-2.36-1.364-4.63-3.004-6.809-4.922a51.235 51.235 0 0 1-6.145-6.488 59.432 59.432 0 0 1-5.246-7.805 66.27 66.27 0 0 1-4.144-8.82 69.932 69.932 0 0 1-2.883-9.497Zm0 0"/></clipPath><clipPath id="u"><path d="M233 96h171v127H233Zm0 0"/></clipPath><clipPath id="v"><path d="m223.055 126.992 166.734-37.96 23.645 103.843-166.735 37.96Zm0 0"/></clipPath><clipPath id="w"><path d="m223.055 126.992 166.734-37.96 23.645 103.843-166.735 37.96Zm0 0"/></clipPath><clipPath id="x"><path d="m223.055 126.992 166.734-37.96 23.645 103.843-166.735 37.96Zm0 0"/></clipPath></defs><path d="M648.762 486.273c-60.188-36.148-150.84-100.214-157.211-112.617 0 0-3.301-6.824-8.211-16.984a176.895 176.895 0 0 1-18.856 19.058l4.313 8.93.137.27.132.27c2.797 5.445 7.473 14.55 66.239 56.44 32.824 23.395 71.316 48.805 100.445 66.298 15.3 9.199 29.777 36.8 29.777 56.796v.82l.055.821 12.574 193.441c-.363 13.625-11.554 24.594-25.265 24.594H291.535l53.223-171.758c.113-.351.086-.703.168-1.054 6.52-2.692 11.937-7.72 15.004-14.391 1.39-1.676 5.312-5.11 7.726-7.207 9.969-8.766 23.465-20.621 31.133-39.309l9.098-22.183c.27-.567.515-1.14.75-1.715l11.605-28.29c8.055-19.663.059-41.98-18.21-52.315-3.317-6.727-8.38-12.528-14.743-16.684a42.958 42.958 0 0 0-6.465-11.09l13.672-32.293c7.317-2.21 14.535-4.93 21.578-8.36 84.899-41.324 114.524-155.847 66.18-255.78C446.906 48.91 379.668 3.987 312.883 1.214l-6.535-.266h-.012l-6.742.176c-20.055.879-39.875 5.637-58.567 14.742C156.13 57.184 126.5 171.7 174.844 271.641c26.297 54.37 70.285 93.05 118.574 110.5-1.84-.258-3.691-.43-5.574-.43-4.098 0-8.164.621-12.086 1.848-32.164 10.078-29.203 48.097-27.778 66.375.282 3.644.641 8.187.543 10.023-.351 6.586-.753 14.02-.75 21.023-1.203 19.06.825 32.485 2.309 42.34 1.711 11.434 2.227 14.89-1.238 23.336-2.309 5.64-2.668 11.555-1.477 17.074a12.41 12.41 0 0 0-3.93 3.43L135.185 712.535c-4.168 5.598-3.008 13.512 2.59 17.684a12.595 12.595 0 0 0 7.535 2.5c3.855 0 7.668-1.762 10.148-5.09l107.39-144.219c.212.106.383.25.594.348l55.754 26.012-54.113 174.64H50.547c-13.942 0-25.274-11.332-25.274-25.273V564.734c0-19.996 14.477-47.597 29.778-56.797C223.199 406.945 230.738 392.262 234.367 385.2l.274-.539 1.629-3.37c-7.075-4.794-13.86-10.118-20.461-15.755-2.446 5.067-3.926 8.121-3.926 8.121-6.367 12.403-109.656 76.469-169.844 112.617C18.11 500.653 0 536.82 0 564.734v194.403c0 27.914 22.633 50.547 50.547 50.547H652.89c27.914 0 50.547-22.633 50.547-50.547L690.8 564.734c0-27.914-18.11-64.082-42.04-78.46Zm-451.168-225.64c-42.211-87.266-17.77-186.88 54.5-222.047 16.844-8.207 35.097-12.363 54.25-12.363h.004c61.664 0 121.78 41.906 153.156 106.765 41.82 86.446 18.195 184.965-52.5 221 3.566-18.8-5.61-37.832-23.176-46.011-5.32-2.489-10.984-3.754-16.808-3.754-16.332 0-31.016 10.097-37.415 25.726l-13.808 32.903c-48.61-12.387-92.824-49.75-118.203-102.22Zm76.347 300.14c-1.644-.753-2.421-2.8-1.718-4.523 6.113-14.898 4.742-24.031 2.847-36.7-1.41-9.37-3.156-21.058-2.015-37.784-.043-6.418.332-13.559.703-20.47.754-14.222-7.621-48.237 9.558-53.616a15.1 15.1 0 0 1 4.528-.7c2.191 0 4.383.48 6.437 1.438 4.219 1.977 7.43 5.746 8.828 10.375 2.286 7.613 4.036 17.078 5.09 27.492l44.797-106.762c2.586-6.312 8.133-10.027 14.02-10.027 2.046 0 4.125.445 6.144 1.39 8 3.727 11.531 13.301 8.05 21.798l-31.972 75.52a15.82 15.82 0 0 1 6.114 1.476c7.035 3.277 10.824 11.101 9.386 18.402h.043c2.27 0 4.555.477 6.696 1.473 6.07 2.832 9.668 9.066 9.64 15.406.09.371.106.762.063 1.144a15.726 15.726 0 0 1 7.184 1.45c7.984 3.726 11.796 13.308 8.5 21.355l-11.692 28.488a4.393 4.393 0 0 1-.3.63l-9.462 23.062c-5.433 13.242-15.515 22.082-24.379 29.87-6.41 5.595-11.898 10.458-13.992 15.517-.512 1.277-1.695 2.03-2.941 2.03-.453 0-.914-.097-1.352-.3Zm0 0"/><path d="M126.363 759.137c0 .832-.078 1.652-.242 2.465-.16.816-.402 1.605-.719 2.37-.316.77-.707 1.497-1.168 2.188-.46.688-.984 1.328-1.57 1.914a12.716 12.716 0 0 1-1.914 1.57c-.691.461-1.418.852-2.188 1.168a12.536 12.536 0 0 1-4.832.961 12.536 12.536 0 0 1-4.836-.96 12.507 12.507 0 0 1-2.187-1.168 12.716 12.716 0 0 1-1.914-1.57 12.716 12.716 0 0 1-1.57-1.915 12.507 12.507 0 0 1-1.168-2.187 12.488 12.488 0 0 1-.72-2.371 12.41 12.41 0 0 1-.241-2.465 12.662 12.662 0 0 1 2.129-7.02c.46-.691.984-1.328 1.57-1.914a12.716 12.716 0 0 1 1.914-1.57c.691-.461 1.418-.852 2.188-1.168.765-.32 1.554-.559 2.367-.719a12.48 12.48 0 0 1 4.933 0c.813.16 1.602.399 2.368.719.769.316 1.496.707 2.187 1.168.688.46 1.328.984 1.914 1.57a12.613 12.613 0 0 1 3.7 8.934ZM772.313 67.914C768.297 42 751.09 22.777 725.457 15.977c-11.414-3.036-23.207-2.536-34.773 1.562-8.262-7.676-18.547-12.871-30.68-15.473l-.664-.132c-8.688-1.375-14.149-1.399-21.79.148-13.284 2.969-24.402 9.059-33.034 18.086-4.868 5.07-8.594 10.324-11.297 15.902-24.457 2.098-46.09 19.602-53.633 44.028-4.008 13.082-3.742 25.945.766 38.25-10.754 17.109-12.649 38.336-5.004 57.265 7.91 19.61 24.601 33.356 45.797 37.73a57.306 57.306 0 0 0 16.628.946c9.63 13.867 23.293 22.719 39.809 25.695 3.856.7 7.727 1.059 11.484 1.059 12.118 0 23.391-3.563 33.645-10.652 8.973 4.695 18.848 7.16 28.844 7.16 31.449 0 57.453-22.735 61.828-54.047l.023-.16c.215-1.301.403-2.086.524-2.535.32-.2.847-.508 1.691-.961 20.438-11.121 31.863-29.266 33.035-52.473 1.297-25.34-13.48-49.07-36.343-59.46Zm-8.735 89.715c-9.23 4.976-13.094 10.316-14.984 20.871l-.239 1.512c-2.96 21.183-20.75 32.265-36.8 32.265-6.88 0-13.707-2-19.723-5.77-3.246-2.038-6.437-3.03-9.762-3.03-5.914 0-10.008 3.28-11.355 4.363-8.582 6.855-17.93 9.195-28.64 7.281-11.118-2.012-19.45-7.984-25.427-18.203-4.359-7.54-10.773-8.664-14.21-8.664-1.215 0-2.481.137-3.649.379-4.11.824-8.379.82-12.547-.043-12.758-2.63-22.765-10.813-27.46-22.438-4.782-11.84-3.368-25.14 3.784-35.593 4.176-6.114 4.891-12.637 2.098-19.418-3.11-7.504-3.418-15.457-.922-23.614 4.801-15.543 18.95-26.402 34.418-26.402l.688.008c7.445 0 13.406-4.192 15.949-11.25 1.5-4.203 4.101-8.2 7.969-12.235 5.214-5.449 11.847-9.015 20.043-10.847 4.132-.84 6.867-.79 12.214.043 9.016 1.992 15.957 5.953 21.207 12.082 3.098 3.62 7.32 5.613 11.88 5.613 3.206 0 5.761-.969 7.632-1.82 7.86-3.559 15.594-4.356 23.23-2.313 16.801 4.453 27.29 17.153 28.774 34.782.54 6.859 4.516 12.128 11.031 14.5 15.325 5.386 25.465 20.355 24.645 36.402-.742 14.55-7.055 24.578-19.844 31.539ZM600.254 329.496c20.89 0 37.89-16.996 37.89-37.894 0-20.914-17-37.922-37.89-37.922-20.91 0-37.93 17.007-37.93 37.922 0 20.898 17.02 37.894 37.93 37.894Zm0-50.547c6.957 0 12.617 5.68 12.617 12.653 0 6.957-5.66 12.62-12.617 12.62-6.98 0-12.656-5.663-12.656-12.62 0-6.973 5.675-12.653 12.656-12.653ZM574.969 361.102c0 .62-.032 1.238-.094 1.855a17.999 17.999 0 0 1-.273 1.84 18.753 18.753 0 0 1-1.078 3.559 18.826 18.826 0 0 1-4.11 6.148c-.437.437-.898.855-1.375 1.25-.48.394-.98.762-1.496 1.105-.516.348-1.047.664-1.594.957a18.652 18.652 0 0 1-3.434 1.422 19.045 19.045 0 0 1-3.644.727c-.617.058-1.238.09-1.86.09-.62 0-1.238-.032-1.855-.09a19.151 19.151 0 0 1-3.644-.727 18.726 18.726 0 0 1-5.032-2.379 18.633 18.633 0 0 1-2.87-2.355 19.035 19.035 0 0 1-2.356-2.871 18.371 18.371 0 0 1-.957-1.598 18.726 18.726 0 0 1-1.422-3.434 19.044 19.044 0 0 1-.727-3.644 19.602 19.602 0 0 1-.09-1.855c0-.622.032-1.243.09-1.86a19.044 19.044 0 0 1 2.148-7.078c.294-.547.61-1.078.958-1.594.344-.515.71-1.015 1.105-1.496.395-.476.813-.937 1.25-1.375a18.17 18.17 0 0 1 1.38-1.25 18.681 18.681 0 0 1 4.769-2.86 18.753 18.753 0 0 1 5.398-1.35 18.385 18.385 0 0 1 3.715 0c.617.058 1.23.152 1.84.273.61.12 1.21.27 1.805.449a19.426 19.426 0 0 1 3.434 1.422 19.332 19.332 0 0 1 3.09 2.066c.476.395.937.809 1.374 1.25a18.893 18.893 0 0 1 2.36 2.871c.343.516.663 1.047.956 1.594a19.426 19.426 0 0 1 1.422 3.434c.18.593.328 1.195.45 1.804.12.61.214 1.223.273 1.84.063.617.094 1.238.094 1.86Zm0 0"/><path d="M619.855 69.898c-23.324 6.832-31.851 27.063-33.207 37.946-.87 6.926 4.04 13.242 10.97 14.105.53.07 1.062.102 1.585.102 6.277 0 11.723-4.68 12.52-11.07.02-.13 1.765-12.883 15.226-16.82 6.703-1.962 10.54-8.985 8.586-15.68-1.965-6.7-8.984-10.524-15.68-8.583ZM688.691 89.402c0 .832-.082 1.653-.246 2.465-.16.817-.398 1.606-.718 2.371a12.747 12.747 0 0 1-2.738 4.102 12.716 12.716 0 0 1-4.098 2.738 12.662 12.662 0 0 1-7.305.719 12.536 12.536 0 0 1-2.367-.719 12.507 12.507 0 0 1-2.188-1.168 12.716 12.716 0 0 1-1.914-1.57 12.747 12.747 0 0 1-2.738-4.102 12.488 12.488 0 0 1-.719-2.37 12.41 12.41 0 0 1-.242-2.466 12.662 12.662 0 0 1 2.129-7.02 12.742 12.742 0 0 1 3.484-3.488c.692-.46 1.418-.847 2.188-1.164a12.548 12.548 0 0 1 7.3-.722c.813.164 1.602.402 2.372.722.765.317 1.492.704 2.183 1.165a12.742 12.742 0 0 1 3.485 3.488 12.613 12.613 0 0 1 1.886 4.555c.164.812.246 1.636.246 2.464Zm0 0"/><g clip-path="url(#a)"><g clip-path="url(#b)"><g clip-path="url(#c)"><g clip-path="url(#d)"><g clip-path="url(#e)"><path d="M283.797 166.617c.258 1.121.473 2.246.644 3.38.176 1.132.309 2.269.403 3.401.094 1.137.144 2.27.152 3.395a45.306 45.306 0 0 1-.094 3.348 44.844 44.844 0 0 1-.343 3.273 41.142 41.142 0 0 1-.59 3.164 38.552 38.552 0 0 1-.828 3.024 33.972 33.972 0 0 1-1.063 2.859c-.39.922-.816 1.812-1.281 2.664a26.544 26.544 0 0 1-3.172 4.645 23.033 23.033 0 0 1-1.863 1.933 21.74 21.74 0 0 1-2.024 1.652c-.699.5-1.418.95-2.164 1.352a18.94 18.94 0 0 1-2.281 1.035 17.861 17.861 0 0 1-4.84 1.102c-.828.074-1.664.093-2.508.054-.84-.039-1.687-.132-2.535-.28a21.41 21.41 0 0 1-2.539-.614 22.85 22.85 0 0 1-2.516-.938 25.729 25.729 0 0 1-2.468-1.254 27.92 27.92 0 0 1-2.403-1.558 31.384 31.384 0 0 1-2.308-1.844 34.883 34.883 0 0 1-2.192-2.12 37.88 37.88 0 0 1-2.058-2.368 40.307 40.307 0 0 1-1.899-2.598 44.518 44.518 0 0 1-4.594-8.902 48.011 48.011 0 0 1-1.995-6.567 50.092 50.092 0 0 1-.645-3.382 45.843 45.843 0 0 1-.398-3.403 47.194 47.194 0 0 1-.157-3.394 45.297 45.297 0 0 1 .098-3.348c.074-1.105.187-2.195.344-3.27.156-1.078.351-2.132.59-3.167a35.416 35.416 0 0 1 1.886-5.883c.39-.922.82-1.813 1.281-2.664.465-.856.961-1.668 1.493-2.446a24.942 24.942 0 0 1 1.683-2.199c.59-.691 1.211-1.336 1.864-1.933a19.909 19.909 0 0 1 4.184-3 18.171 18.171 0 0 1 2.284-1.04 18.284 18.284 0 0 1 2.38-.714 17.38 17.38 0 0 1 2.456-.387 18.513 18.513 0 0 1 2.508-.055c.844.04 1.688.133 2.535.282.848.148 1.696.355 2.54.613.843.258 1.683.57 2.515.937a26.254 26.254 0 0 1 4.871 2.813c.79.566 1.559 1.183 2.309 1.847.753.66 1.484 1.368 2.195 2.118.707.75 1.394 1.539 2.055 2.367.66.832 1.296 1.695 1.902 2.598a43.661 43.661 0 0 1 3.262 5.777c.48 1.02.922 2.062 1.332 3.125a47.98 47.98 0 0 1 1.11 3.242c.335 1.098.628 2.207.882 3.328Zm0 0"/></g></g></g></g></g><g clip-path="url(#f)"><g clip-path="url(#g)"><g clip-path="url(#h)"><g clip-path="url(#i)"><g clip-path="url(#j)"><path fill="#fff" d="M258.902 165.172a10.495 10.495 0 0 1 .14 3.895 10.02 10.02 0 0 1-.483 1.882 9.755 9.755 0 0 1-.829 1.742 9.779 9.779 0 0 1-1.14 1.536c-.43.472-.902.894-1.414 1.27a9.334 9.334 0 0 1-3.414 1.559 9.106 9.106 0 0 1-1.867.225 9.498 9.498 0 0 1-1.883-.152 9.728 9.728 0 0 1-5.02-2.637 9.934 9.934 0 0 1-1.25-1.488 10.119 10.119 0 0 1-.949-1.707 10.47 10.47 0 0 1-.613-1.86 10.53 10.53 0 0 1-.254-1.945 10.319 10.319 0 0 1 .598-3.832 9.802 9.802 0 0 1 1.973-3.277c.429-.473.898-.895 1.413-1.27a9.223 9.223 0 0 1 7.164-1.633 9.65 9.65 0 0 1 1.824.532c.59.242 1.157.539 1.696.89.535.356 1.035.758 1.5 1.211.46.457.879.953 1.25 1.492a10.254 10.254 0 0 1 1.559 3.566Zm0 0"/></g></g></g></g></g><g clip-path="url(#k)"><g clip-path="url(#l)"><g clip-path="url(#m)"><g clip-path="url(#n)"><g clip-path="url(#o)"><path d="M374.145 146.043c.257 1.121.472 2.25.648 3.383a48.025 48.025 0 0 1 .55 6.797 43.26 43.26 0 0 1-.437 6.617 38.712 38.712 0 0 1-1.418 6.191 33.956 33.956 0 0 1-1.058 2.86c-.395.922-.82 1.812-1.282 2.664-.464.855-.96 1.668-1.492 2.445a25.718 25.718 0 0 1-1.683 2.2 23.033 23.033 0 0 1-1.864 1.933 21.24 21.24 0 0 1-2.023 1.652c-.7.5-1.418.95-2.16 1.348a18.428 18.428 0 0 1-4.668 1.754c-.809.187-1.625.312-2.453.386a19.216 19.216 0 0 1-5.047-.226 22.14 22.14 0 0 1-5.051-1.55 25.34 25.34 0 0 1-2.473-1.255 27.273 27.273 0 0 1-2.398-1.558 28.973 28.973 0 0 1-2.309-1.848 32.828 32.828 0 0 1-2.195-2.117c-.71-.75-1.394-1.54-2.055-2.367a38.922 38.922 0 0 1-1.902-2.598 41.973 41.973 0 0 1-1.727-2.8 42.717 42.717 0 0 1-1.535-2.977 47.195 47.195 0 0 1-1.332-3.125 47.98 47.98 0 0 1-1.11-3.243 46.347 46.347 0 0 1-.882-3.328 45.555 45.555 0 0 1-.644-3.379 47.883 47.883 0 0 1-.403-3.406 44.926 44.926 0 0 1-.152-3.39 43.26 43.26 0 0 1 .437-6.622c.157-1.074.352-2.129.59-3.164.238-1.03.512-2.043.828-3.023.317-.984.668-1.938 1.063-2.86.39-.921.816-1.812 1.277-2.664.465-.855.961-1.668 1.492-2.445a25.718 25.718 0 0 1 1.684-2.2 23.033 23.033 0 0 1 1.863-1.933 20.52 20.52 0 0 1 4.184-3.004 18.986 18.986 0 0 1 4.668-1.754 17.861 17.861 0 0 1 2.457-.382 18.485 18.485 0 0 1 2.508-.055c.84.04 1.687.133 2.535.281.847.149 1.691.356 2.535.614.844.257 1.684.57 2.516.937.836.367 1.66.785 2.472 1.254a27.92 27.92 0 0 1 2.403 1.559 30.527 30.527 0 0 1 2.304 1.843 33.903 33.903 0 0 1 2.196 2.121 38.923 38.923 0 0 1 3.957 4.965 41.974 41.974 0 0 1 1.726 2.801 42.717 42.717 0 0 1 1.535 2.977 47.195 47.195 0 0 1 2.446 6.367c.332 1.097.625 2.203.879 3.324Zm0 0"/></g></g></g></g></g><g clip-path="url(#p)"><g clip-path="url(#q)"><g clip-path="url(#r)"><g clip-path="url(#s)"><g clip-path="url(#t)"><path fill="#fff" d="M349.254 144.602c.144.64.23 1.289.254 1.941a10.52 10.52 0 0 1-.117 1.953 10.4 10.4 0 0 1-.48 1.883 9.802 9.802 0 0 1-1.973 3.277c-.43.473-.903.895-1.415 1.27a9.204 9.204 0 0 1-1.628.953 9.243 9.243 0 0 1-1.786.605 9.24 9.24 0 0 1-3.75.07 9.487 9.487 0 0 1-3.52-1.422 9.694 9.694 0 0 1-1.5-1.21 10.172 10.172 0 0 1-2.198-3.195 10.728 10.728 0 0 1-.614-1.864 10.476 10.476 0 0 1-.137-3.89 10.02 10.02 0 0 1 .485-1.883c.219-.61.496-1.192.828-1.742.328-.551.711-1.067 1.14-1.536.43-.472.903-.898 1.415-1.269a9.223 9.223 0 0 1 7.164-1.633 9.567 9.567 0 0 1 3.52 1.422c.538.356 1.038.758 1.5 1.211a10.154 10.154 0 0 1 2.2 3.2c.26.597.463 1.218.612 1.859Zm0 0"/></g></g></g></g></g><g clip-path="url(#u)"><g clip-path="url(#v)"><g clip-path="url(#w)"><g clip-path="url(#x)"><path fill-rule="evenodd" d="M261.262 118.29c-8.52 1.94-15.559 7.526-20.465 15.472-7.106 11.508-9.73 28.035-5.836 45.136 3.894 17.102 13.414 30.864 24.8 38.16 7.864 5.04 16.626 7.028 25.145 5.09 8.52-1.941 15.559-7.527 20.465-15.476 7.106-11.504 9.727-28.031 5.836-45.133-3.894-17.101-13.414-30.863-24.8-38.16-7.864-5.04-16.626-7.027-25.145-5.09Zm90.347-20.571c-8.52 1.941-15.558 7.527-20.464 15.472-7.106 11.508-9.727 28.036-5.836 45.137 3.894 17.102 13.414 30.863 24.8 38.16 7.864 5.04 16.63 7.028 25.145 5.09 8.52-1.941 15.558-7.527 20.465-15.476 7.105-11.504 9.73-28.032 5.836-45.133-3.895-17.102-13.414-30.864-24.801-38.16-7.863-5.04-16.625-7.028-25.145-5.09Zm-89.234 25.465c7.234-1.645 14.656.144 21.336 4.421 10.434 6.688 19.043 19.375 22.613 35.047 3.567 15.668 1.297 30.832-5.21 41.375-4.169 6.75-10.087 11.578-17.321 13.227-7.234 1.644-14.656-.145-21.336-4.426-10.434-6.683-19.047-19.371-22.613-35.043-3.567-15.668-1.297-30.832 5.21-41.375 4.169-6.754 10.087-11.578 17.321-13.226Zm90.348-20.57c7.238-1.65 14.656.144 21.34 4.421 10.43 6.688 19.042 19.375 22.609 35.043 3.566 15.672 1.3 30.836-5.211 41.379-4.168 6.75-10.086 11.578-17.32 13.223-7.235 1.648-14.657-.14-21.336-4.422-10.434-6.684-19.043-19.371-22.614-35.043-3.566-15.668-1.296-30.832 5.211-41.375 4.172-6.754 10.086-11.578 17.32-13.227Zm0 0"/></g></g></g></g></svg>