<svg xmlns="http://www.w3.org/2000/svg" viewBox="-19.587 -16.877 548.436 540.064" xmlns:bx="https://boxy-svg.com" width="548.436px" height="540.064px"><path d="M 214.101 225.492 L 214.101 152.844 C 214.101 150.669 215.865 148.906 218.04 148.906 L 282.81 148.906 C 284.985 148.906 286.748 150.669 286.748 152.844 L 286.748 225.492 C 286.748 227.667 284.985 229.431 282.81 229.431 L 218.04 229.431 C 215.865 229.431 214.101 227.667 214.101 225.492 Z M 229.999 211.558 L 271.824 211.558 L 271.824 168.748 L 229.999 168.748 L 229.999 211.558 Z M 214.101 317.46 L 214.101 252.69 C 214.101 250.515 215.865 248.752 218.04 248.752 L 282.81 248.752 C 284.985 248.752 286.748 250.515 286.748 252.69 L 286.748 317.46 C 286.748 319.635 284.985 321.399 282.81 321.399 L 218.04 321.399 C 215.865 321.399 214.101 319.635 214.101 317.46 Z M 229.999 305.495 L 271.824 305.495 L 271.824 265.634 L 229.999 265.634 L 229.999 305.495 Z M 427.314 299.128 L 352.692 299.128 C 350.517 299.128 348.753 297.364 348.753 295.189 L 348.753 230.425 C 348.753 228.25 350.517 226.487 352.692 226.487 L 427.314 226.487 C 429.489 226.487 431.252 228.25 431.252 230.425 L 431.252 295.189 C 431.252 297.364 429.489 299.128 427.314 299.128 Z M 368.595 282.245 L 411.41 282.245 L 411.41 242.39 L 368.595 242.39 L 368.595 282.245 Z M 427.314 397.003 L 352.692 397.003 C 350.517 397.003 348.753 395.24 348.753 393.065 L 348.753 322.387 C 348.753 320.212 350.517 318.449 352.692 318.449 L 427.314 318.449 C 429.489 318.449 431.252 320.212 431.252 322.387 L 431.252 393.065 C 431.252 395.24 429.489 397.003 427.314 397.003 Z M 368.595 379.131 L 411.41 379.131 L 411.41 336.321 L 368.595 336.321 L 368.595 379.131 Z M 69.598 295.189 L 69.598 230.425 C 69.598 228.25 71.361 226.487 73.536 226.487 L 148.153 226.487 C 150.328 226.487 152.091 228.25 152.091 230.425 L 152.091 295.189 C 152.091 297.364 150.328 299.128 148.153 299.128 L 73.536 299.128 C 71.361 299.128 69.598 297.364 69.598 295.189 Z M 89.434 282.245 L 132.243 282.245 L 132.243 243.375 L 89.434 243.375 L 89.434 282.245 Z M 69.598 393.065 L 69.598 322.387 C 69.598 320.212 71.361 318.449 73.536 318.449 L 148.153 318.449 C 150.328 318.449 152.091 320.212 152.091 322.387 L 152.091 393.065 C 152.091 395.24 150.328 397.003 148.153 397.003 L 73.536 397.003 C 71.361 397.003 69.598 395.24 69.598 393.065 Z M 89.434 379.131 L 132.243 379.131 L 132.243 336.321 L 89.434 336.321 L 89.434 379.131 Z M 470.206 488.158 L 500.906 488.158 C 503.081 488.158 504.844 489.921 504.844 492.096 L 504.844 504.061 C 504.844 506.236 503.081 508 500.906 508 L -0.062 508 C -2.237 508 -4 506.236 -4 504.061 L -4 492.096 C -4 489.921 -2.237 488.158 -0.062 488.158 L 31.622 488.158 L 31.622 186.634 C 31.622 184.459 33.386 182.696 35.561 182.696 L 168.25 182.696 L 168.25 114.259 C 168.25 112.74 169.124 111.356 170.495 110.703 L 240.993 78.558 L 240.993 -0.062 C 240.993 -1.404 241.676 -2.653 242.806 -3.377 C 243.935 -4.101 245.355 -4.201 246.575 -3.641 L 321.785 33.593 C 323.164 34.226 327.011 35.596 327.034 37.115 C 327.055 38.633 323.249 40.028 321.888 40.702 L 260.835 68.441 L 260.835 78.558 L 330.349 110.703 C 331.72 111.356 332.595 112.74 332.595 114.259 L 332.595 182.691 L 466.268 182.691 C 468.443 182.691 470.206 184.454 470.206 186.629 L 470.206 488.158 Z M 260.835 50.656 L 290.463 36.888 L 260.835 23.547 L 260.835 50.656 Z M 188.092 123.473 L 188.092 423.355 L 214.101 423.355 L 214.101 347.606 C 214.101 345.431 215.865 343.668 218.04 343.668 L 282.81 343.668 C 284.985 343.668 286.748 345.431 286.748 347.606 L 286.748 423.36 L 312.753 423.36 L 312.753 123.473 L 250.422 95.167 L 188.092 123.473 Z M 271.829 363.51 L 229.02 363.51 L 229.02 423.355 L 271.829 423.355 L 271.829 363.51 Z M 48.511 488.152 L 452.339 488.152 L 452.339 202.533 L 332.595 202.533 L 332.595 423.355 L 361.136 423.355 C 363.311 423.355 365.074 425.119 365.074 427.294 L 365.074 434.336 C 365.074 436.511 363.311 438.274 361.136 438.274 L 139.709 438.274 C 137.534 438.274 135.77 436.511 135.77 434.336 L 135.77 427.294 C 135.77 425.119 137.534 423.355 139.709 423.355 L 168.25 423.355 L 168.25 202.533 L 48.511 202.533 L 48.511 488.152 Z M 116.051 456.764 L 384.737 456.764 C 386.912 456.764 388.675 458.528 388.675 460.703 L 388.675 467.722 C 388.675 469.897 386.912 471.661 384.737 471.661 L 116.051 471.661 C 113.876 471.661 113.064 470.403 113.064 468.228 L 112.927 460.362 C 112.655 458.533 113.876 456.764 116.051 456.764 Z"></path><defs></defs></svg>