<svg xmlns="http://www.w3.org/2000/svg" width="1080" height="1080" version="1.0" viewBox="0 0 810 810"><path fill="#2c3e50" fill-rule="evenodd" d="M117.887 613.625c.043.078.086.156.129.23l76.464 135.11c.036.066.075.137.114.203l16.808 29.703c1.66 2.961.633 6.742-2.312 8.406l-.016.012-36.863 20.89c-2.961 1.66-6.742.634-8.406-2.312l-.008-.008L55.305 614.152l-.004-.007c-1.672-2.95-.649-6.72 2.289-8.375l.012-.008 36.921-20.907c2.95-1.66 6.72-.593 8.407 2.34l.007.016Zm-28.672-6.32c-8.371 1.199-14.156 8.972-12.957 17.347 1.246 8.375 9.02 14.203 17.394 12.957 8.371-1.195 14.153-9.02 12.957-17.394-1.246-8.371-9.02-14.156-17.394-12.91Zm121.754 117.152L147.39 612.113l96.707-55.988c22.343-12.922 44.808-23.121 69.347-15.152h.004c31.656 10.261 83.266 32.14 135.992 41.82 12.297 4.367 20.227 16.633 16.825 29.293l-.004.004c-3.36 12.515-14.063 18.555-28.672 16.937-28.965-5.984-55.863-14.78-85.7-22.8-7.038-1.891-14.292 2.293-16.187 9.332-1.89 7.043 2.29 14.296 9.328 16.187 30.559 8.211 58.094 17.18 87.781 23.274 0 0 16.91 2.765 16.926 2.77 24.125 3.839 46.266.433 67.387-11.876l131.547-76.613c26.656-15.528 46.23-20.176 60.14-17.262 14.868 3.113 20.489 16.395 19.497 28.414-.641 7.79-3.82 15.402-9.961 19.188L479.637 746.609l-.012.008c-18.734 11.563-39.266 14.176-60.523 8.504L245.96 708.72a13.212 13.212 0 0 0-10.027 1.324ZM608.48 462.965l-.011 13.629c0 12.988-10.606 23.594-23.547 23.594v23.597c0 12.988-10.656 23.594-23.594 23.594h-.637v23.594c0 12.941-10.605 23.597-23.543 23.597H506.5c-12.941 0-23.598-10.656-23.598-23.597v-23.594h-.586c-12.988 0-23.593-10.606-23.593-23.594v-23.597c-12.989 0-23.594-10.606-23.594-23.594v-13.63ZM389.805 300.742c-7.653-15.394-13.153-32.613-13.153-58.96 0-80.177 64.996-145.173 145.172-145.173 80.172 0 145.168 64.996 145.168 145.172 0 80.614-51.52 75.797-58.472 194.602h-48.348V289.859h20.469c25.843 0 47.007-21.164 47.007-47.007 0-25.907-21.168-47.055-47.007-47.055-25.903 0-47.055 21.156-47.055 47.055v20.421h-23.524v-20.421c0-25.899-21.156-47.055-47.058-47.055-25.84 0-47.008 21.148-47.008 47.055 0 25.843 21.164 47.007 47.008 47.007h20.473v146.524h-48.348c-.766-13.04-2.063-24.59-3.774-34.93l21.485-19.996a26.6 26.6 0 0 0 8.473-19.465 26.593 26.593 0 0 0-8.481-19.46l-37.27-34.669a26.57 26.57 0 0 0-18.105-7.12Zm143.78 135.64h-23.523V289.86h23.524Zm-50.108-173.109h-20.473c-11.227 0-20.422-9.195-20.422-20.421 0-11.262 9.191-20.47 20.422-20.47 11.27 0 20.473 9.204 20.473 20.47Zm76.695 0v-20.421c0-11.266 9.203-20.47 20.469-20.47 11.234 0 20.422 9.208 20.422 20.47 0 11.226-9.196 20.421-20.422 20.421Zm-25.055-215.75c0 7.336-5.957 13.293-13.293 13.293-7.34 0-13.293-5.957-13.293-13.293V13.32c0-7.336 5.953-13.289 13.293-13.289 7.336 0 13.293 5.953 13.293 13.29Zm-111.289 22.7c3.664 6.355 1.477 14.488-4.879 18.152-6.355 3.664-14.492 1.477-18.156-4.879l-17.074-29.629c-3.664-6.355-1.477-14.488 4.879-18.152 6.355-3.664 14.492-1.477 18.152 4.879Zm-84.992 75.304c6.351 3.668 8.527 11.809 4.86 18.157-3.673 6.355-11.81 8.53-18.165 4.859l-29.625-17.125c-6.351-3.672-8.527-11.809-4.855-18.16 3.668-6.352 11.808-8.528 18.156-4.856Zm303.957-62.015c-3.672 6.351-11.809 8.527-18.16 4.855-6.352-3.672-8.528-11.808-4.856-18.16l17.125-29.629c3.668-6.351 11.809-8.527 18.16-4.855 6.352 3.672 8.528 11.808 4.856 18.16Zm75.328 85.023c-6.351 3.68-14.488 1.508-18.164-4.84-3.676-6.351-1.508-14.488 4.844-18.164l29.578-17.125c6.351-3.676 14.488-1.508 18.164 4.844 3.676 6.348 1.504 14.488-4.844 18.164ZM434.727 361.996l-37.27 34.692H384.57l-18.96-20.93-18.965 20.93-18.942-20.93-18.96 20.93h-67.829c-12.379 22.953-36.617 38.562-64.523 38.562-40.434 0-73.23-32.797-73.23-73.254 0-40.43 32.796-73.226 73.23-73.226 27.906 0 52.144 15.605 64.523 38.558h156.543ZM158.69 340.238c-12.035 0-21.785 9.746-21.785 21.758 0 12.035 9.75 21.785 21.785 21.785 12.008 0 21.758-9.75 21.758-21.785 0-12.012-9.75-21.758-21.758-21.758Zm0 0"></path></svg>